<svg xmlns="http://www.w3.org/2000/svg" viewBox="0 0 222 155.4"><defs><style>.cls-1{fill:#fff;}</style></defs><g id="レイヤー_2" data-name="レイヤー 2"><g id="レイヤー_1-2" data-name="レイヤー 1"><path class="cls-1" d="M217.36,24.27A27.77,27.77,0,0,0,197.73,4.64C180.42,0,111,0,111,0S41.58,0,24.27,4.64A27.77,27.77,0,0,0,4.64,24.27C0,41.58,0,77.7,0,77.7s0,36.12,4.64,53.43a27.77,27.77,0,0,0,19.63,19.63C41.58,155.4,111,155.4,111,155.4s69.42,0,86.73-4.64a27.77,27.77,0,0,0,19.63-19.63C222,113.82,222,77.7,222,77.7S222,41.58,217.36,24.27ZM88.8,111V44.4l57.67,33.3Z"/></g></g></svg>