<svg xmlns="http://www.w3.org/2000/svg" viewBox="0 0 207.45 207.45"><defs><style>.cls-1{fill:#fff;}</style></defs><g id="レイヤー_2" data-name="レイヤー 2"><g id="レイヤー_1-2" data-name="レイヤー 1"><path class="cls-1" d="M103.73,18.69c27.69,0,31,.1,41.91.6,10.11.47,15.61,2.16,19.26,3.58a32.24,32.24,0,0,1,11.93,7.75,32.27,32.27,0,0,1,7.76,11.93c1.42,3.66,3.11,9.15,3.57,19.26.5,10.94.6,14.22.6,41.92s-.1,31-.6,41.91c-.46,10.11-2.15,15.61-3.57,19.26a34.35,34.35,0,0,1-19.69,19.69c-3.65,1.42-9.15,3.11-19.26,3.57-10.94.5-14.22.6-41.91.6s-31-.1-41.92-.6c-10.11-.46-15.6-2.15-19.26-3.57a32.27,32.27,0,0,1-11.93-7.76,32.24,32.24,0,0,1-7.75-11.93c-1.42-3.65-3.11-9.15-3.58-19.26-.5-10.94-.6-14.22-.6-41.91s.1-31,.6-41.92c.47-10.11,2.16-15.6,3.58-19.26a32.24,32.24,0,0,1,7.75-11.93,32.24,32.24,0,0,1,11.93-7.75c3.66-1.42,9.15-3.11,19.26-3.58,10.94-.5,14.22-.6,41.92-.6m0-18.69C75.56,0,72,.12,61,.62S42.38,2.88,35.78,5.45a50.81,50.81,0,0,0-18.37,12,50.81,50.81,0,0,0-12,18.37C2.88,42.38,1.13,49.92.62,61S0,75.56,0,103.73s.12,31.7.62,42.76,2.26,18.58,4.83,25.18a50.72,50.72,0,0,0,12,18.37,50.84,50.84,0,0,0,18.37,12c6.6,2.56,14.14,4.31,25.18,4.82s14.6.62,42.77.62,31.7-.12,42.76-.62,18.58-2.26,25.18-4.82A53.11,53.11,0,0,0,202,171.67c2.56-6.6,4.31-14.14,4.82-25.18s.62-14.59.62-42.76S207.33,72,206.83,61,204.57,42.38,202,35.78a50.84,50.84,0,0,0-12-18.37,50.72,50.72,0,0,0-18.37-12c-6.6-2.57-14.14-4.32-25.18-4.83S131.9,0,103.73,0Z"/><path class="cls-1" d="M103.73,50.46A53.27,53.27,0,1,0,157,103.73,53.27,53.27,0,0,0,103.73,50.46Zm0,87.84a34.58,34.58,0,1,1,34.57-34.57A34.58,34.58,0,0,1,103.73,138.3Z"/><circle class="cls-1" cx="159.09" cy="48.36" r="12.45"/></g></g></svg>