<svg xmlns="http://www.w3.org/2000/svg" width="92.454" height="101.17" viewBox="0 0 92.454 101.17">
  <g id="グループ_2375" data-name="グループ 2375" transform="translate(-914.322 -397.732)">
    <g id="グループ_2374" data-name="グループ 2374">
      <g id="グループ_2096" data-name="グループ 2096" transform="translate(-61.178 140.597)">
        <g id="グループ_1489" data-name="グループ 1489" transform="translate(1024.501 321.135)">
          <path id="パス_1210" data-name="パス 1210" d="M1057.575,393.136c-3.045,2.412-5.5,7.5-5.5,7.5-3.56.7-3.107,4.517-3.107,4.517s-1.812,2.013-.608,3.7a2.826,2.826,0,0,0,4.247.493s4.089,2.16,5.874-.86a32.065,32.065,0,0,0,10.042-5.254c4.59-3.7,8.143-8.59,5.046-13.186C1071.736,387.321,1063.5,388.444,1057.575,393.136Z" transform="translate(-1047.95 -372.923)" fill="#fcfcfc"/>
          <path id="パス_1211" data-name="パス 1211" d="M1064.795,396.6s-5.947-1.91-4.8-6.224c.323-1.217,2.994.778,2.994.778s1.748-.829,3.15,2.061" transform="translate(-1054.797 -373.609)" fill="#fcfcfc"/>
          <path id="パス_1212" data-name="パス 1212" d="M1088.416,423.122a6.35,6.35,0,0,0,4.5,4.468c3.376.784.411-2.317.411-2.317s.354-2.536-3-4.117" transform="translate(-1071.426 -391.666)" fill="#fcfcfc"/>
          <path id="パス_1213" data-name="パス 1213" d="M1108.212,404.534a7.044,7.044,0,0,0,4.225,1.6c2.572.084,3.336-.617,3.8-1.209s-5.348-2.127-7.56-1.918" transform="translate(-1082.926 -381.12)" fill="#fcfcfc"/>
          <path id="パス_1214" data-name="パス 1214" d="M1079.319,367.755a18.525,18.525,0,0,1-3.372-3.343c-.857-1.388-.8-1.726-1.548-2.022s-5.081,1.313-8.408-1.9a15.86,15.86,0,0,1,5.9.055c2.01.368,1.969-1.988,5.462-.459,0,0,.117-1.14-.338-1.612a3.6,3.6,0,0,1,2.39,1.221,12.026,12.026,0,0,1,.176-1.71,6.037,6.037,0,0,0-2.283-3.95s1.562-.672,2.461-.1c0,0-.2-1.574.385-2.157s2.333-.156,3.069,1.435c0,0,2.017-.148,1.976,3.106s-1.02,6.848.182,8.111a9.972,9.972,0,0,0,2.015-3.811,17.691,17.691,0,0,0,.9-6.592c-.161-1.322.987-3.278,1.976-2.894s.71,2.981.71,2.981,1.378-.447.762,2.538,1.345,3.122-.355,6.925c0,0,1.121.6.216,2.2,0,0,1.9-2.386,3.681-1.707a6.464,6.464,0,0,1,2.9-1.529c1.51-.229,1.784-1.815,3.52-1.861s-1.358,2.4-3.29,3.371a9.733,9.733,0,0,0-4.177,3.268c-.88,1.381-6.225,4.648-9.9,3.166" transform="translate(-1058.748 -351.081)" fill="#fcfcfc"/>
        </g>
      </g>
      <g id="グループ_2097" data-name="グループ 2097" transform="translate(1982.275 756.038) rotate(180)">
        <g id="グループ_1489-2" data-name="グループ 1489" transform="translate(1024.501 321.135)">
          <path id="パス_1210-2" data-name="パス 1210" d="M1057.575,393.136c-3.045,2.412-5.5,7.5-5.5,7.5-3.56.7-3.107,4.517-3.107,4.517s-1.812,2.013-.608,3.7a2.826,2.826,0,0,0,4.247.493s4.089,2.16,5.874-.86a32.065,32.065,0,0,0,10.042-5.254c4.59-3.7,8.143-8.59,5.046-13.186C1071.736,387.321,1063.5,388.444,1057.575,393.136Z" transform="translate(-1047.95 -372.923)" fill="#fcfcfc"/>
          <path id="パス_1211-2" data-name="パス 1211" d="M1064.795,396.6s-5.947-1.91-4.8-6.224c.323-1.217,2.994.778,2.994.778s1.748-.829,3.15,2.061" transform="translate(-1054.797 -373.609)" fill="#fcfcfc"/>
          <path id="パス_1212-2" data-name="パス 1212" d="M1088.416,423.122a6.35,6.35,0,0,0,4.5,4.468c3.376.784.411-2.317.411-2.317s.354-2.536-3-4.117" transform="translate(-1071.426 -391.666)" fill="#fcfcfc"/>
          <path id="パス_1213-2" data-name="パス 1213" d="M1108.212,404.534a7.044,7.044,0,0,0,4.225,1.6c2.572.084,3.336-.617,3.8-1.209s-5.348-2.127-7.56-1.918" transform="translate(-1082.926 -381.12)" fill="#fcfcfc"/>
          <path id="パス_1214-2" data-name="パス 1214" d="M1079.319,367.755a18.525,18.525,0,0,1-3.372-3.343c-.857-1.388-.8-1.726-1.548-2.022s-5.081,1.313-8.408-1.9a15.86,15.86,0,0,1,5.9.055c2.01.368,1.969-1.988,5.462-.459,0,0,.117-1.14-.338-1.612a3.6,3.6,0,0,1,2.39,1.221,12.026,12.026,0,0,1,.176-1.71,6.037,6.037,0,0,0-2.283-3.95s1.562-.672,2.461-.1c0,0-.2-1.574.385-2.157s2.333-.156,3.069,1.435c0,0,2.017-.148,1.976,3.106s-1.02,6.848.182,8.111a9.972,9.972,0,0,0,2.015-3.811,17.691,17.691,0,0,0,.9-6.592c-.161-1.322.987-3.278,1.976-2.894s.71,2.981.71,2.981,1.378-.447.762,2.538,1.345,3.122-.355,6.925c0,0,1.121.6.216,2.2,0,0,1.9-2.386,3.681-1.707a6.464,6.464,0,0,1,2.9-1.529c1.51-.229,1.784-1.815,3.52-1.861s-1.358,2.4-3.29,3.371a9.733,9.733,0,0,0-4.177,3.268c-.88,1.381-6.225,4.648-9.9,3.166" transform="translate(-1058.748 -351.081)" fill="#fcfcfc"/>
        </g>
      </g>
    </g>
  </g>
</svg>
