<svg id="レイヤー_2" data-name="レイヤー 2" xmlns="http://www.w3.org/2000/svg" width="65.141" height="68.903" viewBox="0 0 65.141 68.903">
  <g id="レイヤー_1" data-name="レイヤー 1" transform="translate(0)">
    <path id="パス_4195" data-name="パス 4195" d="M31.723,9.192,27.717,2.27A32.621,32.621,0,0,0,7.64,13.857l4.006,6.922A25.221,25.221,0,0,1,31.723,9.192Z" transform="translate(-0.341 -0.1)" fill="#fff"/>
    <path id="パス_4196" data-name="パス 4196" d="M7.3,35.377A25.039,25.039,0,0,1,10.173,23.79H2.132a32.554,32.554,0,0,0,0,23.146h7.993A25.01,25.01,0,0,1,7.3,35.377Z" transform="translate(-0.006 -1.045)" fill="#fff"/>
    <path id="パス_4197" data-name="パス 4197" d="M11.646,50.2,7.64,57.1A32.6,32.6,0,0,0,27.717,68.7L31.7,61.787A25.317,25.317,0,0,1,11.646,50.2Z" transform="translate(-0.341 -2.206)" fill="#fff"/>
    <path id="パス_4198" data-name="パス 4198" d="M35.32,61.787,39.307,68.7A32.564,32.564,0,0,0,59.384,57.112l-4-6.912A25.25,25.25,0,0,1,35.32,61.787Z" transform="translate(-1.557 -2.206)" fill="#fff"/>
    <path id="パス_4199" data-name="パス 4199" d="M65.553,23.8H57.56a25.211,25.211,0,0,1,0,23.175h7.993a32.669,32.669,0,0,0,0-23.165Z" transform="translate(-2.534 -1.046)" fill="#fff"/>
    <path id="パス_4200" data-name="パス 4200" d="M55.388,20.779l4.006-6.912A32.583,32.583,0,0,0,39.316,2.27l-4,6.922A25.24,25.24,0,0,1,55.388,20.779Z" transform="translate(-1.557 -0.1)" fill="#fff"/>
    <path id="パス_4201" data-name="パス 4201" d="M34.56,31.71Z" transform="translate(-1.524 -1.393)" fill="#fff"/>
    <path id="パス_4202" data-name="パス 4202" d="M37.35,54.667c-.22.43-.3.841-.163.908s.421-.22.65-.66.3-.851.163-.956S37.579,54.227,37.35,54.667Z" transform="translate(-1.636 -2.37)" fill="#fff"/>
    <path id="パス_4203" data-name="パス 4203" d="M34.26,29.1v.669c0-.048.421.086.421.086q.813-2.648,1.664-5.316c.392-1.2.784-2.409,1.186-3.6a2.094,2.094,0,0,1-.65.373,2.161,2.161,0,0,1-2.6-.956Z" transform="translate(-1.511 -0.894)" fill="#fff"/>
    <path id="パス_4204" data-name="パス 4204" d="M50.6,34.426a13.9,13.9,0,0,0-3.681-.287h-.363a1.816,1.816,0,0,0-.258.612,1.846,1.846,0,0,0,0,.4v.115a1.176,1.176,0,0,0,0,.191,12.648,12.648,0,0,1,2.715.794c.239.1.468.2.688.306a1.683,1.683,0,0,1,.956-2.161Z" transform="translate(-2.039 -1.499)" fill="#fff"/>
    <path id="パス_4205" data-name="パス 4205" d="M18.432,35.966v.076a1.73,1.73,0,0,1-.115.545c.22-.105.449-.21.688-.306a12.65,12.65,0,0,1,2.715-.794,1.175,1.175,0,0,0,0-.191v-.115a1.912,1.912,0,0,0-.3-1.013h-.363a13.491,13.491,0,0,0-3.681.3A1.654,1.654,0,0,1,18.432,35.966Z" transform="translate(-0.769 -1.5)" fill="#fff"/>
    <path id="パス_4206" data-name="パス 4206" d="M22.129,35.543h0a1.119,1.119,0,0,1-.22.468h0A8.681,8.681,0,0,1,24.481,34.1h0a1.319,1.319,0,0,0,.7-1.166v.01A1.31,1.31,0,0,0,23.831,31.7h-.105a10.307,10.307,0,0,0-3.576,1.291h.277a1.549,1.549,0,0,1,.851.316,2.189,2.189,0,0,1,.9,1.769v.134A3.126,3.126,0,0,1,22.129,35.543Z" transform="translate(-0.891 -1.393)" fill="#fff"/>
    <path id="パス_4207" data-name="パス 4207" d="M46.693,33.306A1.625,1.625,0,0,1,47.419,33a1.415,1.415,0,0,1,.4,0l-.21-.124A10.335,10.335,0,0,0,44.235,31.7h-.1a1.319,1.319,0,0,0-1.128.631,1.4,1.4,0,0,0-.182.688,1.319,1.319,0,0,0,.7,1.166h0A8.681,8.681,0,0,1,46.1,36.1h0a1.119,1.119,0,0,1-.22-.468h0a3.126,3.126,0,0,1,0-.335v-.134a2.514,2.514,0,0,1,0-.468A2.218,2.218,0,0,1,46.693,33.306Z" transform="translate(-1.887 -1.393)" fill="#fff"/>
    <path id="パス_4208" data-name="パス 4208" d="M47.46,24.6a2.046,2.046,0,0,1,.239-.621,1.979,1.979,0,0,1,.555-.641h0a19.351,19.351,0,0,0-4.78,1.692h0a1.539,1.539,0,0,0-.794,1.348,1.52,1.52,0,0,0,1.511,1.52h0a12.668,12.668,0,0,1,1.664-.105,12.343,12.343,0,0,1,3.193.411.124.124,0,0,0-.067-.057,2.161,2.161,0,0,1-1.233-1.176,4.637,4.637,0,0,1-.277-2.161A1.974,1.974,0,0,1,47.46,24.6Z" transform="translate(-1.881 -1.026)" fill="#fff"/>
    <path id="パス_4209" data-name="パス 4209" d="M47.507,30.557a4.053,4.053,0,0,1,.239-.774,1.989,1.989,0,0,1,1.138-1.071,12.151,12.151,0,0,0-3.059-.392,12.554,12.554,0,0,0-1.472.1A1.4,1.4,0,0,0,43.1,29.831a1.444,1.444,0,0,0,.2.755,1.367,1.367,0,0,0,1.023.66h0a10.679,10.679,0,0,1,3.461,1.2l.268.153h0a2,2,0,0,1-.6-1.721Q47.479,30.7,47.507,30.557Z" transform="translate(-1.899 -1.244)" fill="#fff"/>
    <path id="パス_4210" data-name="パス 4210" d="M44.975,18.215l.048-.115q-1.912,2.075-3.595,4.274a1.52,1.52,0,0,0-.258.832,1.463,1.463,0,0,0,1.166,1.425,1.482,1.482,0,0,0,.3,0h0a1.453,1.453,0,0,0,.6-.134,19.6,19.6,0,0,1,4.876-1.711h-.182a2.314,2.314,0,0,1-.449-.057,2.084,2.084,0,0,1-.956-.44,5.019,5.019,0,0,1-1.692-2.543,2.1,2.1,0,0,1,0-1.061,2.275,2.275,0,0,1,.143-.468Z" transform="translate(-1.814 -0.795)" fill="#fff"/>
    <path id="パス_4211" data-name="パス 4211" d="M36.642,29.909a19.838,19.838,0,0,1,5.545-4.723h-.153a1.759,1.759,0,0,1-1.415-1.73v-.1l-.669.889a77.09,77.09,0,0,0-4.35,6.415,1.033,1.033,0,0,1,.392.1C36.2,30.464,36.422,30.186,36.642,29.909Z" transform="translate(-1.57 -1.026)" fill="#fff"/>
    <path id="パス_4212" data-name="パス 4212" d="M39.782,23.026a2.094,2.094,0,0,1-1.912-1.367,1.911,1.911,0,0,1-.076-.249c-.363,1.09-.717,2.18-1.071,3.27-.583,1.807-1.147,3.623-1.692,5.43a.956.956,0,0,1,.229.5c1.377-2.285,2.868-4.5,4.484-6.692.258-.354.535-.707.8-1.061A2.046,2.046,0,0,1,39.782,23.026Z" transform="translate(-1.544 -0.941)" fill="#fff"/>
    <path id="パス_4213" data-name="パス 4213" d="M43.188,18.023l-.4-.067A4.972,4.972,0,0,1,40.674,17a2.18,2.18,0,0,1-.755-1.75q-.851,2.409-1.664,4.828h0a1.8,1.8,0,0,0-.105.593,1.654,1.654,0,0,0,.115.612,1.769,1.769,0,0,0,2.964.583h0c1.128-1.434,2.314-2.868,3.537-4.188h-.057A2.1,2.1,0,0,1,43.188,18.023Z" transform="translate(-1.682 -0.67)" fill="#fff"/>
    <path id="パス_4214" data-name="パス 4214" d="M38.037,15.591H37.7a5.115,5.115,0,0,1-2.371-.669A2.142,2.142,0,0,1,34.27,13.21v5.736a1.807,1.807,0,0,0,.277.956,1.855,1.855,0,0,0,3.289-.2h0q.8-2.381,1.635-4.78h0A2.18,2.18,0,0,1,38.037,15.591Z" transform="translate(-1.511 -0.58)" fill="#fff"/>
    <path id="パス_4215" data-name="パス 4215" d="M32.631,14.922a5.191,5.191,0,0,1-2.381.66h-.316a2.228,2.228,0,0,1-1.415-.66h0q.832,2.381,1.635,4.78h0a1.836,1.836,0,0,0,1.692,1.109,1.855,1.855,0,0,0,1.587-.889,1.912,1.912,0,0,0,.268-.956h0V13.23A2.142,2.142,0,0,1,32.631,14.922Z" transform="translate(-1.258 -0.581)" fill="#fff"/>
    <path id="パス_4216" data-name="パス 4216" d="M27.969,15.728a2.275,2.275,0,0,1-.765,1.224,5.067,5.067,0,0,1-2.122.956l-.373.067a2.1,2.1,0,0,1-1.491-.316.105.105,0,0,0-.067,0c1.224,1.358,2.409,2.753,3.537,4.188h0a1.778,1.778,0,0,0,3.012-.564,1.912,1.912,0,0,0,.105-.612,1.788,1.788,0,0,0-.086-.564c-.545-1.625-1.109-3.241-1.673-4.857A2.61,2.61,0,0,1,27.969,15.728Z" transform="translate(-1.023 -0.67)" fill="#fff"/>
    <path id="パス_4217" data-name="パス 4217" d="M19.89,32.6h.057A10.517,10.517,0,0,1,23.6,31.274h0a1.386,1.386,0,0,0,1.233-1.444,1.434,1.434,0,0,0-1.271-1.424,14.471,14.471,0,0,0-1.454-.086,12.085,12.085,0,0,0-2.122.191,7.774,7.774,0,0,0-.956.2,2.017,2.017,0,0,1,1.138,1.071,4.054,4.054,0,0,1,.239.774,1,1,0,0,0,.057.315,2.027,2.027,0,0,1-.507,1.683A.1.1,0,0,0,19.89,32.6Z" transform="translate(-0.841 -1.244)" fill="#fff"/>
    <path id="パス_4218" data-name="パス 4218" d="M19,28.149a.115.115,0,0,0-.076.057,9.274,9.274,0,0,1,1.033-.22,11.674,11.674,0,0,1,2.17-.191,12.074,12.074,0,0,1,1.558.1h.1a1.511,1.511,0,0,0,1.291-.736,1.463,1.463,0,0,0,.22-.784,1.539,1.539,0,0,0-.794-1.348h0a19.485,19.485,0,0,0-4.78-1.692h0a2.142,2.142,0,0,1,.794,1.262,1.98,1.98,0,0,1,0,.21,4.58,4.58,0,0,1-.277,2.151A2.161,2.161,0,0,1,19,28.149Z" transform="translate(-0.837 -1.025)" fill="#fff"/>
    <path id="パス_4219" data-name="パス 4219" d="M21.321,22.316a2.1,2.1,0,0,1-.908.43,2.515,2.515,0,0,1-.421.038H19.81a19.6,19.6,0,0,1,4.876,1.73,1.453,1.453,0,0,0,2-1.31v-.057a1.5,1.5,0,0,0-.258-.774q-1.7-2.2-3.566-4.274l.048.105a2.868,2.868,0,0,1,.163.478,2.1,2.1,0,0,1,0,1.061,5.038,5.038,0,0,1-1.75,2.572Z" transform="translate(-0.876 -0.795)" fill="#fff"/>
    <path id="パス_4220" data-name="パス 4220" d="M32.25,30.664H32.3a83.941,83.941,0,0,0-5.019-7.314v.1A1.759,1.759,0,0,1,25.71,25.2a19.838,19.838,0,0,1,5.545,4.723c.22.277.44.555.65.841a.832.832,0,0,1,.344-.1Z" transform="translate(-1.135 -1.026)" fill="#fff"/>
    <path id="パス_4221" data-name="パス 4221" d="M32.988,30.118c-.105-.363-.22-.727-.325-1.09Q31.487,25.2,30.225,21.38a1.912,1.912,0,0,1-.076.249A2.094,2.094,0,0,1,28.237,23a2.046,2.046,0,0,1-.727-.134l.134.172a83.007,83.007,0,0,1,5.115,7.448A1.185,1.185,0,0,1,32.988,30.118Z" transform="translate(-1.214 -0.939)" fill="#fff"/>
    <path id="パス_4222" data-name="パス 4222" d="M33.791,20.39a2.17,2.17,0,0,1-3.251.545q1.329,3.977,2.553,7.964c.1.315.191.641.3.956l.124-.067h0c.249-.067.277,0,.277,0v-9.4Z" transform="translate(-1.347 -0.896)" fill="#fff"/>
    <path id="パス_4223" data-name="パス 4223" d="M42.8,34.361a8.4,8.4,0,0,0-3.184-.631,8.929,8.929,0,0,0-1.233.1.956.956,0,0,1,.268.66,1.206,1.206,0,0,1,0,.268h0a3.824,3.824,0,0,1,1.778.316,4.484,4.484,0,0,1,2.046,1.788,5.737,5.737,0,0,1-.143-1.042,1.836,1.836,0,0,1,.3-1.31Z" transform="translate(-1.692 -1.482)" fill="#fff"/>
    <path id="パス_4224" data-name="パス 4224" d="M38.271,33.426a8.05,8.05,0,0,1,1.272-.1,8.71,8.71,0,0,1,2.983.526,1.711,1.711,0,0,1-.229-.841,1.683,1.683,0,0,1,.229-.841,1.606,1.606,0,0,1,.6-.583h-.755a10.354,10.354,0,0,0-2.036.2,10.1,10.1,0,0,0-2.476.841.956.956,0,0,1,.239.631.87.87,0,0,1,0,.22Z" transform="translate(-1.669 -1.388)" fill="#fff"/>
    <path id="パス_4225" data-name="パス 4225" d="M37.549,32.249a10.517,10.517,0,0,1,2.687-.956,10.106,10.106,0,0,1,2.094-.21h.755a1.711,1.711,0,0,1-.335-.411,1.769,1.769,0,0,1-.239-.889,1.8,1.8,0,0,1,.516-1.252c-.363.076-.717.172-1.071.277a12.228,12.228,0,0,0-5.077,3.04,1.157,1.157,0,0,1,.2.229A.956.956,0,0,1,37.549,32.249Z" transform="translate(-1.626 -1.254)" fill="#fff"/>
    <path id="パス_4226" data-name="パス 4226" d="M36.576,31.614a12.5,12.5,0,0,1,5.268-3.174,9.5,9.5,0,0,1,1.272-.315,1.979,1.979,0,0,1-.516-.373,1.817,1.817,0,0,1-.526-1.281,1.769,1.769,0,0,1,.22-.86,19.217,19.217,0,0,0-5.383,4.608c-.22.268-.43.535-.631.813a.956.956,0,0,1,.277.583Z" transform="translate(-1.599 -1.125)" fill="#fff"/>
    <path id="パス_4227" data-name="パス 4227" d="M31.329,31.614a.956.956,0,0,1,.277-.583c-.2-.277-.411-.545-.631-.813a19.217,19.217,0,0,0-5.383-4.608,1.769,1.769,0,0,1,.22.86,1.837,1.837,0,0,1-1.042,1.673,10.88,10.88,0,0,1,1.252.306,12.582,12.582,0,0,1,5.287,3.184Z" transform="translate(-1.094 -1.125)" fill="#fff"/>
    <path id="パス_4228" data-name="パス 4228" d="M30.835,32.137a1.157,1.157,0,0,1,.2-.229,12.314,12.314,0,0,0-5.086-3.05c-.354-.105-.707-.191-1.071-.268a1.759,1.759,0,0,1,.535,1.252,2.177,2.177,0,0,1,0,.249,1.75,1.75,0,0,1-.555,1.052h.755a10.105,10.105,0,0,1,2.094.21,10.517,10.517,0,0,1,2.687.956A.956.956,0,0,1,30.835,32.137Z" transform="translate(-1.098 -1.256)" fill="#fff"/>
    <path id="パス_4229" data-name="パス 4229" d="M28.434,33.73a8.366,8.366,0,0,0-3.184.631l.124.105a1.558,1.558,0,0,1,.306.956,5.87,5.87,0,0,1-.153,1.434,4.484,4.484,0,0,1,2.132-1.75,3.824,3.824,0,0,1,1.778-.316h0a1.367,1.367,0,0,1,0-.21v-.057a.956.956,0,0,1,.268-.66A8.929,8.929,0,0,0,28.434,33.73Z" transform="translate(-1.115 -1.482)" fill="#fff"/>
    <path id="パス_4230" data-name="パス 4230" d="M27.622,31.761a10.287,10.287,0,0,0-2.036-.2H24.83a1.625,1.625,0,0,1,.832,1.377v.086a1.625,1.625,0,0,1-.239.841,8.805,8.805,0,0,1,2.992-.526,8.049,8.049,0,0,1,1.272.1h.2a.869.869,0,0,1,0-.22.956.956,0,0,1,.239-.631,10.1,10.1,0,0,0-2.5-.822Z" transform="translate(-1.096 -1.387)" fill="#fff"/>
    <path id="パス_4231" data-name="パス 4231" d="M22.169,37.5v-.1a1.2,1.2,0,0,0-.5-.707.488.488,0,0,1,0-.679.717.717,0,0,0,.067-.115,12.611,12.611,0,0,0-2.486.746l-.153.067a1.635,1.635,0,0,1,1.329,1.606h0A12.428,12.428,0,0,1,22.169,37.5Z" transform="translate(-0.845 -1.577)" fill="#fff"/>
    <path id="パス_4232" data-name="パス 4232" d="M22.44,39.19a12.192,12.192,0,0,0-.115-1.3,12.324,12.324,0,0,0-1.2.545h.086a1.788,1.788,0,0,1,1.224.755Z" transform="translate(-0.934 -1.665)" fill="#fff"/>
    <path id="パス_4233" data-name="パス 4233" d="M24.653,38.165l.086-.182.1-.191a7.591,7.591,0,0,0,.392-2.275,1.2,1.2,0,0,0-.229-.8.382.382,0,0,0-.287-.134,8.366,8.366,0,0,0-2.6,1.912,1.453,1.453,0,0,1,.468.774,2.714,2.714,0,0,0,.1.43,27.219,27.219,0,0,1-.182,6.444,47,47,0,0,1,2.161-5.975Z" transform="translate(-0.977 -1.519)" fill="#fff"/>
    <path id="パス_4234" data-name="パス 4234" d="M13.751,43.589a4.35,4.35,0,0,0,1.654,2.017l.344.191a9.39,9.39,0,0,1,1.319.8,7.782,7.782,0,0,1,1.415,1.358,8.413,8.413,0,0,1,.679,1.09c.182.335.344.641.478.641s.478-.287.841-.956a20.278,20.278,0,0,0,1-2.7A53.022,53.022,0,0,0,22.04,40.3a12.3,12.3,0,0,0-3.671,5.277.153.153,0,0,1-.143.105h-.057a.163.163,0,0,1-.1-.2,12.725,12.725,0,0,1,3.977-5.593h0A1.453,1.453,0,0,0,20.8,38.6h-.21a1.472,1.472,0,0,0-.641.153,12.639,12.639,0,0,0-4.015,3.939.233.233,0,0,1-.21.067.153.153,0,0,1-.048-.22,13,13,0,0,1,4.063-4.006,1.568,1.568,0,0,0,0-.21h0A1.329,1.329,0,0,0,17.91,37.1a12.591,12.591,0,0,0-2.926,2.113.162.162,0,0,1-.115,0,.124.124,0,0,1-.105,0,.143.143,0,0,1,0-.22A13.021,13.021,0,0,1,17.557,36.9a1.405,1.405,0,0,0,.344-.832V36a1.358,1.358,0,0,0-1.348-1.348.956.956,0,0,0-.239,0A12.152,12.152,0,0,0,12.4,36.5a.449.449,0,0,0-.143.287.507.507,0,0,0,.115.354l.239.2a3.231,3.231,0,0,1,.9.956,3.05,3.05,0,0,1,.354,1.08,3.356,3.356,0,0,1-.172,1.4,4.6,4.6,0,0,0,.057,2.811Z" transform="translate(-0.544 -1.522)" fill="#fff"/>
    <path id="パス_4235" data-name="パス 4235" d="M49.019,36.713l-.153-.067A12.429,12.429,0,0,0,46.38,35.9a.717.717,0,0,0,.067.115.488.488,0,0,1,0,.679,1.2,1.2,0,0,0-.5.707v.1a12.43,12.43,0,0,1,1.8.87h0a1.635,1.635,0,0,1,1.272-1.654Z" transform="translate(-2.024 -1.577)" fill="#fff"/>
    <path id="パス_4236" data-name="パス 4236" d="M47.01,38.435c-.382-.2-.784-.382-1.186-.545a10.02,10.02,0,0,0-.124,1.3A1.807,1.807,0,0,1,47.01,38.435Z" transform="translate(-2.013 -1.665)" fill="#fff"/>
    <path id="パス_4237" data-name="パス 4237" d="M45.477,37.267a1.425,1.425,0,0,1,.468-.774,8.442,8.442,0,0,0-2.591-1.912.392.392,0,0,0-.306.143,1.53,1.53,0,0,0-.22,1.071,9.341,9.341,0,0,0,.392,2l.1.191c.268.535.526,1.157.774,1.788.631,1.616,1.176,3.375,1.472,4.369a27.219,27.219,0,0,1-.182-6.444C45.41,37.544,45.439,37.4,45.477,37.267Z" transform="translate(-1.886 -1.519)" fill="#fff"/>
    <path id="パス_4238" data-name="パス 4238" d="M55.137,37.366l.239-.2a.507.507,0,0,0,.115-.354.449.449,0,0,0-.143-.287,11.119,11.119,0,0,0-2.457-1.348,12.781,12.781,0,0,0-1.453-.507.957.957,0,0,0-.239,0,1.348,1.348,0,0,0-1,2.228,13.021,13.021,0,0,1,2.773,2.036.153.153,0,0,1,0,.22.124.124,0,0,1-.105,0,.182.182,0,0,1-.115,0,12.591,12.591,0,0,0-2.935-2.113,1.329,1.329,0,0,0-1.826,1.224h0a1.571,1.571,0,0,0,0,.21,13,13,0,0,1,4.063,4.006.153.153,0,0,1,0,.22.233.233,0,0,1-.21-.067,12.639,12.639,0,0,0-4.015-3.939,1.459,1.459,0,0,0-1.845.468,1.434,1.434,0,0,0-.258.688h0a12.725,12.725,0,0,1,3.958,5.65.163.163,0,0,1-.1.2h-.057a.153.153,0,0,1-.143-.105A12.3,12.3,0,0,0,45.71,40.32a52.408,52.408,0,0,0,.555,5.736,20.279,20.279,0,0,0,1,2.7c.363.66.574.956.841.956s.3-.306.478-.641a8.412,8.412,0,0,1,.679-1.09,8.108,8.108,0,0,1,1.405-1.358,9.408,9.408,0,0,1,1.329-.8l.344-.191A4.35,4.35,0,0,0,54,43.59a4.6,4.6,0,0,0,.057-2.811,2.868,2.868,0,0,1,.182-2.476,3.231,3.231,0,0,1,.9-.937Z" transform="translate(-2.014 -1.523)" fill="#fff"/>
    <path id="パス_4239" data-name="パス 4239" d="M30.137,54c-.134.067-.057.478.163.956s.516.736.65.66.067-.478-.163-.956S30.271,53.913,30.137,54Z" transform="translate(-1.327 -2.372)" fill="#fff"/>
    <path id="パス_4240" data-name="パス 4240" d="M34.769,42.948h0a1.128,1.128,0,0,1-.459-.8h0a.507.507,0,0,0-.287-.526h0a1.405,1.405,0,0,1-.8-1.119,1.166,1.166,0,0,0-.621-.851,4.666,4.666,0,0,0,.736,3.031h0c.956,1.673.956,4.513.956,5.574a6.549,6.549,0,0,0,1.616-3.384c.048-.411-.2-.5-.229-.507h0a.956.956,0,0,1-.488-.755h0a.6.6,0,0,0-.421-.66Z" transform="translate(-1.437 -1.742)" fill="#fff"/>
    <path id="パス_4241" data-name="パス 4241" d="M33.761,32.4h0a.526.526,0,0,0-.249.306.392.392,0,0,0,.1.3.832.832,0,0,1,.316.574.8.8,0,0,1-.344.612h0a.6.6,0,0,0-.3.794.784.784,0,0,1-.306,1.061.88.88,0,0,0-.3.851,1.291,1.291,0,0,1-.105.956c0,.076-.258.688.105,1.042A1.472,1.472,0,0,1,33.494,40a1.08,1.08,0,0,0,.468.774,12.544,12.544,0,0,1,.468-4.972,9.025,9.025,0,0,0-.44-5.172,1.052,1.052,0,0,0-.057.727A.765.765,0,0,1,33.761,32.4Z" transform="translate(-1.433 -1.346)" fill="#fff"/>
    <path id="パス_4242" data-name="パス 4242" d="M34.61,31.15Z" transform="translate(-1.526 -1.369)" fill="#fff"/>
    <path id="パス_4243" data-name="パス 4243" d="M35.889,57.31a1.692,1.692,0,0,1-.87.727,3.193,3.193,0,0,1-2.122-.067,1.654,1.654,0,0,1-.727-.669,1.912,1.912,0,0,0,.459.784,1.759,1.759,0,0,0,1.377.478h.545a1.577,1.577,0,0,0,.88-.459,2.046,2.046,0,0,0,.459-.784h0Z" transform="translate(-1.419 -2.518)" fill="#fff"/>
    <path id="パス_4244" data-name="パス 4244" d="M39.813,46.562a1.625,1.625,0,0,1,0,.21A2.3,2.3,0,0,1,38.13,49a5.507,5.507,0,0,1-1.319,1.033h0a.143.143,0,0,1-.2-.067c0-.344.335-.239.956-.841h0a1.912,1.912,0,0,0,.535-.535c.354-.076,1.119-.411,1.453-1.769,1.08-4.56-.1-8.193-3.126-10.937.115-.707,1.3-1.2,1.3-1.2a.66.66,0,0,0-.449-.956h0a.851.851,0,0,0-.813-1.2.641.641,0,0,0-.574-.411.956.956,0,0,0,0-.315h0a.707.707,0,0,0-1.033-.4,1.224,1.224,0,0,0-.612-.8h0l-.163-.086a5.343,5.343,0,0,1,.249.6v.019c1.482,4.044-1.3,6.358.076,10.6,0,.66.956.612.87,1.463a.621.621,0,0,0,.287.478c1.08.421.115,3.174-1.817,4.962,0-.392.287-3.891-.88-6.186a4.962,4.962,0,0,1-.774-3.528h0a1.463,1.463,0,0,1,0-1.166c.373-.87-.373-1.128.478-1.912.669-.564-.555-1.147.583-1.855.612-.478-.373-.784-.191-1.291a.851.851,0,0,1,.392-.507c.459-.373-.239-.86.134-1.6-.593.076-.774.9-.765.88-.784-.363-.88.6-.88.6-.593-.182-.707.574-.707.574-.908,0-.832,1.013-.832,1.013a.841.841,0,0,0-.468.956c.8.048,1.482,1.3,1.482,1.3-4.36,2.926-4.618,11.76-1.769,12.677a1.912,1.912,0,0,0,.535.535h0c.6.6.956.5.956.841-.21.249-.688-.21-1.52-.956a2.3,2.3,0,0,1-1.673-2.438,4.35,4.35,0,0,0,.258,2.046h0l.048.124v.086a13.786,13.786,0,0,0,1.912,3.6h0a2.381,2.381,0,0,1,1.186,2.448c.65.641.822,1.577,2.094,1.711a4.494,4.494,0,0,0,1.2,0c.956-.2,1.224-.956,1.845-1.692a2.381,2.381,0,0,1,1.157-2.457,12.926,12.926,0,0,0,1.807-3.3A4.933,4.933,0,0,0,39.813,46.562Z" transform="translate(-1.222 -1.34)" fill="#fff"/>
    <path id="パス_4245" data-name="パス 4245" d="M37.954,2,33.862,0,29.78,2l4.111,7.123Z" transform="translate(-1.314)" fill="#fff"/>
    <path id="パス_4246" data-name="パス 4246" d="M29.86,69.652l4.082,2,4.092-2L33.971,62.52Z" transform="translate(-1.317 -2.747)" fill="#fff"/>
    <path id="パス_4247" data-name="パス 4247" d="M6.662,15.35,2.885,17.884,2.56,22.425l8.232.01Z" transform="translate(-0.118 -0.674)" fill="#fff"/>
    <path id="パス_4248" data-name="パス 4248" d="M61.142,56.232,64.928,53.7l.316-4.541-8.2-.057Z" transform="translate(-2.512 -2.157)" fill="#fff"/>
    <path id="パス_4249" data-name="パス 4249" d="M2.42,49.17l.3,4.541,3.767,2.553,4.14-7.1Z" transform="translate(-0.112 -2.16)" fill="#fff"/>
    <path id="パス_4250" data-name="パス 4250" d="M65.282,22.524l-.3-4.541L61.218,15.43,57.05,22.5Z" transform="translate(-2.512 -0.678)" fill="#fff"/>
    <path id="パス_4251" data-name="パス 4251" d="M40,50.363a6.033,6.033,0,0,0,2.161.851,3.174,3.174,0,0,0,2.639-.459,2.39,2.39,0,0,0,.937-2.151.793.793,0,0,0-.115-.153,1.721,1.721,0,0,1-.277-.363,1.568,1.568,0,0,1-.172-.545.359.359,0,0,0-.057-.249h0a.545.545,0,0,1-.507.153.535.535,0,0,1-.411-.363v-.067h0a.765.765,0,0,1-.5.153h-.124a.612.612,0,0,1-.325-.22L43.069,47l-.153.124a3.452,3.452,0,0,1-.956.593,3.824,3.824,0,0,1-1.157.249h-.076a1.216,1.216,0,0,1-.057.316h0a3.824,3.824,0,0,0,3.231-.468.163.163,0,1,1,.21.249,3.375,3.375,0,0,1-2.189.717,4.551,4.551,0,0,1-1.348-.191h0a.543.543,0,0,1-.086.344c.344.115,2.725.87,4.293-.182a.169.169,0,1,1,.239.239,4.044,4.044,0,0,1-2.275.612,7.773,7.773,0,0,1-2.295-.382,1.274,1.274,0,0,1-.124.382c.277.115,2.773,1.176,4.226.344a.163.163,0,0,1,.153.287,3.117,3.117,0,0,1-1.539.354,7.878,7.878,0,0,1-2.945-.717c-.067.163-.124.315-.2.468Z" transform="translate(-1.763 -2.063)" fill="#fff"/>
    <path id="パス_4252" data-name="パス 4252" d="M23.121,50.735a3.174,3.174,0,0,0,2.639.459,5.9,5.9,0,0,0,2.151-.851h0a4.065,4.065,0,0,1-.163-.478,7.936,7.936,0,0,1-2.945.688,3.117,3.117,0,0,1-1.539-.354.163.163,0,0,1-.067-.22.172.172,0,0,1,.22-.067c1.453.832,3.949-.229,4.226-.344-.048-.134-.086-.258-.124-.382a7.773,7.773,0,0,1-2.295.382,4.044,4.044,0,0,1-2.256-.6.172.172,0,1,1,.191-.287c1.568,1.052,3.949.3,4.293.182a3.012,3.012,0,0,1-.086-.344h0a4.628,4.628,0,0,1-1.348.191,3.356,3.356,0,0,1-2.237-.755.163.163,0,0,1,.21-.249,3.824,3.824,0,0,0,3.231.468h0a.818.818,0,0,0-.057-.315h-.076a3.824,3.824,0,0,1-1.157-.249,3.538,3.538,0,0,1-.956-.593l-.1-.086-.057.057a.6.6,0,0,1-.335.22h-.115a.765.765,0,0,1-.5-.153h0v.067a.555.555,0,0,1-.956.21h0a1.367,1.367,0,0,0-.057.249,1.8,1.8,0,0,1-.172.545,1.721,1.721,0,0,1-.277.363.794.794,0,0,0-.115.153A2.342,2.342,0,0,0,23.121,50.735Z" transform="translate(-0.984 -2.062)" fill="#fff"/>
  </g>
</svg>
