<svg xmlns="http://www.w3.org/2000/svg" width="450.928" height="365.372" viewBox="0 0 450.928 365.372">
  <g id="レイヤー_2" data-name="レイヤー 2" transform="translate(-0.01 0.004)">
    <g id="レイヤー_1" data-name="レイヤー 1" transform="translate(0.01 -0.004)">
      <path id="パス_4896" data-name="パス 4896" d="M284.283,591.44l-4.244,8.447-4.315-8.447h-2.4v15.272h2.007V594.784l3.919,7.6h1.575l3.936-7.606v11.933h2.007V591.44Z" transform="translate(-111.539 -241.345)" fill="#fff"/>
      <path id="パス_4897" data-name="パス 4897" d="M324.648,591.44v11.608c0,1.723-.965,1.865-1.871,1.865h-2.865c-.906,0-1.865-.142-1.865-1.865V591.44H316v11.608c0,3.3,2.723,3.664,3.895,3.664h2.847c1.184,0,3.895-.361,3.895-3.664V591.44Z" transform="translate(-128.955 -241.345)" fill="#fff"/>
      <path id="パス_4898" data-name="パス 4898" d="M358.83,598.28h-.065c-.5-.077-.994-.148-1.48-.243a6.271,6.271,0,0,1-1.29-.337h0a1.545,1.545,0,0,1-1.184-1.551v-1.184c0-1.379,1.089-1.669,2-1.669H362.2V591.52h-5.233c-2.735,0-4.185,1.148-4.185,3.327v1.32c0,2.818,2.273,3.386,4.4,3.7l.7.095c.284.035.592.071.846.118a7.776,7.776,0,0,1,1.3.3c.8.278,1.184.687,1.184,1.338v1.527c0,1.231-.722,1.734-2.486,1.734h-5.481v1.776h5.5c2.812,0,4.493-1.261,4.493-3.374V601.63C363.222,598.907,360.558,598.529,358.83,598.28Z" transform="translate(-143.964 -241.378)" fill="#fff"/>
      <path id="パス_4899" data-name="パス 4899" d="M399.332,593.216V591.44H389.24v15.272h10.092v-1.776h-8.121v-5.245h6.9v-1.717h-6.9v-4.759Z" transform="translate(-158.842 -241.345)" fill="#fff"/>
      <path id="パス_4900" data-name="パス 4900" d="M432.814,591.44v11.608c0,1.723-.959,1.865-1.865,1.865h-2.865c-.906,0-1.871-.142-1.871-1.865V591.44H424.19v11.608c0,3.3,2.723,3.664,3.895,3.664h2.847c1.184,0,3.889-.361,3.889-3.664V591.44Z" transform="translate(-173.104 -241.345)" fill="#fff"/>
      <path id="パス_4901" data-name="パス 4901" d="M473.113,591.44l-4.238,8.447-4.256-8.323-.065-.124h-2.4v15.272h2.013V594.784l3.913,7.6h1.575l3.936-7.606v11.933H475.6V591.44Z" transform="translate(-188.595 -241.345)" fill="#fff"/>
      <path id="パス_4902" data-name="パス 4902" d="M343.383,529.846a3.892,3.892,0,0,0-.592.189,20.559,20.559,0,0,1-7.429,1.338A26.731,26.731,0,0,1,328,530.237a47.347,47.347,0,0,1-8.346-3.4L312,522.915a15.45,15.45,0,0,0,4.232-4.345,14.852,14.852,0,0,0,2.4-8.2,15.764,15.764,0,0,0-1.065-5.949,12.6,12.6,0,0,0-3.2-4.587,14.119,14.119,0,0,0-4.925-2.93,18.837,18.837,0,0,0-6.209-.977,17.61,17.61,0,0,0-6.831,1.255,13.9,13.9,0,0,0-5.179,3.776,15.11,15.11,0,0,0-2.711,4.546,14.673,14.673,0,0,0-.906,5.174,16.574,16.574,0,0,0,.894,5.5,14.608,14.608,0,0,0,2.687,4.635,13.424,13.424,0,0,0,5.1,3.747,17.757,17.757,0,0,0,6.837,1.243,16.983,16.983,0,0,0,5.984-.988l5.967,3.5a44.117,44.117,0,0,0,8.287,3.966,24.727,24.727,0,0,0,7.849,1.219,26.475,26.475,0,0,0,6.073-.716,30.268,30.268,0,0,0,6.014-2.143c.3-.148.456-.308.456-.456a.308.308,0,0,0-.361-.349ZM313.289,511.4a21.421,21.421,0,0,1-.811,6.286,9.507,9.507,0,0,1-2.427,4.144,7.229,7.229,0,0,1-2.48,1.545,8.8,8.8,0,0,1-3.084.515,10.731,10.731,0,0,1-4.451-.917,10.947,10.947,0,0,1-3.664-2.741,13.07,13.07,0,0,1-2.634-4.576,18.48,18.48,0,0,1-.876-5.866,18.729,18.729,0,0,1,.716-5.44,10.064,10.064,0,0,1,2.143-3.9,8,8,0,0,1,2.889-2.024,10.258,10.258,0,0,1,7.742.16,10.655,10.655,0,0,1,3.433,2.516,12.515,12.515,0,0,1,2.628,4.475,18.114,18.114,0,0,1,.876,5.825Z" transform="translate(-117.366 -202.369)" fill="#fff"/>
      <path id="パス_4903" data-name="パス 4903" d="M158.576,498.09H132.46v5.582h.912v-.509a2.634,2.634,0,0,1,.846-1.7,5.255,5.255,0,0,1,3.492-1.018h5.659v24.169a2.012,2.012,0,0,1-1.373,1.35,4.367,4.367,0,0,1-.87.178,6.266,6.266,0,0,1-.687.041h0v.71h10.655v-.71h-.373a4.215,4.215,0,0,1-1.432-.308,2.13,2.13,0,0,1-.669-.444,1.658,1.658,0,0,1-.5-1.042V500.452h5.262a5.194,5.194,0,0,1,3.475,1,2.634,2.634,0,0,1,.864,1.687v.539h.876V498.09Z" transform="translate(-54.059 -203.252)" fill="#fff"/>
      <path id="パス_4904" data-name="パス 4904" d="M386.407,498.216v.7h0a6.044,6.044,0,0,1,2.368.527,2.865,2.865,0,0,1,.7.491,1.918,1.918,0,0,1,.438.651h0a2.084,2.084,0,0,1,.142.781h0V516.5L390,517.548a9.52,9.52,0,0,1-.391,2.255.794.794,0,0,1-.03.112c-.059.2-.13.385-.2.592a8.536,8.536,0,0,1-1.7,2.753,7.4,7.4,0,0,1-1.119,1h-.041a6.093,6.093,0,0,1-.592.373,7.2,7.2,0,0,1-1.361.592,6.737,6.737,0,0,1-4.12.006,6.327,6.327,0,0,1-.633-.243,5.927,5.927,0,0,1-.728-.361,6.509,6.509,0,0,1-.592-.361h-.041a7.557,7.557,0,0,1-1.065-.965,8.735,8.735,0,0,1-1.947-3.333,9.179,9.179,0,0,1-.426-2.279c0-.13,0-16.728,0-16.894a1.865,1.865,0,0,1,1.421-1.687,4.827,4.827,0,0,1,1.048-.136h.592v-.758H366.34v.758h1.107a3.226,3.226,0,0,1,2.178.8,1.622,1.622,0,0,1,.45.983v14.715h0v2.09a10.116,10.116,0,0,0,3.581,7.1,12.508,12.508,0,0,0,16.059,0,10.116,10.116,0,0,0,3.581-7.1l.041-1.6V501.223a2.431,2.431,0,0,1,.041-.474V500.7a3.2,3.2,0,0,1,.1-.361,2.042,2.042,0,0,1,.485-.728,3.262,3.262,0,0,1,2.107-.7h.657v-.7Z" transform="translate(-149.498 -203.301)" fill="#fff"/>
      <path id="パス_4905" data-name="パス 4905" d="M645.367,498.22v.7h0a6.043,6.043,0,0,1,2.368.527h.053l.172.095.112.077.142.095c.065.053.13.107.189.166v.03a1.836,1.836,0,0,1,.438.651h0a2.086,2.086,0,0,1,.142.781h0v15.136l-.053,1.048a9.52,9.52,0,0,1-.391,2.255.625.625,0,0,1,0,.113c-.059.2-.13.391-.2.592a.482.482,0,0,1-.065.166c-.077.183-.16.367-.249.545,0,.053-.047.107-.077.16-.1.2-.213.4-.331.592l-.047.077a8.354,8.354,0,0,1-.923,1.184,7.748,7.748,0,0,1-1.125,1h-.036q-.284.2-.592.373l-.089.042c-.184.106-.367.2-.556.29h-.083a6.012,6.012,0,0,1-.592.231h-.053a6.718,6.718,0,0,1-4.114,0h-.059c-.2-.065-.385-.142-.592-.225h-.089c-.183-.089-.367-.183-.544-.284l-.095-.047a6.46,6.46,0,0,1-.562-.361h-.047a7.539,7.539,0,0,1-1.048-.918,8.3,8.3,0,0,1-.941-1.184.1.1,0,0,0,0-.042c-.124-.2-.249-.408-.361-.592l-.053-.118c-.1-.189-.189-.379-.278-.592a.146.146,0,0,0-.041-.118c-.083-.2-.16-.4-.231-.592V520a9.312,9.312,0,0,1-.426-2.267c-.036-.095,0-16.728,0-16.894a1.864,1.864,0,0,1,1.421-1.687,4.87,4.87,0,0,1,1.048-.136h.592v-.758H625.3v.758h1.107a3.215,3.215,0,0,1,2.178.8,1.622,1.622,0,0,1,.45.983V515.51h0v2.09a10.116,10.116,0,0,0,3.552,7.1,12.513,12.513,0,0,0,16.065,0,10.128,10.128,0,0,0,3.552-7.1l.041-1.6V501.263a2.431,2.431,0,0,1,.041-.474.145.145,0,0,1,0-.047,2.311,2.311,0,0,1,.095-.361.083.083,0,0,1,.041-.083,2.474,2.474,0,0,1,.142-.278l.053-.077a1.655,1.655,0,0,1,.231-.272h0a3.262,3.262,0,0,1,2.107-.7h.657v-.7ZM634.315,499.83ZM634.232,499.954Z" transform="translate(-255.171 -203.305)" fill="#fff"/>
      <path id="パス_4906" data-name="パス 4906" d="M31.169,525.183a6.134,6.134,0,0,1-2.084-.332,4.031,4.031,0,0,1-1.261-.7,2.859,2.859,0,0,1-.787-1.054L15.394,495.35h0c-.1.249-10.027,25.039-11.116,27.608a3.67,3.67,0,0,1-2.545,2.107,5.369,5.369,0,0,1-1.723.154v.7H9.836v-.687h0a9.746,9.746,0,0,1-1.5-.2,1.651,1.651,0,0,1-.852-.592,1.456,1.456,0,0,1-.083-1.273l2.735-7.245h8.879c1.776,4.362,2.853,7.02,3.191,7.878.231.545.278,1.243-.45,1.35h-.681v.722H31.14v-.687ZM10.884,513.937l3.285-8.731.243-.633,3.812,9.329Z" transform="translate(-0.01 -202.134)" fill="#fff"/>
      <path id="パス_4907" data-name="パス 4907" d="M245.285,525.323A6.108,6.108,0,0,1,243.2,525a3.966,3.966,0,0,1-1.255-.728,2.9,2.9,0,0,1-.787-1.06L229.5,495.49h0c-.1.255-10.027,25.045-11.116,27.614a3.676,3.676,0,0,1-2.545,2.1,5.367,5.367,0,0,1-1.723.154v.687h9.826v-.657h0a9.05,9.05,0,0,1-1.5-.2,1.645,1.645,0,0,1-.852-.592,1.5,1.5,0,0,1-.089-1.279l2.741-7.239h8.879c1.776,4.357,2.853,7.014,3.19,7.873.231.545.278,1.243-.45,1.356h-.681v.722H245.25v-.687Zm-20.291-11.247,3.291-8.7.243-.628c.391.965,2.066,5.049,3.806,9.323Z" transform="translate(-87.382 -202.191)" fill="#fff"/>
      <path id="パス_4908" data-name="パス 4908" d="M465.515,525.183a6.108,6.108,0,0,1-2.084-.331,3.9,3.9,0,0,1-1.255-.728,2.776,2.776,0,0,1-.787-1.054l-11.655-27.72h0c-.1.249-10.027,25.039-11.116,27.608a3.67,3.67,0,0,1-2.551,2.107,5.326,5.326,0,0,1-1.717.154v.7h9.826v-.687h0a9.654,9.654,0,0,1-1.5-.2,1.627,1.627,0,0,1-.852-.592,1.485,1.485,0,0,1-.089-1.273l2.741-7.245h8.879c1.776,4.363,2.853,7.02,3.191,7.879.231.545.278,1.243-.45,1.35h-.681v.722H465.48v-.687Zm-20.291-11.247,3.273-8.731.237-.633c.4.971,2.072,5.055,3.812,9.329Z" transform="translate(-177.25 -202.134)" fill="#fff"/>
      <path id="パス_4909" data-name="パス 4909" d="M100.1,526.794h0v-.722H98.821a3.912,3.912,0,0,1-2.113-.592,13.675,13.675,0,0,1-1.776-1.533,31.451,31.451,0,0,1-2.09-2.368c-2.119-2.6-3.705-4.6-4.777-5.955s-1.61-2.072-1.646-2.113a6.128,6.128,0,0,0,.681-.456,11.567,11.567,0,0,0,1.438-1.249,8.009,8.009,0,0,0,2.516-6.748,7.328,7.328,0,0,0-3.954-5.919l-.331-.172a3.624,3.624,0,0,0-.343-.16h-.071a9.475,9.475,0,0,0-2.013-.592,14.206,14.206,0,0,0-2.445-.26H78.038c-2.711,0-4.735,0-6.055-.03L70,497.89h0v.722h0a5.147,5.147,0,0,1,.592.041,6.435,6.435,0,0,1,1.237.249,2.961,2.961,0,0,1,1.267.71,1.74,1.74,0,0,1,.545,1.3v23.34a1.7,1.7,0,0,1-.539,1.1,2.314,2.314,0,0,1-1.125.663c-.184.036-.367.065-.556.089a4.583,4.583,0,0,1-.592.041h-.189v.716H82.312v-.716l-.775-.053-.781-.053a2.96,2.96,0,0,1-1.379-.734,2.769,2.769,0,0,1-.55-.74,3.105,3.105,0,0,1-.255-.651c-.059-.331-.095-.687-.124-1.071s-.041-.8-.041-1.249v-6.44h3.552a2.8,2.8,0,0,1,1.065.675c.379.379,2.018,2.522,3.552,4.576s3.007,4.025,3.037,4.067a7.1,7.1,0,0,0,3.711,2.261c.136,0,.272.047.414.059a3.284,3.284,0,0,0,.42,0h5.955Zm-13.97-17.45h0a5.02,5.02,0,0,1-1.249,2.492,4.215,4.215,0,0,1-2.533,1.225l-.592.077H78.287v-.077h0V513l.036-12.774h3.4a5.716,5.716,0,0,1,.805.16h.036a3,3,0,0,1,.326.107h.071l.3.124.077.03.284.142.065.036c.1.053.2.118.3.183h0a4.618,4.618,0,0,1,.592.479,4.848,4.848,0,0,1,1.32,2.249A10.892,10.892,0,0,1,86.13,509.344Z" transform="translate(-28.571 -203.171)" fill="#fff"/>
      <path id="パス_4910" data-name="パス 4910" d="M539.751,526.273h0v-.722h-1.284a3.906,3.906,0,0,1-2.107-.592,13.67,13.67,0,0,1-1.776-1.533,31.223,31.223,0,0,1-2.1-2.368c-2.113-2.6-3.7-4.6-4.771-5.955s-1.61-2.072-1.646-2.113.29-.172.681-.456a11.654,11.654,0,0,0,1.432-1.249,8,8,0,0,0,2.5-6.736,7.328,7.328,0,0,0-3.954-5.919l-.331-.172a3.641,3.641,0,0,0-.343-.16h-.036a.054.054,0,0,0-.036,0,9.575,9.575,0,0,0-2.013-.592,14.2,14.2,0,0,0-2.451-.207h-9.909l-2.007-.03h0v.722h0s.231,0,.592.036a6.985,6.985,0,0,1,1.237.255,2.925,2.925,0,0,1,1.267.71,1.776,1.776,0,0,1,.545,1.29v23.346a1.7,1.7,0,0,1-.539,1.1,2.333,2.333,0,0,1-1.131.663q-.266.053-.551.089c-.189,0-.385.036-.592.041h-.183v.71h11.691V525.6l-.781-.053-.775-.053a2.958,2.958,0,0,1-1.379-.734,2.769,2.769,0,0,1-.551-.74,3.46,3.46,0,0,1-.26-.651c-.053-.331-.095-.687-.118-1.071s-.041-.8-.041-1.249V514.63h3.552a2.776,2.776,0,0,1,1.048.675c.379.379,2.013,2.522,3.552,4.576s3.007,4.025,3.031,4.067a7.151,7.151,0,0,0,3.717,2.261c.136,0,.272.047.408.059a3.423,3.423,0,0,0,.426,0h6Zm-13.97-17.45h0a5.019,5.019,0,0,1-1.249,2.492A4.216,4.216,0,0,1,522,512.541l-.592.077H517.95v-.077h0v-.071l.036-12.768h3.4a5.778,5.778,0,0,1,.811.16h.036l.326.1h.071l.3.118.077.035c.1.042.2.095.29.142h.059l.308.184h0a4.665,4.665,0,0,1,.592.479,4.895,4.895,0,0,1,1.32,2.249,10.956,10.956,0,0,1,.213,5.653Z" transform="translate(-207.962 -202.999)" fill="#fff"/>
      <path id="パス_4911" data-name="パス 4911" d="M733.055,524.954a3.766,3.766,0,0,1-1.486-.391,2.963,2.963,0,0,1-.675-.5,3.3,3.3,0,0,1-.835-1.468l-4.333-27.389h0l-11.3,23.648L702.588,495.18l-4.143,27.7a4.851,4.851,0,0,1-.095.479,3.729,3.729,0,0,1-.207.539h0a4.223,4.223,0,0,1-.231.4,1.776,1.776,0,0,1-1.332.77h-1.32v.675h9.317v-.675h-1.61a2.542,2.542,0,0,1-.432-.036H702.5a1.568,1.568,0,0,1-1.184-1.018,2.107,2.107,0,0,1-.03-.556l2.261-16.515,9.714,19.161h0l9.826-20.191,2.368,17.711a1.616,1.616,0,0,1-.16,1.042.592.592,0,0,1-.438.243h0v.8h9.79v-.758Z" transform="translate(-283.719 -202.065)" fill="#fff"/>
      <path id="パス_4912" data-name="パス 4912" d="M587.5,499.8a3.208,3.208,0,0,1,2.06-.752h.42v-.71H579.33v.71h0a6.155,6.155,0,0,1,.681.036,3.309,3.309,0,0,1,1.592.545,1.728,1.728,0,0,1,.663.989v23.908a1.969,1.969,0,0,1-.112.521,1.727,1.727,0,0,1-.55.663,2.083,2.083,0,0,1-.432.254h0a1.477,1.477,0,0,1-.225.089H580.9a1.3,1.3,0,0,1-.231.071h-.047a1.536,1.536,0,0,1-.249.053h-.059l-.278.042h0a6.422,6.422,0,0,1-.693.041h0v.71H590v-.71h-.373a3.267,3.267,0,0,1-2.107-.752,1.651,1.651,0,0,1-.491-1.042V500.844A1.64,1.64,0,0,1,587.5,499.8Z" transform="translate(-236.412 -203.354)" fill="#fff"/>
      <path id="パス_4913" data-name="パス 4913" d="M382.08,43.739a102.351,102.351,0,0,1,84.5,48.775l13.709-25.891a1.587,1.587,0,0,1,.107-.166A128.651,128.651,0,0,0,397.772,18.7a1.6,1.6,0,0,1-.112.225L382.092,43.739Z" transform="translate(-155.921 -7.629)" fill="#fff"/>
      <path id="パス_4914" data-name="パス 4914" d="M289.494,397.872a1.589,1.589,0,0,1,.112-.225l15.568-24.778h0a102.357,102.357,0,0,1-84.5-48.8h0L207,349.943a1.493,1.493,0,0,1-.107.16,128.639,128.639,0,0,0,82.6,47.769Z" transform="translate(-84.431 -132.24)" fill="#fff"/>
      <path id="パス_4915" data-name="パス 4915" d="M220.67,92.517h0a102.357,102.357,0,0,1,84.546-48.757h0L289.648,18.975a1.588,1.588,0,0,1-.112-.225A128.639,128.639,0,0,0,206.89,66.477c.036.059.077.107.107.166Z" transform="translate(-84.431 -7.649)" fill="#fff"/>
      <path id="パス_4916" data-name="パス 4916" d="M169.669,247.789l29.241,1.1a102.209,102.209,0,0,1,0-97.574L169.669,152.4H169.4a128.591,128.591,0,0,0,0,95.419A1.683,1.683,0,0,1,169.669,247.789Z" transform="translate(-65.389 -61.742)" fill="#fff"/>
      <path id="パス_4917" data-name="パス 4917" d="M558.93,152.379a1.364,1.364,0,0,1-.154,0h-.095L529.44,151.29a102.167,102.167,0,0,1,0,97.574l29.242-1.1a1.7,1.7,0,0,1,.249,0,128.556,128.556,0,0,0,0-95.419Z" transform="translate(-216.054 -61.734)" fill="#fff"/>
      <path id="パス_4918" data-name="パス 4918" d="M466.594,324.09a102.369,102.369,0,0,1-84.5,48.8h0l15.568,24.778a1.592,1.592,0,0,1,.113.225,128.65,128.65,0,0,0,82.6-47.757,1.506,1.506,0,0,1-.107-.16Z" transform="translate(-155.925 -132.248)" fill="#fff"/>
      <path id="パス_4919" data-name="パス 4919" d="M378.878,35.834a.758.758,0,0,0,.8-.337l15.449-24.589.118-.189a1.308,1.308,0,0,0-.462-1.829L379.292.075a.586.586,0,0,0-.882.5V35.266h0a.592.592,0,0,0,.468.568Z" transform="translate(-154.423 0.004)" fill="#fff"/>
      <path id="パス_4920" data-name="パス 4920" d="M348.172,10.913,363.627,35.52a.74.74,0,0,0,.793.337.592.592,0,0,0,.462-.592h0V.6A.592.592,0,0,0,364.3.01l-.284.077-15.467,8.8a1.308,1.308,0,0,0-.462,1.829Z" transform="translate(-141.967 -0.002)" fill="#fff"/>
      <path id="パス_4921" data-name="パス 4921" d="M176.2,109.538l7.967,4.6,22.067,12.738h0a.592.592,0,0,0,.716-.112.758.758,0,0,0,.112-.858l-13.543-25.619-.136-.255a1.3,1.3,0,0,0-1.811-.515l-15.39,9.015a.573.573,0,0,0,.018,1.006Z" transform="translate(-71.781 -40.534)" fill="#fff"/>
      <path id="パス_4922" data-name="パス 4922" d="M175.177,137.729h.231l29-1.083a.764.764,0,0,0,.693-.521.592.592,0,0,0-.266-.681h0L182.8,122.682l-7.961-4.593h0l-.326-.089a.6.6,0,0,0-.586.586l-.118,17.823a1.308,1.308,0,0,0,.4.947A1.273,1.273,0,0,0,175.177,137.729Z" transform="translate(-70.932 -48.15)" fill="#fff"/>
      <path id="パス_4923" data-name="パス 4923" d="M204.415,317.253l-29-1.083H175.1a1.314,1.314,0,0,0-1.3,1.32l.112,17.823a.592.592,0,0,0,.888.5l8-4.629,22.044-12.75h0a.592.592,0,0,0,.266-.681A.77.77,0,0,0,204.415,317.253Z" transform="translate(-70.928 -129.017)" fill="#fff"/>
      <path id="パス_4924" data-name="パス 4924" d="M176.21,338.881a.581.581,0,0,0,0,1.006L191.6,348.9a1.3,1.3,0,0,0,1.817-.521l.13-.254,13.543-25.619a.764.764,0,0,0-.107-.858.592.592,0,0,0-.438-.189l-.284.077h0L184.2,334.281Z" transform="translate(-71.793 -131.175)" fill="#fff"/>
      <path id="パス_4925" data-name="パス 4925" d="M348.032,432.013a1.314,1.314,0,0,0-.16,1.018,1.3,1.3,0,0,0,.622.817l15.5,8.808a.586.586,0,0,0,.882-.509V407.472h0a.592.592,0,0,0-.462-.592h-.154a.752.752,0,0,0-.639.355l-15.467,24.577Z" transform="translate(-141.945 -166.032)" fill="#fff"/>
      <path id="パス_4926" data-name="パス 4926" d="M395.14,431.8l-15.455-24.589a.74.74,0,0,0-.639-.355h-.154a.592.592,0,0,0-.462.592h0v34.675a.586.586,0,0,0,.882.509l15.491-8.808a1.3,1.3,0,0,0,.462-1.835Z" transform="translate(-154.431 -166.024)" fill="#fff"/>
      <path id="パス_4927" data-name="パス 4927" d="M557.574,339.384a.592.592,0,0,0-.3-.5l-7.961-4.6L527.25,321.537h0l-.284-.077a.592.592,0,0,0-.438.189.764.764,0,0,0-.107.858l13.537,25.619.136.255a1.3,1.3,0,0,0,1.817.521l15.39-9.015A.592.592,0,0,0,557.574,339.384Z" transform="translate(-214.787 -131.175)" fill="#fff"/>
      <path id="パス_4928" data-name="パス 4928" d="M558.029,316.127l-29,1.083a.763.763,0,0,0-.693.521.592.592,0,0,0,.266.687h0l22.073,12.744,7.961,4.593a.592.592,0,0,0,.888-.5l.118-17.823a1.326,1.326,0,0,0-1.361-1.32Z" transform="translate(-215.59 -128.992)" fill="#fff"/>
      <path id="パス_4929" data-name="パス 4929" d="M550.661,122.689l-22.073,12.744h0a.592.592,0,0,0-.266.687.758.758,0,0,0,.693.521l29,1.083h.231a1.267,1.267,0,0,0,.959-.367,1.32,1.32,0,0,0,.4-.947l-.118-17.811a.592.592,0,0,0-.3-.5.557.557,0,0,0-.592,0l-2.155,1.243Z" transform="translate(-215.586 -48.156)" fill="#fff"/>
      <path id="パス_4930" data-name="パス 4930" d="M526.508,126.76a.592.592,0,0,0,.722.112h0L549.3,114.134l7.961-4.6a.584.584,0,0,0,.006-1.012l-15.39-9.009a1.237,1.237,0,0,0-.657-.184l-.361.053a1.3,1.3,0,0,0-.8.645l-.136.255L526.384,125.9A.752.752,0,0,0,526.508,126.76Z" transform="translate(-214.773 -40.531)" fill="#fff"/>
      <path id="パス_4931" data-name="パス 4931" d="M207.75,164.469a100.463,100.463,0,1,0,0-.012ZM308.236,66.3a98.169,98.169,0,1,1-98.166,98.172A98.283,98.283,0,0,1,308.236,66.3Z" transform="translate(-84.782 -26.114)" fill="#fff"/>
      <path id="パス_4932" data-name="パス 4932" d="M460.341,222.846c-.5.03-1.006.071-1.5.118a7.647,7.647,0,0,0-1.03,2.474,7.439,7.439,0,0,0-.178,1.622v.479a5.274,5.274,0,0,0,.083.781,52.089,52.089,0,0,1,11.081,3.232c.953.4,1.882.817,2.812,1.267a6.76,6.76,0,0,1,3.753-8.8A55.642,55.642,0,0,0,460.341,222.846Z" transform="translate(-186.75 -90.896)" fill="#fff"/>
      <path id="パス_4933" data-name="パス 4933" d="M271.691,230.306v.3a6.6,6.6,0,0,1-.485,2.243c.923-.45,1.865-.876,2.812-1.267a51.817,51.817,0,0,1,11.081-3.232c.035-.243.065-.5.083-.781v-.479A7.618,7.618,0,0,0,284,223c-.5-.047-1-.089-1.509-.118a55.553,55.553,0,0,0-15.017,1.184A6.778,6.778,0,0,1,271.691,230.306Z" transform="translate(-109.152 -90.909)" fill="#fff"/>
      <path id="パス_4934" data-name="パス 4934" d="M293.668,222.491v.047a4.876,4.876,0,0,1-.9,1.918l-.095.154A35.516,35.516,0,0,1,303.139,217h0a5.4,5.4,0,0,0,2.847-4.765v-.278a5.369,5.369,0,0,0-5.327-5.114h-.426a42.206,42.206,0,0,0-14.6,5.268,6.742,6.742,0,0,1,4.6,1.284,8.956,8.956,0,0,1,3.646,7.156v.556a9.076,9.076,0,0,1-.207,1.385Z" transform="translate(-116.562 -84.402)" fill="#fff"/>
      <path id="パス_4935" data-name="パス 4935" d="M450.814,213.337a6.76,6.76,0,0,1,4.576-1.284l-.852-.485a42.205,42.205,0,0,0-13.751-4.777h-.414a5.4,5.4,0,0,0-2.5,10.158h0a35.516,35.516,0,0,1,10.483,7.642l-.1-.154a4.841,4.841,0,0,1-.894-1.912v-.059a7.608,7.608,0,0,1-.2-1.361v-.556a8.752,8.752,0,0,1,.207-1.888A8.956,8.956,0,0,1,450.814,213.337Z" transform="translate(-177.525 -84.382)" fill="#fff"/>
      <path id="パス_4936" data-name="パス 4936" d="M453.551,156.846a8.8,8.8,0,0,1,3.262-5.156h.035a79.034,79.034,0,0,0-19.6,6.926h0a6.257,6.257,0,0,0-1.421,9.832,6.1,6.1,0,0,0,4.351,1.823h.124a52.685,52.685,0,0,1,6.511-.4,51.5,51.5,0,0,1,13.023,1.669l-.3-.219a8.879,8.879,0,0,1-5-4.8,18.788,18.788,0,0,1-1.136-8.826A7.5,7.5,0,0,1,453.551,156.846Z" transform="translate(-177.124 -61.898)" fill="#fff"/>
      <path id="パス_4937" data-name="パス 4937" d="M454.788,193.664a17.164,17.164,0,0,1,.994-3.167,8.092,8.092,0,0,1,4.641-4.363,50.539,50.539,0,0,0-18.5-1.219,5.748,5.748,0,0,0-5.126,5.825,5.967,5.967,0,0,0,.823,3.066,5.534,5.534,0,0,0,4.2,2.693h0a43.341,43.341,0,0,1,14.041,4.9c.373.213.746.42,1.113.645l-.142-.207a8.2,8.2,0,0,1-2.285-6.855C454.634,194.5,454.705,194.061,454.788,193.664Z" transform="translate(-178.249 -75.311)" fill="#fff"/>
      <path id="パス_4938" data-name="パス 4938" d="M373.992,200.775a12.98,12.98,0,0,1,0-1.515,2.646,2.646,0,0,0-1.592,2.368,3.787,3.787,0,0,1,.592-.047,3.876,3.876,0,0,1,1.042.142C374.016,201.385,374,201.077,373.992,200.775Z" transform="translate(-151.97 -81.309)" fill="#fff"/>
      <path id="パス_4939" data-name="パス 4939" d="M380.23,199.36c.142.592.272,1.356.4,2.267a3.557,3.557,0,0,1,.444-.03,3.77,3.77,0,0,1,.592.047,2.61,2.61,0,0,0-1.438-2.285Z" transform="translate(-155.166 -81.35)" fill="#fff"/>
      <path id="パス_4940" data-name="パス 4940" d="M439.635,117.69l.213-.45q-7.624,8.471-14.668,17.438a5.926,5.926,0,0,0,3.676,9.187,6.222,6.222,0,0,0,1.184.118h0a5.92,5.92,0,0,0,2.474-.539,80.288,80.288,0,0,1,19.948-7.074h-.77a9.3,9.3,0,0,1-1.853-.207,8.879,8.879,0,0,1-3.747-1.776,20.842,20.842,0,0,1-6.943-10.465,8.879,8.879,0,0,1-.172-4.321,9.1,9.1,0,0,1,.657-1.912Z" transform="translate(-173.076 -47.84)" fill="#fff"/>
      <path id="パス_4941" data-name="パス 4941" d="M405.128,155.321q-9.471,12.715-17.758,26.24a3.871,3.871,0,0,1,1.616.4q1.279-1.776,2.646-3.439a80.5,80.5,0,0,1,22.63-19.267,5.849,5.849,0,0,1-.645-.1,7.216,7.216,0,0,1-5.748-7.056v-.385Q406.483,153.515,405.128,155.321Z" transform="translate(-158.079 -61.906)" fill="#fff"/>
      <path id="パス_4942" data-name="パス 4942" d="M394.772,140.006a7.732,7.732,0,0,1-.308-1.036q-2.22,6.665-4.363,13.336-3.552,11.116-6.931,22.174a3.9,3.9,0,0,1,.923,2.024q8.471-13.976,18.3-27.134,1.628-2.184,3.291-4.339a8.453,8.453,0,0,1-10.915-5.025Z" transform="translate(-156.365 -56.707)" fill="#fff"/>
      <path id="パス_4943" data-name="パス 4943" d="M404.444,118.075a7.369,7.369,0,0,0-.414,2.433,7.132,7.132,0,0,0,.438,2.474,7.228,7.228,0,0,0,12.123,2.368h0q6.943-8.778,14.443-17.1l-.225.107a8.82,8.82,0,0,1-6.138,1.314c-.45-.065-.947-.154-1.515-.272a20.262,20.262,0,0,1-8.63-4.09,8.926,8.926,0,0,1-3.007-4.5,8.644,8.644,0,0,1-.349-2.439q-3.433,9.844-6.742,19.7Z" transform="translate(-164.878 -40.139)" fill="#fff"/>
      <path id="パス_4944" data-name="パス 4944" d="M380.23,170.9q3.285-10.8,6.789-21.7,2.368-7.352,4.812-14.7a9,9,0,0,1-2.634,1.539A8.814,8.814,0,0,1,378.59,132.3v37.517a1.853,1.853,0,0,1,.5.693,3.915,3.915,0,0,1,1.137.391Z" transform="translate(-154.496 -53.985)" fill="#fff"/>
      <path id="パス_4945" data-name="パス 4945" d="M386.163,115.993a7.558,7.558,0,0,0,6.925-4.533v0q3.279-9.737,6.689-19.427l-.071.036a8.986,8.986,0,0,1-5.718,2.622h-1.367A21.044,21.044,0,0,1,383,92.026a8.761,8.761,0,0,1-4.327-6.991l-.03-.065v23.488a7.565,7.565,0,0,0,7.553,7.535Z" transform="translate(-154.517 -34.671)" fill="#fff"/>
      <path id="パス_4946" data-name="パス 4946" d="M347.377,111.5a7.559,7.559,0,0,0,14.479-3.043h0V85l-.03.065a8.79,8.79,0,0,1-4.315,6.991,21.185,21.185,0,0,1-9.72,2.676h-1.285a8.968,8.968,0,0,1-5.771-2.628l-.065-.036q3.4,9.672,6.689,19.457Z" transform="translate(-139.022 -34.683)" fill="#fff"/>
      <path id="パス_4947" data-name="パス 4947" d="M319.821,125.4a7.222,7.222,0,0,0,12.555-4.872,7.394,7.394,0,0,0-.355-2.3q-3.327-9.95-6.8-19.806a8.694,8.694,0,0,1-.225,1.959,8.826,8.826,0,0,1-3.108,4.96,20.327,20.327,0,0,1-8.66,4.108c-.556.118-1.06.207-1.521.272a8.766,8.766,0,0,1-6.1-1.3l-.249-.118q7.494,8.287,14.437,17.095Z" transform="translate(-124.614 -40.16)" fill="#fff"/>
      <path id="パス_4948" data-name="パス 4948" d="M281.759,202.03l.225-.13a43.294,43.294,0,0,1,14.911-5.41h0a5.694,5.694,0,0,0,4.99-4.937,5.435,5.435,0,0,0,.059-.823,5.872,5.872,0,0,0-5.209-5.807,51.864,51.864,0,0,0-5.919-.343,50.771,50.771,0,0,0-8.648.746q-1.936.337-3.848.829a8.139,8.139,0,0,1,4.647,4.363,17.167,17.167,0,0,1,.994,3.167c.083.4.154.835.219,1.308a8.181,8.181,0,0,1-2.261,6.831Z" transform="translate(-113.579 -75.319)" fill="#fff"/>
      <path id="パス_4949" data-name="パス 4949" d="M290.418,169.837a52.628,52.628,0,0,1,6.364.386h.277a6.15,6.15,0,0,0,5.262-3,6.269,6.269,0,0,0-2.368-8.7h0a78.953,78.953,0,0,0-19.6-6.926h.035a8.772,8.772,0,0,1,3.273,5.209,7.749,7.749,0,0,1,.142.852,18.759,18.759,0,0,1-1.125,8.808,8.879,8.879,0,0,1-4.99,4.812.687.687,0,0,0-.326.225q2.072-.533,4.173-.9A51.5,51.5,0,0,1,290.418,169.837Z" transform="translate(-113.188 -61.861)" fill="#fff"/>
      <path id="パス_4950" data-name="パス 4950" d="M305.435,143.952a5.949,5.949,0,0,0,5.949-5.919v-.225a5.918,5.918,0,0,0-1.048-3.149q-7.05-8.968-14.674-17.438l.207.432a9.056,9.056,0,0,1,.663,1.953,8.814,8.814,0,0,1-.178,4.333,20.836,20.836,0,0,1-6.937,10.453,8.879,8.879,0,0,1-3.747,1.776,9.3,9.3,0,0,1-1.847.207h-.764a80.207,80.207,0,0,1,19.907,7.05,5.92,5.92,0,0,0,2.468.527Z" transform="translate(-115.514 -47.831)" fill="#fff"/>
      <path id="パス_4951" data-name="パス 4951" d="M322.2,159.251a80.6,80.6,0,0,1,22.63,19.267c.912,1.119,1.776,2.267,2.646,3.439a3.752,3.752,0,0,1,1.427-.385h.184a339.2,339.2,0,0,0-20.493-29.863v.385a7.216,7.216,0,0,1-6.393,7.156Z" transform="translate(-131.486 -61.906)" fill="#fff"/>
      <path id="パス_4952" data-name="パス 4952" d="M344.721,140.028a8.482,8.482,0,0,1-7.961,5.558,8.607,8.607,0,0,1-2.96-.539l.545.71a340.23,340.23,0,0,1,21.049,30.78,3.924,3.924,0,0,1,.929-1.989q-.675-2.22-1.355-4.439c-3.191-10.371-6.511-20.765-9.944-31.1A7.753,7.753,0,0,1,344.721,140.028Z" transform="translate(-136.219 -56.723)" fill="#fff"/>
      <path id="パス_4953" data-name="パス 4953" d="M367.316,169.852V132.3a8.832,8.832,0,0,1-13.236,2.22c3.593,10.785,7.068,21.635,10.383,32.462q.592,1.983,1.213,3.948a3.8,3.8,0,0,1,1.184-.42A1.829,1.829,0,0,1,367.316,169.852Z" transform="translate(-144.495 -53.985)" fill="#fff"/>
      <path id="パス_4954" data-name="パス 4954" d="M423.4,222.773a34.272,34.272,0,0,0-12.981-2.563,35.012,35.012,0,0,0-5.043.373,3.9,3.9,0,0,1,1.089,2.705,4.248,4.248,0,0,1-.154,1.1h0a15.763,15.763,0,0,1,7.233,1.261,18.093,18.093,0,0,1,8.7,7.133,27.438,27.438,0,0,1-.592-4.244c-.13-2.492.278-4.274,1.231-5.327a2.958,2.958,0,0,1,.521-.432Z" transform="translate(-165.429 -89.858)" fill="#fff"/>
      <path id="パス_4955" data-name="パス 4955" d="M423.787,205.982c-1.024-.077-2.054-.112-3.078-.112a41.708,41.708,0,0,0-18.409,4.22,3.913,3.913,0,0,1,.983,2.593,3.858,3.858,0,0,1-.112.9c.266-.047.521-.089.787-.124a35.274,35.274,0,0,1,17.391,1.776,6.677,6.677,0,0,1,2.439-9.264Z" transform="translate(-164.172 -84.007)" fill="#fff"/>
      <path id="パス_4956" data-name="パス 4956" d="M416.568,187.451a49.835,49.835,0,0,0-20.718,12.431,3.984,3.984,0,0,1,.817.935,3.913,3.913,0,0,1,1.894.456,43.028,43.028,0,0,1,19.534-4.635c1.024,0,2.048.03,3.066.1a6.713,6.713,0,0,1-1.361-1.687,7.216,7.216,0,0,1,1.142-8.7C419.45,186.646,418,187.019,416.568,187.451Z" transform="translate(-161.54 -76.041)" fill="#fff"/>
      <path id="パス_4957" data-name="パス 4957" d="M394.449,185.452c-.882,1.1-1.74,2.208-2.569,3.35a3.877,3.877,0,0,1,1.137,2.368l.071.03a51.036,51.036,0,0,1,21.493-12.981,48.3,48.3,0,0,1,5.191-1.29,7.7,7.7,0,0,1-2.084-1.5,7.541,7.541,0,0,1-1.279-8.755A79.425,79.425,0,0,0,394.449,185.452Z" transform="translate(-159.92 -68.01)" fill="#fff"/>
      <path id="パス_4958" data-name="パス 4958" d="M386.6,204.28a2.635,2.635,0,0,0-.882.154,3.931,3.931,0,0,1,1.462,2.433,3.871,3.871,0,0,1,1.989-.592A2.646,2.646,0,0,0,386.6,204.28Z" transform="translate(-157.406 -83.358)" fill="#fff"/>
      <path id="パス_4959" data-name="パス 4959" d="M381.24,205.291a23.478,23.478,0,0,1,1.942,2.5,3.742,3.742,0,0,1,.935-.178,2.646,2.646,0,0,0-2.628-2.368Z" transform="translate(-155.578 -83.754)" fill="#fff"/>
      <path id="パス_4960" data-name="パス 4960" d="M371.564,205.29a2.652,2.652,0,0,0-2.593,2.1l-.041.243a3.94,3.94,0,0,1,1.042.219,21.428,21.428,0,0,1,2.291-2.468A2.794,2.794,0,0,0,371.564,205.29Z" transform="translate(-150.555 -83.77)" fill="#fff"/>
      <path id="パス_4961" data-name="パス 4961" d="M365.51,206.683a3.919,3.919,0,0,1,1.421-2.249,2.581,2.581,0,0,0-.882-.154h-.231a2.664,2.664,0,0,0-2.338,2.007,3.872,3.872,0,0,1,1.989.592Z" transform="translate(-148.331 -83.358)" fill="#fff"/>
      <path id="パス_4962" data-name="パス 4962" d="M316.05,176.932a49.983,49.983,0,0,1,5.114,1.261,51.09,51.09,0,0,1,21.558,13.023l.071-.03a3.877,3.877,0,0,1,1.137-2.368c-.829-1.142-1.687-2.255-2.569-3.35a79.367,79.367,0,0,0-21.955-18.788,7.506,7.506,0,0,1-3.356,10.252Z" transform="translate(-128.976 -68.014)" fill="#fff"/>
      <path id="パス_4963" data-name="パス 4963" d="M316.42,196.728c1.03-.071,2.054-.1,3.09-.1a42.986,42.986,0,0,1,19.534,4.635,2.634,2.634,0,0,0,2.711-1.391,49.87,49.87,0,0,0-20.789-12.431c-1.432-.432-2.895-.8-4.374-1.1a7.139,7.139,0,0,1,2.2,5.114,6.029,6.029,0,0,1-.071.989,7.026,7.026,0,0,1-2.3,4.286Z" transform="translate(-129.127 -76.037)" fill="#fff"/>
      <path id="パス_4964" data-name="パス 4964" d="M329.038,225.644a15.787,15.787,0,0,1,7.239-1.261h0a3.552,3.552,0,0,1-.148-.858v-.237a3.924,3.924,0,0,1,1.089-2.705,34.808,34.808,0,0,0-5.037-.373,34.249,34.249,0,0,0-12.981,2.563,3.254,3.254,0,0,1,.491.432,6.079,6.079,0,0,1,1.243,4.055,24.011,24.011,0,0,1-.592,5.517A18.119,18.119,0,0,1,329.038,225.644Z" transform="translate(-130.261 -89.858)" fill="#fff"/>
      <path id="パス_4965" data-name="パス 4965" d="M331.051,213.086a35.634,35.634,0,0,1,5.209.391l.787.124a3.859,3.859,0,0,1-.112-.9,3.913,3.913,0,0,1,.982-2.592,41.708,41.708,0,0,0-18.4-4.239c-1.036,0-2.06.036-3.084.112a6.647,6.647,0,0,1,3.38,5.487v.326a6.7,6.7,0,0,1-.953,3.451,35.44,35.44,0,0,1,12.194-2.161Z" transform="translate(-129.131 -84.007)" fill="#fff"/>
      <path id="パス_4966" data-name="パス 4966" d="M353.22,215.6a2.587,2.587,0,0,0,.154.852,4.423,4.423,0,0,1,.592-.041h.326a3.942,3.942,0,0,1,1.184-1.675,3.934,3.934,0,0,1-.13-.989,4.2,4.2,0,0,1,.077-.775A2.67,2.67,0,0,0,353.22,215.6Z" transform="translate(-144.144 -86.904)" fill="#fff"/>
      <path id="パス_4967" data-name="パス 4967" d="M358.93,212.482v.337a3.848,3.848,0,0,1,1.308-.231,3.739,3.739,0,0,1,.45.036,3.9,3.9,0,0,1,1.853-2.6,2.539,2.539,0,0,0-.989-.2,2.646,2.646,0,0,0-2.622,2.652Z" transform="translate(-146.474 -85.623)" fill="#fff"/>
      <path id="パス_4968" data-name="パス 4968" d="M366.612,211.37a2.658,2.658,0,0,0-2.652,2.652,2.561,2.561,0,0,0,.077.592,2.992,2.992,0,0,1,.468-.035,4.2,4.2,0,0,1,.722.065,26.558,26.558,0,0,1,1.912-3.226A2.562,2.562,0,0,0,366.612,211.37Z" transform="translate(-148.526 -86.251)" fill="#fff"/>
      <path id="パス_4969" data-name="パス 4969" d="M363.064,219a2.646,2.646,0,0,0-2.634,2.652,2.924,2.924,0,0,0,.071.651,2.958,2.958,0,0,0,.237.592H361a4.43,4.43,0,0,1,.693.059,38.417,38.417,0,0,1,1.509-3.942Z" transform="translate(-147.086 -89.365)" fill="#fff"/>
      <path id="パス_4970" data-name="パス 4970" d="M359.36,216.64a2.652,2.652,0,0,0-2.64,2.652,2.729,2.729,0,0,0,.053.539,4.048,4.048,0,0,1,.811-.083h.166a3.907,3.907,0,0,1,2.107-2.616,3.162,3.162,0,0,1-.089-.462A3.084,3.084,0,0,0,359.36,216.64Z" transform="translate(-145.572 -88.402)" fill="#fff"/>
      <path id="パス_4971" data-name="パス 4971" d="M350,223.566v.178a2.753,2.753,0,0,0,.361,1.154c.207.053.4.112.592.178a3.972,3.972,0,0,1,.278-1.184,3.913,3.913,0,0,1,1.628-1.882,3.629,3.629,0,0,1-.136-1.012v-.107h-.077A2.658,2.658,0,0,0,350,223.566Z" transform="translate(-142.83 -90.136)" fill="#fff"/>
      <path id="パス_4972" data-name="パス 4972" d="M356.429,224.05h-.077a2.652,2.652,0,0,0-2.439,1.616,2.694,2.694,0,0,0-.213,1.03v.225a6.1,6.1,0,0,1,.858.556,3.942,3.942,0,0,1,2.149-2.232,3.184,3.184,0,0,1-.2-.592,3.547,3.547,0,0,1-.083-.6Z" transform="translate(-144.34 -91.425)" fill="#fff"/>
      <path id="パス_4973" data-name="パス 4973" d="M357,229.963a6.47,6.47,0,0,1,.888,1.415c.456-.379.918-.758,1.4-1.131.189-.823.4-1.669.651-2.528l-.314-.03A2.652,2.652,0,0,0,357,229.963Z" transform="translate(-145.686 -92.911)" fill="#fff"/>
      <path id="パス_4974" data-name="パス 4974" d="M360.7,252.06l.337.13a4.061,4.061,0,0,1,1.865-.509,14.364,14.364,0,0,1,.172-2.6l-.053-.077a2.918,2.918,0,0,0-2.326,2.551C360.69,251.753,360.69,251.918,360.7,252.06Z" transform="translate(-147.192 -101.607)" fill="#fff"/>
      <path id="パス_4975" data-name="パス 4975" d="M354.47,250.938a4.043,4.043,0,0,1,1.628,1.225,4.265,4.265,0,0,1,.781-.083V249.6h-.118A2.658,2.658,0,0,0,354.47,250.938Z" transform="translate(-144.654 -101.851)" fill="#fff"/>
      <path id="パス_4976" data-name="パス 4976" d="M355.521,256.31a2.658,2.658,0,0,0-1.071,1.184,3.9,3.9,0,0,1,1.942,1.3v-.2a4.1,4.1,0,0,1,.941-2.61A2.652,2.652,0,0,0,355.521,256.31Z" transform="translate(-144.646 -104.442)" fill="#fff"/>
      <path id="パス_4977" data-name="パス 4977" d="M344.21,258.148a3.86,3.86,0,0,1,.787.7,3.906,3.906,0,0,1,.752,1.284,3.96,3.96,0,0,1,1.687-1.628,2.871,2.871,0,0,0-3.226-.361Z" transform="translate(-140.467 -105.202)" fill="#fff"/>
      <path id="パス_4978" data-name="パス 4978" d="M349.142,255.141a4.239,4.239,0,0,1,1.563,1.219h.148a3.919,3.919,0,0,1,1.675-2.09,2.753,2.753,0,0,0-1.776-.752,2.723,2.723,0,0,0-1.912.687A3.872,3.872,0,0,1,349.142,255.141Z" transform="translate(-142.356 -103.45)" fill="#fff"/>
      <path id="パス_4979" data-name="パス 4979" d="M344.181,253.39c-.343.592-.663,1.184-.971,1.823a4.144,4.144,0,0,1,1.948-.479h.249a3.047,3.047,0,0,0-.2-.391A2.959,2.959,0,0,0,344.181,253.39Z" transform="translate(-140.059 -103.398)" fill="#fff"/>
      <path id="パス_4980" data-name="パス 4980" d="M347.418,247.82c-.521.722-1.012,1.45-1.468,2.2a4.2,4.2,0,0,1,.983.787,3.96,3.96,0,0,1,1.847-.841A2.782,2.782,0,0,0,347.418,247.82Z" transform="translate(-141.177 -101.125)" fill="#fff"/>
      <path id="パス_4981" data-name="パス 4981" d="M352.072,249.013a3.848,3.848,0,0,1,1.776-1.492,2.794,2.794,0,0,0-2.788-.468,3.816,3.816,0,0,1,.551.722A4.143,4.143,0,0,1,352.072,249.013Z" transform="translate(-143.262 -100.738)" fill="#fff"/>
      <path id="パス_4982" data-name="パス 4982" d="M351.972,243.667a4.142,4.142,0,0,1,.515-.912,2.959,2.959,0,0,0-.515-.645c-.521.592-1.018,1.154-1.492,1.746a4.269,4.269,0,0,1,1.29-.207Z" transform="translate(-143.026 -98.795)" fill="#fff"/>
      <path id="パス_4983" data-name="パス 4983" d="M357.377,239.686a2.658,2.658,0,0,0-1.829-.906c-.361.349-.7.7-1.048,1.042a3.963,3.963,0,0,1,.592.681,4.144,4.144,0,0,1,2.279-.728Z" transform="translate(-144.666 -97.436)" fill="#fff"/>
      <path id="パス_4984" data-name="パス 4984" d="M357.27,245.491c.053-.864.124-1.817.237-2.841a2.794,2.794,0,0,0-2.3,1.5,4.1,4.1,0,0,1,1.776,1.332h.107Z" transform="translate(-144.956 -99.015)" fill="#fff"/>
      <path id="パス_4985" data-name="パス 4985" d="M360.952,244.159c-.065.77-.112,1.486-.142,2.131a4.214,4.214,0,0,1,1.728-.959,4.241,4.241,0,0,1-.13-1.065,4.144,4.144,0,0,1,.225-1.326A2.717,2.717,0,0,0,360.952,244.159Z" transform="translate(-147.241 -99.134)" fill="#fff"/>
      <path id="パス_4986" data-name="パス 4986" d="M365.861,243.879a5.066,5.066,0,0,0,.266-1.379,2.912,2.912,0,0,0-.468,1.586v.29h0A2.576,2.576,0,0,0,365.861,243.879Z" transform="translate(-149.22 -98.954)" fill="#fff"/>
      <path id="パス_4987" data-name="パス 4987" d="M361.39,239.607a4.013,4.013,0,0,1,1.675-.592,4.2,4.2,0,0,1-.42-1.823,4.007,4.007,0,0,1,.041-.592,2.634,2.634,0,0,0-1.006.918C361.568,238.24,361.467,238.938,361.39,239.607Z" transform="translate(-147.478 -96.547)" fill="#fff"/>
      <path id="パス_4988" data-name="パス 4988" d="M359.354,235.32q-.592.491-1.154.994a4.061,4.061,0,0,1,.906.456c.059-.379.124-.77.189-1.184Z" transform="translate(-146.176 -96.024)" fill="#fff"/>
      <path id="パス_4989" data-name="パス 4989" d="M362.788,232.31c-.112.491-.213.977-.308,1.45a4.267,4.267,0,0,1,.8-.326,4.142,4.142,0,0,1-.491-1.125Z" transform="translate(-147.923 -94.796)" fill="#fff"/>
      <path id="パス_4990" data-name="パス 4990" d="M366.795,233.72a2.96,2.96,0,0,0-1.125,2.309,2.906,2.906,0,0,0,.266,1.184l.077-.053a4.57,4.57,0,0,1,.036-1.575,3.948,3.948,0,0,1,.769-1.622Z" transform="translate(-149.224 -95.371)" fill="#fff"/>
      <path id="パス_4991" data-name="パス 4991" d="M366.88,228.879a4.144,4.144,0,0,1-.509-1.995,3.955,3.955,0,0,1,.065-.7,2.883,2.883,0,0,0-1.184,3.877A4.143,4.143,0,0,1,366.844,229Z" transform="translate(-148.919 -92.295)" fill="#fff"/>
      <path id="パス_4992" data-name="パス 4992" d="M369.65,225.91a2.919,2.919,0,0,0-.03,1.622l.207-.2a5.044,5.044,0,0,0-.1-.781C369.686,226.295,369.668,226.117,369.65,225.91Z" transform="translate(-150.795 -92.184)" fill="#fff"/>
      <path id="パス_4993" data-name="パス 4993" d="M367.414,221.821a4.1,4.1,0,0,1-.462-1.918,3.545,3.545,0,0,1,.047-.592v-.071a2.961,2.961,0,0,0-.4.379c-.225.5-.432,1-.633,1.5l-.03.355a2.876,2.876,0,0,0,.124.864,4.144,4.144,0,0,1,1.338-.491Z" transform="translate(-149.334 -89.463)" fill="#fff"/>
      <path id="パス_4994" data-name="パス 4994" d="M372.053,210.32l-.32.4c-.314.4-.592.805-.894,1.225a2.841,2.841,0,0,0,.166.7,3.976,3.976,0,0,1,.929-.414,3.334,3.334,0,0,1-.035-.349,3.64,3.64,0,0,1,0-.716A4.822,4.822,0,0,1,372.053,210.32Z" transform="translate(-151.334 -85.823)" fill="#fff"/>
      <path id="パス_4995" data-name="パス 4995" d="M369.2,215.612l-.053-.112-.243.42h.071Z" transform="translate(-150.542 -87.936)" fill="#fff"/>
      <path id="パス_4996" data-name="パス 4996" d="M370.849,218.506a3.3,3.3,0,0,0,.787-1.693,5.059,5.059,0,0,0,.089-1.113,2.96,2.96,0,0,0-1.776,3.634,4.145,4.145,0,0,1,.592-.4A3.265,3.265,0,0,1,370.849,218.506Z" transform="translate(-150.917 -88.018)" fill="#fff"/>
      <path id="パス_4997" data-name="パス 4997" d="M385.44,215.4l.213.266-.178-.326Z" transform="translate(-157.292 -87.871)" fill="#fff"/>
      <path id="パス_4998" data-name="パス 4998" d="M381.774,210.927v.237c0,.154.03.3.041.444a4.056,4.056,0,0,1,1.024.45,3.232,3.232,0,0,0,.166-.716c-.521-.846-1.006-1.545-1.415-2.1C381.661,209.767,381.714,210.329,381.774,210.927Z" transform="translate(-155.721 -85.382)" fill="#fff"/>
      <path id="パス_4999" data-name="パス 4999" d="M387.6,214.723a3.783,3.783,0,0,1,.77-.095,3.189,3.189,0,0,1,.473.035,2.91,2.91,0,0,0,.071-.592,2.658,2.658,0,0,0-2.652-2.652,2.987,2.987,0,0,0-.479.047,36.357,36.357,0,0,1,1.817,3.256Z" transform="translate(-157.43 -86.271)" fill="#fff"/>
      <path id="パス_5000" data-name="パス 5000" d="M390.954,209.83a2.569,2.569,0,0,0-.994.2,3.9,3.9,0,0,1,1.853,2.6,3.733,3.733,0,0,1,.45-.036,3.788,3.788,0,0,1,1.3.231l.03-.337A2.646,2.646,0,0,0,390.954,209.83Z" transform="translate(-159.136 -85.623)" fill="#fff"/>
      <path id="パス_5001" data-name="パス 5001" d="M399.184,216.451h.326a4.425,4.425,0,0,1,.592.041,2.605,2.605,0,0,0,.148-.852,2.664,2.664,0,0,0-2.178-2.61,3.749,3.749,0,0,1,.077.775,3.936,3.936,0,0,1-.148.983,3.943,3.943,0,0,1,1.184,1.663Z" transform="translate(-162.417 -86.928)" fill="#fff"/>
      <path id="パス_5002" data-name="パス 5002" d="M393.507,216.64a3.171,3.171,0,0,0-.408.036,4.237,4.237,0,0,1-.089.462,3.925,3.925,0,0,1,2.107,2.616h.166a4.1,4.1,0,0,1,.811.083,2.72,2.72,0,0,0,.053-.539A2.652,2.652,0,0,0,393.507,216.64Z" transform="translate(-160.381 -88.402)" fill="#fff"/>
      <path id="パス_5003" data-name="パス 5003" d="M400.439,220.93h-.083v.107a3.865,3.865,0,0,1-.136,1.012,3.919,3.919,0,0,1,1.906,3.037c.2-.065.4-.124.592-.178a2.6,2.6,0,0,0,.367-1.332,2.658,2.658,0,0,0-2.646-2.646Z" transform="translate(-163.323 -90.152)" fill="#fff"/>
      <path id="パス_5004" data-name="パス 5004" d="M399.235,226.686a2.646,2.646,0,0,0-2.646-2.646h-.083a3.741,3.741,0,0,1-.3,1.184,3.924,3.924,0,0,1,2.149,2.232,6.462,6.462,0,0,1,.858-.556Z" transform="translate(-161.687 -91.421)" fill="#fff"/>
      <path id="パス_5005" data-name="パス 5005" d="M389.81,218.984a41.421,41.421,0,0,1,1.545,3.948,4.1,4.1,0,0,1,.722-.065h.26a2.683,2.683,0,0,0,.314-1.255,2.646,2.646,0,0,0-2.64-2.652Z" transform="translate(-159.075 -89.348)" fill="#fff"/>
      <path id="パス_5006" data-name="パス 5006" d="M387.719,222.051a2.852,2.852,0,0,0,.124-.852v-.266c-.231-.592-.462-1.1-.7-1.622l-.284-.29a4.586,4.586,0,0,1,.053.639,4.143,4.143,0,0,1-.468,1.924A4.061,4.061,0,0,1,387.719,222.051Z" transform="translate(-157.7 -89.373)" fill="#fff"/>
      <path id="パス_5007" data-name="パス 5007" d="M382.17,215.592c.053.917.083,1.776.089,2.6v.154a4.191,4.191,0,0,1,1.492.781,2.96,2.96,0,0,0-1.58-3.552Z" transform="translate(-155.957 -87.969)" fill="#fff"/>
      <path id="パス_5008" data-name="パス 5008" d="M382.2,222.53c-.03.841-.071,1.634-.142,2.4a4.215,4.215,0,0,1,1.835,1.065,2.92,2.92,0,0,0,.107-.752A2.96,2.96,0,0,0,382.2,222.53Z" transform="translate(-155.912 -90.805)" fill="#fff"/>
      <path id="パス_5009" data-name="パス 5009" d="M372.907,202.344a4.22,4.22,0,0,1-.74,1.918,4.019,4.019,0,0,0-.7,1.906,3.245,3.245,0,0,0,0,.533,4.562,4.562,0,0,0,.107.633,6.791,6.791,0,0,1,.142.994,6.037,6.037,0,0,1-.118,1.421A4.558,4.558,0,0,1,370.551,212a3.315,3.315,0,0,0-.8,1.717,3.924,3.924,0,0,0,.059,1.184,7.764,7.764,0,0,1,.124,1.551,4.432,4.432,0,0,1-.207,1.284,4.9,4.9,0,0,1-1.184,1.965,3.108,3.108,0,0,0-.876,1.527,4.309,4.309,0,0,0,0,1.48,6.7,6.7,0,0,1-.237,3.339c-.059.172-.124.343-.189.521a8.88,8.88,0,0,0-.592,2.486v.107a3.167,3.167,0,0,0,.882,1.9,7.1,7.1,0,0,0,1.385,1.089,3.53,3.53,0,0,1,1.551,2.676,7.846,7.846,0,0,0,.687,2.125,2.6,2.6,0,0,0,1.184,1.184,37.006,37.006,0,0,1-.314-5.02,15.437,15.437,0,0,0-3.552-4.4.639.639,0,0,1-.065-.9.627.627,0,0,1,.894-.071,16.753,16.753,0,0,1,2.835,3.1c.059-.858.148-1.693.26-2.522a15.847,15.847,0,0,0-3.066-3.5.639.639,0,1,1,.823-.977,17.046,17.046,0,0,1,2.5,2.64c.083-.533.166-1.065.249-1.61l.13-.781a15.461,15.461,0,0,0-3.1-3.439.639.639,0,0,1,.8-.989,16.9,16.9,0,0,1,2.587,2.658c.095-.592.2-1.113.284-1.646.041-.207.071-.4.107-.592a15.391,15.391,0,0,0-2.711-3.131.64.64,0,1,1,.846-.959,16.788,16.788,0,0,1,2.166,2.326c.13-.77.237-1.533.332-2.314a15.39,15.39,0,0,0-2.314-2.528.639.639,0,0,1,.841-.959,16.4,16.4,0,0,1,1.657,1.675c.071-.923.1-1.9.1-2.96a15.666,15.666,0,0,0-2.19-2.149.639.639,0,1,1,.8-.994,16.362,16.362,0,0,1,1.35,1.184c-.036-.781-.089-1.61-.166-2.492a16.426,16.426,0,0,0-1.711-1.687.639.639,0,1,1,.823-.977c.237.2.462.4.693.592-.249-2.409-.657-5.878-1.148-6.937a3.365,3.365,0,0,0-.178.746,10.317,10.317,0,0,0,0,1.551A15.593,15.593,0,0,1,372.907,202.344Z" transform="translate(-149.624 -80.705)" fill="#fff"/>
      <path id="パス_5010" data-name="パス 5010" d="M393.08,227.72c.243.811.474,1.657.681,2.539.474.367.935.746,1.385,1.119a6.924,6.924,0,0,1,.882-1.415,2.646,2.646,0,0,0-2.616-2.273Z" transform="translate(-160.409 -92.911)" fill="#fff"/>
      <path id="パス_5011" data-name="パス 5011" d="M387.07,225.93a3.886,3.886,0,0,1,.065.7,4.185,4.185,0,0,1-.515,1.995l.053.124a4.185,4.185,0,0,1,1.586,1.06,2.877,2.877,0,0,0-1.184-3.877Z" transform="translate(-157.773 -92.193)" fill="#fff"/>
      <path id="パス_5012" data-name="パス 5012" d="M391.545,231.81a4.257,4.257,0,0,1-.545,1.3,4.145,4.145,0,0,1,.906.373C391.805,232.893,391.681,232.343,391.545,231.81Z" transform="translate(-159.561 -94.592)" fill="#fff"/>
      <path id="パス_5013" data-name="パス 5013" d="M383.382,232.47a2.889,2.889,0,0,0,.142-.9,2.96,2.96,0,0,0-1.942-2.77c-.107.882-.237,1.728-.373,2.581A4.2,4.2,0,0,1,383.382,232.47Z" transform="translate(-155.566 -93.364)" fill="#fff"/>
      <path id="パス_5014" data-name="パス 5014" d="M386.674,236.337a4.06,4.06,0,0,1,1.089.651,2.9,2.9,0,0,0-.864-3.528,4.191,4.191,0,0,1-.539,2.054A4.3,4.3,0,0,1,386.674,236.337Z" transform="translate(-157.667 -95.265)" fill="#fff"/>
      <path id="パス_5015" data-name="パス 5015" d="M382.383,239.833a2.96,2.96,0,0,0-1.9-4.593c-.053.314-.112.627-.166.941-.124.687-.249,1.385-.367,2.119A4.144,4.144,0,0,1,382.383,239.833Z" transform="translate(-155.051 -95.992)" fill="#fff"/>
      <path id="パス_5016" data-name="パス 5016" d="M387.643,244.222a2.881,2.881,0,0,0,.16-.959,2.96,2.96,0,0,0-1.243-2.4,4.144,4.144,0,0,1-.77,2.024,4.256,4.256,0,0,1,1.853,1.338Z" transform="translate(-157.435 -98.285)" fill="#fff"/>
      <path id="パス_5017" data-name="パス 5017" d="M386.611,250.077a3.09,3.09,0,0,0,.154-.929,2.96,2.96,0,0,0-1.669-2.658,3.779,3.779,0,0,1,.036.521,4.274,4.274,0,0,1-.622,2.2A4.191,4.191,0,0,1,386.611,250.077Z" transform="translate(-156.912 -100.582)" fill="#fff"/>
      <path id="パス_5018" data-name="パス 5018" d="M379.164,243.319c-.112.693-.219,1.361-.314,2.024a4.2,4.2,0,0,1,2.439,1.184,2.906,2.906,0,0,0-1.995-4.037Z" transform="translate(-154.603 -98.95)" fill="#fff"/>
      <path id="パス_5019" data-name="パス 5019" d="M378.05,252.4c.178,0,.361-.036.545-.036a4.221,4.221,0,0,1,2.249.651,2.851,2.851,0,0,0,.071-.651,2.96,2.96,0,0,0-2.575-2.924C378.21,250.417,378.109,251.393,378.05,252.4Z" transform="translate(-154.276 -101.786)" fill="#fff"/>
      <path id="パス_5020" data-name="パス 5020" d="M385.3,257.036a3.961,3.961,0,0,1,1.3.5,2.889,2.889,0,0,0-1.811-4.173,4.143,4.143,0,0,1-.26,2.184A4.143,4.143,0,0,1,385.3,257.036Z" transform="translate(-156.916 -103.386)" fill="#fff"/>
      <path id="パス_5021" data-name="パス 5021" d="M392.694,259.384a3.549,3.549,0,0,1,.645-.2,2.636,2.636,0,0,0,.1-.746,2.847,2.847,0,0,0-2.847-2.853h-.272a4.143,4.143,0,0,1,.142,2.421A4.244,4.244,0,0,1,392.694,259.384Z" transform="translate(-159.283 -104.296)" fill="#fff"/>
      <path id="パス_5022" data-name="パス 5022" d="M397.689,256.3a2.675,2.675,0,0,0-1.569-.349,4.143,4.143,0,0,1,.959,2.551,3.836,3.836,0,0,1,1.681-1.012A2.74,2.74,0,0,0,397.689,256.3Z" transform="translate(-161.65 -104.44)" fill="#fff"/>
      <path id="パス_5023" data-name="パス 5023" d="M390.449,251.53a4.007,4.007,0,0,1,1.93.485l.107-.047v-.355h0a2.96,2.96,0,0,0-2.368-2.883l-.053.083a4.373,4.373,0,0,1,.2,1.249,4.143,4.143,0,0,1-.29,1.5A4.048,4.048,0,0,1,390.449,251.53Z" transform="translate(-159.14 -101.496)" fill="#fff"/>
      <path id="パス_5024" data-name="パス 5024" d="M392.914,246.143c-.03-.728-.065-1.438-.118-2.137a2.847,2.847,0,0,0-1.776-1.326,4,4,0,0,1,.219,1.326,4.049,4.049,0,0,1-.136,1.066,4.28,4.28,0,0,1,1.811,1.071Z" transform="translate(-159.569 -99.028)" fill="#fff"/>
      <path id="パス_5025" data-name="パス 5025" d="M392.451,239.41c-.083-.7-.184-1.379-.29-2.036a2.959,2.959,0,0,0-1.148-1.054,4.3,4.3,0,0,1,.041.592,4.216,4.216,0,0,1-.415,1.824,4.25,4.25,0,0,1,1.812.674Z" transform="translate(-159.413 -96.432)" fill="#fff"/>
      <path id="パス_5026" data-name="パス 5026" d="M395.193,236.765a4.261,4.261,0,0,1,.87-.432c-.367-.326-.734-.645-1.113-.953C395.039,235.83,395.116,236.292,395.193,236.765Z" transform="translate(-161.173 -96.049)" fill="#fff"/>
      <path id="パス_5027" data-name="パス 5027" d="M397.546,238.78a2.675,2.675,0,0,0-1.776.858v.136a4.143,4.143,0,0,1,2.238.734,4.285,4.285,0,0,1,.592-.681C398.274,239.5,397.9,239.129,397.546,238.78Z" transform="translate(-161.507 -97.436)" fill="#fff"/>
      <path id="パス_5028" data-name="パス 5028" d="M396,242.65q.13,1.373.2,2.841h.29a4.078,4.078,0,0,1,1.776-1.332A2.788,2.788,0,0,0,396,242.65Z" transform="translate(-161.601 -99.015)" fill="#fff"/>
      <path id="パス_5029" data-name="パス 5029" d="M401.637,242.11a3.1,3.1,0,0,0-.527.651,3.8,3.8,0,0,1,.521.906h.2a4.332,4.332,0,0,1,1.3.207C402.649,243.264,402.152,242.684,401.637,242.11Z" transform="translate(-163.686 -98.795)" fill="#fff"/>
      <path id="パス_5030" data-name="パス 5030" d="M399.28,247.551a3.984,3.984,0,0,1,1.776,1.5,4.042,4.042,0,0,1,.479-1.243,4.083,4.083,0,0,1,.551-.722,2.806,2.806,0,0,0-2.794.468Z" transform="translate(-162.939 -100.75)" fill="#fff"/>
      <path id="パス_5031" data-name="パス 5031" d="M396.548,249.58H396.4v2.486a2.053,2.053,0,0,0,2.474-1.148A2.687,2.687,0,0,0,396.548,249.58Z" transform="translate(-161.764 -101.843)" fill="#fff"/>
      <path id="パス_5032" data-name="パス 5032" d="M400,254.249a3.936,3.936,0,0,1,1.669,2.09h.154a4.215,4.215,0,0,1,1.557-1.219,4.143,4.143,0,0,1,.314-.947,2.675,2.675,0,0,0-1.918-.675A2.747,2.747,0,0,0,400,254.249Z" transform="translate(-163.233 -103.44)" fill="#fff"/>
      <path id="パス_5033" data-name="パス 5033" d="M404.677,248.825a2.746,2.746,0,0,0-.367,1.184,3.937,3.937,0,0,1,1.841.841,4.228,4.228,0,0,1,.989-.787c-.462-.752-.959-1.48-1.468-2.2a2.793,2.793,0,0,0-.995.965Z" transform="translate(-164.992 -101.141)" fill="#fff"/>
      <path id="パス_5034" data-name="パス 5034" d="M408.317,254.343a2.471,2.471,0,0,0-.207.391h.249a4.144,4.144,0,0,1,1.947.479c-.308-.592-.627-1.219-.965-1.823A2.853,2.853,0,0,0,408.317,254.343Z" transform="translate(-166.543 -103.398)" fill="#fff"/>
      <path id="パス_5035" data-name="パス 5035" d="M407.241,257.81a2.847,2.847,0,0,0-1.87.7,3.848,3.848,0,0,1,1.681,1.628,4.144,4.144,0,0,1,.758-1.284,3.86,3.86,0,0,1,.787-.7A2.859,2.859,0,0,0,407.241,257.81Z" transform="translate(-165.425 -105.202)" fill="#fff"/>
      <path id="パス_5036" data-name="パス 5036" d="M401.092,260.45a2.64,2.64,0,0,0-1.942.852l.32.124a4.019,4.019,0,0,1,1.681,1.421,3.871,3.871,0,0,1,2.232-1.048A2.628,2.628,0,0,0,401.092,260.45Z" transform="translate(-162.886 -106.279)" fill="#fff"/>
      <path id="パス_5037" data-name="パス 5037" d="M399.6,277.8a4.09,4.09,0,0,1,1.924-.764,2.64,2.64,0,0,0-2.255-1.3,2.594,2.594,0,0,0-1.018.213A3.918,3.918,0,0,1,399.6,277.8Z" transform="translate(-162.519 -112.514)" fill="#fff"/>
      <path id="パス_5038" data-name="パス 5038" d="M394.9,273.11l.107.03a3.836,3.836,0,0,1,2.078-.805,2.711,2.711,0,0,0-3.41-1.717,4.144,4.144,0,0,1,.355,1.669,4.342,4.342,0,0,1-.071.734A4.646,4.646,0,0,1,394.9,273.11Z" transform="translate(-160.65 -110.374)" fill="#fff"/>
      <path id="パス_5039" data-name="パス 5039" d="M386.339,264.6a4.144,4.144,0,0,1,1.219.184v-.225a2.877,2.877,0,0,0-1.906-2.7,4.208,4.208,0,0,1-.592,1.989,4.339,4.339,0,0,1,.361.852A3.933,3.933,0,0,1,386.339,264.6Z" transform="translate(-157.137 -106.854)" fill="#fff"/>
      <path id="パス_5040" data-name="パス 5040" d="M392.023,265.758a2.818,2.818,0,0,0,.2-1.065,2.96,2.96,0,0,0-2.5-2.912h0a4.143,4.143,0,0,1,1.042,2.729,3.9,3.9,0,0,1-.089.829,4.22,4.22,0,0,1,.687.592,3.828,3.828,0,0,1,.663-.172Z" transform="translate(-159.038 -106.822)" fill="#fff"/>
      <path id="パス_5041" data-name="パス 5041" d="M396.22,266.543a4.072,4.072,0,0,1,2.687-1.083,2.735,2.735,0,0,0-3.4-1.669,4.209,4.209,0,0,1,.231,2.67A4.042,4.042,0,0,1,396.22,266.543Z" transform="translate(-161.401 -107.59)" fill="#fff"/>
      <path id="パス_5042" data-name="パス 5042" d="M405.647,264.82a2.676,2.676,0,0,0-2.166,1.1l.047.231a4.031,4.031,0,0,1,2.107,1.634,4.06,4.06,0,0,1,1.971-.929,4.408,4.408,0,0,1,.326-.74A2.723,2.723,0,0,0,405.647,264.82Z" transform="translate(-164.653 -108.062)" fill="#fff"/>
      <path id="パス_5043" data-name="パス 5043" d="M410.665,260.4a2.77,2.77,0,0,0-.645,1.391,3.966,3.966,0,0,1,1.456,1.184,3.758,3.758,0,0,1,1.492-.8c-.314-.9-.657-1.776-1.03-2.64A2.812,2.812,0,0,0,410.665,260.4Z" transform="translate(-167.322 -105.908)" fill="#fff"/>
      <path id="パス_5044" data-name="パス 5044" d="M413.326,266.684a2.78,2.78,0,0,0-.556.7,3.948,3.948,0,0,1,2.409,1.48h.077c-.225-.941-.474-1.871-.764-2.788A2.622,2.622,0,0,0,413.326,266.684Z" transform="translate(-168.444 -108.576)" fill="#fff"/>
      <path id="パス_5045" data-name="パス 5045" d="M400.441,271.3a4,4,0,0,1,2.4-.965,2.77,2.77,0,0,0-3.919-1.089,3.972,3.972,0,0,1,1.521,2.054Z" transform="translate(-162.793 -109.699)" fill="#fff"/>
      <path id="パス_5046" data-name="パス 5046" d="M404.774,273.51a2.723,2.723,0,0,0-1.6.539,3.937,3.937,0,0,1,1.681,1.865,4,4,0,0,1,2.013-1.409,2.693,2.693,0,0,0-2.09-.994Z" transform="translate(-164.527 -111.608)" fill="#fff"/>
      <path id="パス_5047" data-name="パス 5047" d="M410.151,272.755a3.876,3.876,0,0,1,1.089-1.332,3.686,3.686,0,0,1,.693-.438,2.682,2.682,0,0,0-1.776-.675,2.723,2.723,0,0,0-1.977.87A3.966,3.966,0,0,1,410.151,272.755Z" transform="translate(-166.571 -110.303)" fill="#fff"/>
      <path id="パス_5048" data-name="パス 5048" d="M414.215,273.488a2.621,2.621,0,0,0-.675.793,2.256,2.256,0,0,0,2.747,1.06c-.124-.817-.266-1.622-.432-2.421a2.646,2.646,0,0,0-1.64.568Z" transform="translate(-168.758 -111.368)" fill="#fff"/>
      <path id="パス_5049" data-name="パス 5049" d="M411.793,277.693a2.8,2.8,0,0,0-1.776-.663,2.758,2.758,0,0,0-2.137,1,4.049,4.049,0,0,1,1.569,1.48,3.875,3.875,0,0,1,.864.107,3.978,3.978,0,0,1,1.48-1.924Z" transform="translate(-166.449 -113.045)" fill="#fff"/>
      <path id="パス_5050" data-name="パス 5050" d="M414.889,281.816a4.142,4.142,0,0,1,1.154-.166,4.208,4.208,0,0,1,.823.083c-.065-.864-.148-1.723-.249-2.563h-.13a2.693,2.693,0,0,0-2.557,1.835,3.866,3.866,0,0,1,.959.811Z" transform="translate(-168.918 -113.918)" fill="#fff"/>
      <path id="パス_5051" data-name="パス 5051" d="M416.552,285.652A2.8,2.8,0,0,0,413,287.339a4.072,4.072,0,0,1,1.409,1.1,3.9,3.9,0,0,1,.746-.077,3.937,3.937,0,0,1,1.421.266C416.617,287.617,416.6,286.629,416.552,285.652Z" transform="translate(-168.538 -116.499)" fill="#fff"/>
      <path id="パス_5052" data-name="パス 5052" d="M408.812,283.36a2.729,2.729,0,0,0-2.2,1.107,3.918,3.918,0,0,1,1.93,1.622h.166a4.579,4.579,0,0,1,.491.03,4.1,4.1,0,0,1,1.5-2.007A2.753,2.753,0,0,0,408.812,283.36Z" transform="translate(-165.93 -115.628)" fill="#fff"/>
      <path id="パス_5053" data-name="パス 5053" d="M402.862,286.9a2.664,2.664,0,0,0-1.912.805,3.883,3.883,0,0,1,1.58,1.776h.414a4.043,4.043,0,0,1,1.941-1.628A2.681,2.681,0,0,0,402.862,286.9Z" transform="translate(-163.621 -117.072)" fill="#fff"/>
      <path id="パス_5054" data-name="パス 5054" d="M403.266,280a2.83,2.83,0,0,0-1.936.77,4.007,4.007,0,0,1,1.876,1.865,4.007,4.007,0,0,1,2.131-1.717A2.812,2.812,0,0,0,403.266,280Z" transform="translate(-163.776 -114.257)" fill="#fff"/>
      <path id="パス_5055" data-name="パス 5055" d="M398.035,285.567a3.984,3.984,0,0,1,2.078-1.444,2.77,2.77,0,0,0-2.368-1.3,2.854,2.854,0,0,0-.835.124,4.031,4.031,0,0,1,1.048,2.61Z" transform="translate(-161.972 -115.407)" fill="#fff"/>
      <path id="パス_5056" data-name="パス 5056" d="M394,279.654a4.031,4.031,0,0,1,1.959-.515h.2a2.616,2.616,0,0,0-2.018-2.155,2.581,2.581,0,0,0-1.58.136,4.3,4.3,0,0,1,.592,2.137v.077A3.923,3.923,0,0,1,394,279.654Z" transform="translate(-160.197 -112.999)" fill="#fff"/>
      <path id="パス_5057" data-name="パス 5057" d="M392.356,286.126a3.776,3.776,0,0,1,1.45-.539,2.788,2.788,0,0,0-2.782-2.687,2.752,2.752,0,0,0-1.184.29,4.066,4.066,0,0,1,.675,2.078A3.941,3.941,0,0,1,392.356,286.126Z" transform="translate(-159.087 -115.44)" fill="#fff"/>
      <path id="パス_5058" data-name="パス 5058" d="M387.93,284.589a2.817,2.817,0,0,0-.479-.669l.089.148a3.84,3.84,0,0,0,.391.521Z" transform="translate(-158.112 -115.856)" fill="#fff"/>
      <path id="パス_5059" data-name="パス 5059" d="M362.623,255.68a2.818,2.818,0,0,0-2.752,2.812,2.959,2.959,0,0,0,.124.817,3.548,3.548,0,0,1,.651.26,3.8,3.8,0,0,1,2.249-1.273c-.059-.385-.107-.775-.148-1.184C362.688,256.586,362.646,256.118,362.623,255.68Z" transform="translate(-146.857 -104.332)" fill="#fff"/>
      <path id="パス_5060" data-name="パス 5060" d="M352.968,261.309a2.628,2.628,0,0,0-4.238.491,3.907,3.907,0,0,1,2.238,1.048,3.965,3.965,0,0,1,1.675-1.421Z" transform="translate(-142.312 -106.279)" fill="#fff"/>
      <path id="パス_5061" data-name="パス 5061" d="M340,262.176a4.038,4.038,0,0,1,1.5.77,3.96,3.96,0,0,1,1.45-1.184,2.818,2.818,0,0,0-.645-1.391,2.782,2.782,0,0,0-1.273-.841C340.675,260.4,340.326,261.294,340,262.176Z" transform="translate(-138.749 -105.904)" fill="#fff"/>
      <path id="パス_5062" data-name="パス 5062" d="M338.05,268.856h.083a3.948,3.948,0,0,1,2.4-1.48,2.522,2.522,0,0,0-.551-.7,2.723,2.723,0,0,0-1.184-.592C338.535,266.986,338.275,267.915,338.05,268.856Z" transform="translate(-137.953 -108.576)" fill="#fff"/>
      <path id="パス_5063" data-name="パス 5063" d="M344,266.11a3.981,3.981,0,0,1,.343.74,4.036,4.036,0,0,1,1.971.929,4.049,4.049,0,0,1,2.107-1.634l.047-.231a2.676,2.676,0,0,0-2.166-1.1A2.729,2.729,0,0,0,344,266.11Z" transform="translate(-140.381 -108.062)" fill="#fff"/>
      <path id="パス_5064" data-name="パス 5064" d="M355.23,263.9a2.717,2.717,0,0,0-1.45,1.557,4.049,4.049,0,0,1,2.681,1.083,4.1,4.1,0,0,1,.456-.083,3.832,3.832,0,0,1,.456-.041,4.58,4.58,0,0,1-.124-.592,3.52,3.52,0,0,1-.036-.5,3.943,3.943,0,0,1,.272-1.427A2.723,2.723,0,0,0,355.23,263.9Z" transform="translate(-144.372 -107.588)" fill="#fff"/>
      <path id="パス_5065" data-name="パス 5065" d="M363.861,262.22a2.581,2.581,0,0,0-2.131,2.534v.361a2.634,2.634,0,0,0,.379,1l.219.095a4.185,4.185,0,0,1,2.137-1.338c-.225-.77-.414-1.557-.592-2.4Z" transform="translate(-147.616 -107.001)" fill="#fff"/>
      <path id="パス_5066" data-name="パス 5066" d="M363.24,271.588a2.918,2.918,0,0,0,.231,1.125l.3.166a4.315,4.315,0,0,1,2.67-1.344c-.355-1-.675-1.9-.959-2.764A2.9,2.9,0,0,0,363.24,271.588Z" transform="translate(-148.233 -109.674)" fill="#fff"/>
      <path id="パス_5067" data-name="パス 5067" d="M357.871,270.5a2.71,2.71,0,0,0-.758.2,2.646,2.646,0,0,0-1.5,1.634,3.836,3.836,0,0,1,2.072.805l.112-.03a3.8,3.8,0,0,1,1.065-.077h.065a4.549,4.549,0,0,1-.071-.746,4.178,4.178,0,0,1,.32-1.61A2.659,2.659,0,0,0,357.871,270.5Z" transform="translate(-145.119 -110.372)" fill="#fff"/>
      <path id="パス_5068" data-name="パス 5068" d="M351.2,268.932a2.758,2.758,0,0,0-1.7,1.4,3.978,3.978,0,0,1,2.368.965,3.948,3.948,0,0,1,1.521-2.054A2.794,2.794,0,0,0,351.2,268.932Z" transform="translate(-142.626 -109.7)" fill="#fff"/>
      <path id="パス_5069" data-name="パス 5069" d="M347.613,275.912a3.936,3.936,0,0,1,1.681-1.865,2.675,2.675,0,0,0-3.694.456A4,4,0,0,1,347.613,275.912Z" transform="translate(-141.034 -111.608)" fill="#fff"/>
      <path id="パス_5070" data-name="パス 5070" d="M340.51,270.985a3.732,3.732,0,0,1,.7.438,3.925,3.925,0,0,1,1.083,1.332,3.912,3.912,0,0,1,1.971-1.575,2.711,2.711,0,0,0-1.977-.87A2.681,2.681,0,0,0,340.51,270.985Z" transform="translate(-138.957 -110.303)" fill="#fff"/>
      <path id="パス_5071" data-name="パス 5071" d="M336.85,275.327a4.005,4.005,0,0,1,.935.124,4.007,4.007,0,0,1,1.811-1.184,2.64,2.64,0,0,0-2.314-1.367C337.116,273.705,336.974,274.51,336.85,275.327Z" transform="translate(-137.464 -111.359)" fill="#fff"/>
      <path id="パス_5072" data-name="パス 5072" d="M336.393,279.162c-.107.841-.183,1.7-.243,2.563a4.089,4.089,0,0,1,1.971.083,4.059,4.059,0,0,1,.953-.823,2.681,2.681,0,0,0-2.545-1.835Z" transform="translate(-137.178 -113.91)" fill="#fff"/>
      <path id="パス_5073" data-name="パス 5073" d="M342.053,279.616a3.752,3.752,0,0,1,.864-.107,4,4,0,0,1,1.563-1.48,2.77,2.77,0,0,0-3.93-.337A3.978,3.978,0,0,1,342.053,279.616Z" transform="translate(-138.974 -113.044)" fill="#fff"/>
      <path id="パス_5074" data-name="パス 5074" d="M349.061,282.673a3.984,3.984,0,0,1,1.876-1.865,2.806,2.806,0,0,0-4.007.148A3.984,3.984,0,0,1,349.061,282.673Z" transform="translate(-141.577 -114.272)" fill="#fff"/>
      <path id="パス_5075" data-name="パス 5075" d="M353.509,275.73a2.622,2.622,0,0,0-2.249,1.3,4.143,4.143,0,0,1,1.918.764,3.918,3.918,0,0,1,1.35-1.853A2.569,2.569,0,0,0,353.509,275.73Z" transform="translate(-143.344 -112.514)" fill="#fff"/>
      <path id="パス_5076" data-name="パス 5076" d="M358.379,276.955a2.634,2.634,0,0,0-2.018,2.155h.2a4.073,4.073,0,0,1,1.965.515,4.014,4.014,0,0,1,1.237-.414v-.041a4.356,4.356,0,0,1,.468-1.953,2.575,2.575,0,0,0-1.1-.32A2.462,2.462,0,0,0,358.379,276.955Z" transform="translate(-145.425 -112.987)" fill="#fff"/>
      <path id="パス_5077" data-name="パス 5077" d="M364.627,277.174a3.06,3.06,0,0,0-.367,1.462v.041a4.038,4.038,0,0,1,1.58.592,4.037,4.037,0,0,1,2.2-.9h.219c-.349-1.054-.675-1.983-.971-2.829A3.1,3.1,0,0,0,364.627,277.174Z" transform="translate(-148.649 -112.437)" fill="#fff"/>
      <path id="パス_5078" data-name="パス 5078" d="M369.382,282.46H369.1a2.823,2.823,0,0,0-2.533,2.628,3.966,3.966,0,0,1,1.557.669,4.043,4.043,0,0,1,2.19-1.077c-.243-.793-.474-1.527-.693-2.22Z" transform="translate(-149.592 -115.261)" fill="#fff"/>
      <path id="パス_5079" data-name="パス 5079" d="M358.49,285.587a3.776,3.776,0,0,1,1.45.539,3.954,3.954,0,0,1,1.805-.846l.255-.041a4.066,4.066,0,0,1,.633-1.971,2.746,2.746,0,0,0-1.361-.367,2.788,2.788,0,0,0-2.782,2.687Z" transform="translate(-146.294 -115.44)" fill="#fff"/>
      <path id="パス_5080" data-name="パス 5080" d="M352.71,284.11a3.96,3.96,0,0,1,2.078,1.444h.065a4.09,4.09,0,0,1,1.042-2.61,2.782,2.782,0,0,0-.829-.124,2.746,2.746,0,0,0-2.356,1.29Z" transform="translate(-143.936 -115.407)" fill="#fff"/>
      <path id="パス_5081" data-name="パス 5081" d="M349.376,289.441h.414a3.919,3.919,0,0,1,1.58-1.776,2.664,2.664,0,0,0-3.93.124,4.061,4.061,0,0,1,1.936,1.651Z" transform="translate(-141.785 -117.056)" fill="#fff"/>
      <path id="パス_5082" data-name="パス 5082" d="M343.024,286.1a4.486,4.486,0,0,1,.491-.03h.16a3.919,3.919,0,0,1,1.93-1.622,2.729,2.729,0,0,0-2.2-1.107,2.764,2.764,0,0,0-1.882.74A4.185,4.185,0,0,1,343.024,286.1Z" transform="translate(-139.369 -115.62)" fill="#fff"/>
      <path id="パス_5083" data-name="パス 5083" d="M338.11,288.44a4.019,4.019,0,0,1,1.409-1.1,2.806,2.806,0,0,0-2.64-1.835,2.857,2.857,0,0,0-.894.148c-.041.977-.059,1.965-.047,2.96a3.96,3.96,0,0,1,1.421-.266A4,4,0,0,1,338.11,288.44Z" transform="translate(-137.09 -116.505)" fill="#fff"/>
      <path id="パス_5084" data-name="パス 5084" d="M343.437,292.814l.391.047a3.99,3.99,0,0,1,1.912-1.776,2.758,2.758,0,0,0-3.96-.29,3.877,3.877,0,0,1,1.657,2.018Z" transform="translate(-139.475 -118.375)" fill="#fff"/>
      <path id="パス_5085" data-name="パス 5085" d="M336.651,297.139a4.144,4.144,0,0,1,3.084-3.244A2.646,2.646,0,0,0,336,292.877a32.877,32.877,0,0,0,.479,4.368Z" transform="translate(-137.117 -119.349)" fill="#fff"/>
      <path id="パス_5086" data-name="パス 5086" d="M338,304.825a3.93,3.93,0,0,1,2.06-.929,4.734,4.734,0,0,1,.107-.5,4.143,4.143,0,0,1,.675-1.332,2.717,2.717,0,0,0-1.6-.521,2.764,2.764,0,0,0-1.942.8c.1.432.213.858.331,1.267S337.868,304.429,338,304.825Z" transform="translate(-137.647 -123.047)" fill="#fff"/>
      <path id="パス_5087" data-name="パス 5087" d="M371.761,288.31a2.824,2.824,0,0,0-2.551,2.723,3.948,3.948,0,0,1,1.225.764,4.037,4.037,0,0,1,2.03-.621c-.172-.87-.367-1.717-.592-2.522Z" transform="translate(-150.669 -117.648)" fill="#fff"/>
      <path id="パス_5088" data-name="パス 5088" d="M360.64,291.677a2.567,2.567,0,0,0,.047.474c.142.071.278.148.414.231a4.1,4.1,0,0,1,3.084-1.4h.266a4.067,4.067,0,0,1,.474-1.575,2.7,2.7,0,0,0-1.551-.479,2.844,2.844,0,0,0-.55.053A2.741,2.741,0,0,0,360.64,291.677Z" transform="translate(-147.172 -117.901)" fill="#fff"/>
      <path id="パス_5089" data-name="パス 5089" d="M355.883,289.5a2.646,2.646,0,0,0-2.273,1.29,3.972,3.972,0,0,1,1.717,1.29,3.935,3.935,0,0,1,.8-.083h.379v-.107a4,4,0,0,1,.592-2.107,2.687,2.687,0,0,0-1.213-.284Z" transform="translate(-144.303 -118.133)" fill="#fff"/>
      <path id="パス_5090" data-name="パス 5090" d="M347.32,294.62a4.1,4.1,0,0,1,2.054,2.6l.26.083a3.942,3.942,0,0,1,1.87-3.143,2.682,2.682,0,0,0-4.185.462Z" transform="translate(-141.736 -119.708)" fill="#fff"/>
      <path id="パス_5091" data-name="パス 5091" d="M339.66,298.383a4.148,4.148,0,0,1,.545-.041,4.06,4.06,0,0,1,2.533.9,4.144,4.144,0,0,1,2.107-.752,2.907,2.907,0,0,0-2.616-1.669A2.871,2.871,0,0,0,339.66,298.383Z" transform="translate(-138.61 -121.12)" fill="#fff"/>
      <path id="パス_5092" data-name="パス 5092" d="M347.55,303.777l.047-.231a3.9,3.9,0,0,1,.669-1.456,2.883,2.883,0,0,0-4.067,1.693l-.059.243a3.918,3.918,0,0,1,1.356.527,4.143,4.143,0,0,1,2.054-.775Z" transform="translate(-140.439 -123.141)" fill="#fff"/>
      <path id="パス_5093" data-name="パス 5093" d="M355.679,303.145l.036-.237a3.947,3.947,0,0,1,.349-1.065,2.842,2.842,0,0,0-1.213-.272,2.877,2.877,0,0,0-2.8,2.22,4,4,0,0,1,1.379.592A4.008,4.008,0,0,1,355.679,303.145Z" transform="translate(-143.666 -123.059)" fill="#fff"/>
      <path id="パス_5094" data-name="パス 5094" d="M356.032,295.87a2.658,2.658,0,0,0-2.652,2.622,4.143,4.143,0,0,1,3.753-.142,3.275,3.275,0,0,1-.03-.42,4.143,4.143,0,0,1,.343-1.646A2.634,2.634,0,0,0,356.032,295.87Z" transform="translate(-144.209 -120.733)" fill="#fff"/>
      <path id="パス_5095" data-name="パス 5095" d="M364.675,294.55a2.841,2.841,0,0,0-2.835,2.64,4.007,4.007,0,0,1,1.723-.432,2.464,2.464,0,0,1,.515.03,3.92,3.92,0,0,1,1.486.456,4.1,4.1,0,0,1,.894-2.06A2.836,2.836,0,0,0,364.675,294.55Z" transform="translate(-147.661 -120.194)" fill="#fff"/>
      <path id="パス_5096" data-name="パス 5096" d="M370.25,298.5a4.143,4.143,0,0,1,3.262-.006c-.1-1.065-.231-2.149-.4-3.208H373a2.794,2.794,0,0,0-2.782,2.788A3.347,3.347,0,0,0,370.25,298.5Z" transform="translate(-151.081 -120.496)" fill="#fff"/>
      <path id="パス_5097" data-name="パス 5097" d="M363.349,300.454a1.847,1.847,0,0,0-.361,0,2.735,2.735,0,0,0-2.628,2.214,4.031,4.031,0,0,1,2.812,1.776h.568v-.036a4.144,4.144,0,0,1,1.35-3.054,2.705,2.705,0,0,0-1.74-.9Z" transform="translate(-147.057 -122.6)" fill="#fff"/>
      <path id="パス_5098" data-name="パス 5098" d="M339.29,308.628a25.176,25.176,0,0,0,1.148,2.575,3.972,3.972,0,0,1,1.427-1.213,4.031,4.031,0,0,1,.722-2.1,2.534,2.534,0,0,0-1.107-.278,2.729,2.729,0,0,0-2.19,1.018Z" transform="translate(-138.459 -125.523)" fill="#fff"/>
      <path id="パス_5099" data-name="パス 5099" d="M346.675,314.258a3.886,3.886,0,0,1,.112-.4,2.611,2.611,0,0,0-1.876-.781,2.646,2.646,0,0,0-2.451,1.675,16.992,16.992,0,0,0,.929,1.486,3.942,3.942,0,0,1,3.285-1.983Z" transform="translate(-139.753 -127.756)" fill="#fff"/>
      <path id="パス_5100" data-name="パス 5100" d="M348.812,310.334a4.049,4.049,0,0,1,1.048-.935,3.96,3.96,0,0,1,.361-1.61,2.782,2.782,0,0,0-4.321,1.675h.414A3.9,3.9,0,0,1,348.812,310.334Z" transform="translate(-141.157 -125.389)" fill="#fff"/>
      <path id="パス_5101" data-name="パス 5101" d="M357.511,308.924a4.055,4.055,0,0,1,2.019-1.829,2.776,2.776,0,0,0-4.7,1.367,4.214,4.214,0,0,1,.728-.065A3.942,3.942,0,0,1,357.511,308.924Z" transform="translate(-144.801 -124.973)" fill="#fff"/>
      <path id="パス_5102" data-name="パス 5102" d="M357.2,319.368a4.345,4.345,0,0,1,.858-.681,4.082,4.082,0,0,1,.184-1.184,2.788,2.788,0,0,0-4.493,1.557,3.966,3.966,0,0,1,1.267-.231,4.309,4.309,0,0,1,2.184.539Z" transform="translate(-144.36 -129.302)" fill="#fff"/>
      <path id="パス_5103" data-name="パス 5103" d="M355.643,313.591h.166a3.746,3.746,0,0,1-.03-.45,4.254,4.254,0,0,1,.053-.622,2.593,2.593,0,0,0-1.539-.509,2.669,2.669,0,0,0-2.563,1.959,3.862,3.862,0,0,1,1.249.622,4.054,4.054,0,0,1,2.664-1Z" transform="translate(-143.536 -127.319)" fill="#fff"/>
      <path id="パス_5104" data-name="パス 5104" d="M364.773,311.446h.207a4.019,4.019,0,0,1,.355-1.361,2.753,2.753,0,0,0-1.61-.734h-.26a2.735,2.735,0,0,0-2.735,2.735,2.875,2.875,0,0,0,.112.746,4.029,4.029,0,0,1,.817.438A4.208,4.208,0,0,1,364.773,311.446Z" transform="translate(-147.208 -126.234)" fill="#fff"/>
      <path id="パス_5105" data-name="パス 5105" d="M372.093,304.806a3.922,3.922,0,0,1,.835.089c0-.651-.065-1.314-.113-1.995a2.859,2.859,0,0,0-4.605,2.267,3.068,3.068,0,0,0,.03.4,3.723,3.723,0,0,1,.858.55A4.067,4.067,0,0,1,372.093,304.806Z" transform="translate(-150.261 -123.358)" fill="#fff"/>
      <path id="パス_5106" data-name="パス 5106" d="M396.162,291.921v.107h.379a3.937,3.937,0,0,1,.8.083,4.007,4.007,0,0,1,1.717-1.29,2.634,2.634,0,0,0-2.273-1.29,2.683,2.683,0,0,0-1.184.3,4.007,4.007,0,0,1,.562,2.09Z" transform="translate(-161.438 -118.146)" fill="#fff"/>
      <path id="パス_5107" data-name="パス 5107" d="M392.43,289.91a8.289,8.289,0,0,1-.26,2.131,4.081,4.081,0,0,1,.852.74,4.775,4.775,0,0,1,.42-.231,3.214,3.214,0,0,0,.047-.474,2.753,2.753,0,0,0-1.06-2.166Z" transform="translate(-160.038 -118.301)" fill="#fff"/>
      <path id="パス_5108" data-name="パス 5108" d="M391.231,295.75c-.136.485-.3.989-.491,1.515a3.9,3.9,0,0,1,1.444.408A2.818,2.818,0,0,0,391.231,295.75Z" transform="translate(-159.455 -120.684)" fill="#fff"/>
      <path id="パス_5109" data-name="パス 5109" d="M395.119,297.931a3.274,3.274,0,0,1-.03.42,4.144,4.144,0,0,1,3.753.142,2.652,2.652,0,0,0-4.073-2.208A4.1,4.1,0,0,1,395.119,297.931Z" transform="translate(-161.099 -120.734)" fill="#fff"/>
      <path id="パス_5110" data-name="パス 5110" d="M400.63,294.159A3.912,3.912,0,0,1,402.5,297.3l.266-.083a4.143,4.143,0,0,1,2.048-2.6,2.687,2.687,0,0,0-2.273-1.261,2.723,2.723,0,0,0-1.912.8Z" transform="translate(-163.49 -119.709)" fill="#fff"/>
      <path id="パス_5111" data-name="パス 5111" d="M408.685,290.1a2.806,2.806,0,0,0-2.125.994,3.966,3.966,0,0,1,1.912,1.776l.391-.047a3.877,3.877,0,0,1,1.657-2.013A2.77,2.77,0,0,0,408.685,290.1Z" transform="translate(-165.91 -118.378)" fill="#fff"/>
      <path id="パス_5112" data-name="パス 5112" d="M415.963,297.245a31.036,31.036,0,0,0,.474-4.368,2.616,2.616,0,0,0-1.379-.4,2.652,2.652,0,0,0-2.368,1.415,4.144,4.144,0,0,1,3.078,3.244Z" transform="translate(-168.412 -119.349)" fill="#fff"/>
      <path id="パス_5113" data-name="パス 5113" d="M411.8,298.383a2.871,2.871,0,0,0-2.569-1.563,2.912,2.912,0,0,0-2.616,1.669,4.185,4.185,0,0,1,2.107.746,3.984,3.984,0,0,1,2.533-.894A4.149,4.149,0,0,1,411.8,298.383Z" transform="translate(-165.93 -121.12)" fill="#fff"/>
      <path id="パス_5114" data-name="パス 5114" d="M415.286,302.339a2.758,2.758,0,0,0-1.942-.8,2.681,2.681,0,0,0-1.6.509,4.019,4.019,0,0,1,.74,1.592l.047.255a3.913,3.913,0,0,1,2.06.929c.13-.4.255-.8.373-1.219S415.179,302.771,415.286,302.339Z" transform="translate(-168.024 -123.046)" fill="#fff"/>
      <path id="パス_5115" data-name="パス 5115" d="M405.232,301.77h-.047a2.859,2.859,0,0,0-1.255.32,4.185,4.185,0,0,1,.663,1.456l.047.231a4.073,4.073,0,0,1,2.054.781,3.817,3.817,0,0,1,1.355-.533A2.877,2.877,0,0,0,405.232,301.77Z" transform="translate(-164.837 -123.14)" fill="#fff"/>
      <path id="パス_5116" data-name="パス 5116" d="M400.254,303.79a2.859,2.859,0,0,0-2.8-2.22,2.77,2.77,0,0,0-1.184.272,4.142,4.142,0,0,1,.343,1.065l.035.237a4.025,4.025,0,0,1,2.249,1.249A4.072,4.072,0,0,1,400.254,303.79Z" transform="translate(-161.711 -123.059)" fill="#fff"/>
      <path id="パス_5117" data-name="パス 5117" d="M389.368,300.43c-.278.7-.592,1.427-.918,2.161a4.043,4.043,0,0,1,.4,1.728v.112h.515a4.043,4.043,0,0,1,2.812-1.776,2.769,2.769,0,0,0-.71-1.373,2.729,2.729,0,0,0-1.918-.841Z" transform="translate(-158.52 -122.594)" fill="#fff"/>
      <path id="パス_5118" data-name="パス 5118" d="M397.935,312a2.628,2.628,0,0,0-1.545.509,3.548,3.548,0,0,1,.053.622,3.757,3.757,0,0,1,0,.45h.166a4.043,4.043,0,0,1,2.664,1.006,3.859,3.859,0,0,1,1.249-.622A2.658,2.658,0,0,0,397.935,312Z" transform="translate(-161.76 -127.315)" fill="#fff"/>
      <path id="パス_5119" data-name="パス 5119" d="M394.279,308.923a3.93,3.93,0,0,1,1.959-.527,4.077,4.077,0,0,1,.716.065,2.77,2.77,0,0,0-4.694-1.367,4.031,4.031,0,0,1,2.019,1.829Z" transform="translate(-160.075 -124.972)" fill="#fff"/>
      <path id="パス_5120" data-name="パス 5120" d="M403.243,310.318a3.9,3.9,0,0,1,2.5-.894h.414a2.788,2.788,0,0,0-2.717-2.184,2.758,2.758,0,0,0-1.6.509,3.861,3.861,0,0,1,.355,1.61,3.954,3.954,0,0,1,1.048.959Z" transform="translate(-163.984 -125.372)" fill="#fff"/>
      <path id="パス_5121" data-name="パス 5121" d="M412.315,311.2a26.561,26.561,0,0,0,1.154-2.575,2.729,2.729,0,0,0-2.2-1.018,2.58,2.58,0,0,0-1.113.278,3.989,3.989,0,0,1,.728,2.1A3.924,3.924,0,0,1,412.315,311.2Z" transform="translate(-167.379 -125.523)" fill="#fff"/>
      <path id="パス_5122" data-name="パス 5122" d="M408.654,316.241c.32-.474.627-.971.929-1.486a2.652,2.652,0,0,0-2.457-1.675,2.6,2.6,0,0,0-1.876.781,2.8,2.8,0,0,1,.112.4A3.954,3.954,0,0,1,408.654,316.241Z" transform="translate(-165.376 -127.756)" fill="#fff"/>
      <path id="パス_5123" data-name="パス 5123" d="M403.388,320.221a4.1,4.1,0,0,1,.941,1.586,26.353,26.353,0,0,0,2.314-2.676,2.693,2.693,0,0,0-4.144-1.444,4.02,4.02,0,0,1,.592,2.078v.172Z" transform="translate(-164.253 -129.434)" fill="#fff"/>
      <path id="パス_5124" data-name="パス 5124" d="M394.732,319.352a4.233,4.233,0,0,1,2.184-.562,4,4,0,0,1,1.273.231,2.794,2.794,0,0,0-2.723-2.19,2.758,2.758,0,0,0-1.776.633,4.508,4.508,0,0,1,.184,1.184,4.144,4.144,0,0,1,.858.7Z" transform="translate(-160.658 -129.286)" fill="#fff"/>
      <path id="パス_5125" data-name="パス 5125" d="M386.5,307.678l.2-.1a2.5,2.5,0,0,0,.035-.367C386.66,307.346,386.583,307.5,386.5,307.678Z" transform="translate(-157.724 -125.36)" fill="#fff"/>
      <path id="パス_5126" data-name="パス 5126" d="M383.359,312.231c-.166.266-.337.521-.509.775a4.514,4.514,0,0,1,1.261-.592,3.1,3.1,0,0,0-.077-.515,2.574,2.574,0,0,0-.178-.479Q383.62,311.84,383.359,312.231Z" transform="translate(-156.235 -127.078)" fill="#fff"/>
      <path id="パス_5127" data-name="パス 5127" d="M414.244,313a28.964,28.964,0,0,1-3.374,5.564A8.18,8.18,0,0,0,414.244,313Z" transform="translate(-167.669 -127.723)" fill="#fff"/>
      <path id="パス_5128" data-name="パス 5128" d="M386.879,311.393h.207a4.232,4.232,0,0,1,3.119,1.776,3.984,3.984,0,0,1,.811-.438,2.65,2.65,0,0,0,.118-.746,2.741,2.741,0,0,0-2.741-2.735h-.26a2.722,2.722,0,0,0-1.6.734,4.028,4.028,0,0,1,.349,1.361Z" transform="translate(-157.737 -126.193)" fill="#fff"/>
      <path id="パス_5129" data-name="パス 5129" d="M387.175,271.712A4.381,4.381,0,0,1,389,272.718l.343-.16a2.885,2.885,0,0,0-3.451-3.818,4.349,4.349,0,0,1-.1.835A4.2,4.2,0,0,1,387.175,271.712Z" transform="translate(-157.435 -109.621)" fill="#fff"/>
      <path id="パス_5130" data-name="パス 5130" d="M388.058,278.72a3.048,3.048,0,0,0-3.043-2.96,3,3,0,0,0-1.805.592,4.464,4.464,0,0,1,1.125.971,3.344,3.344,0,0,1,.746,1.373,4.087,4.087,0,0,1,1.125.622A4.144,4.144,0,0,1,388.058,278.72Z" transform="translate(-156.382 -112.526)" fill="#fff"/>
      <path id="パス_5131" data-name="パス 5131" d="M380.873,273.2l.148.225a4.333,4.333,0,0,1,2.462-.983,2.96,2.96,0,0,0-2.67-1.687,3.19,3.19,0,0,0-.633.065c.035.2.059.379.083.556a3.759,3.759,0,0,0,.61,1.823Z" transform="translate(-155.145 -110.486)" fill="#fff"/>
      <path id="パス_5132" data-name="パス 5132" d="M381.5,266.865v-.225a2.96,2.96,0,0,0-2.96-2.96l-.343.03c.077.775.178,1.592.314,2.456l.219.3.172.26a4.287,4.287,0,0,1,1.071-.136A4.2,4.2,0,0,1,381.5,266.865Z" transform="translate(-154.337 -107.597)" fill="#fff"/>
      <path id="パス_5133" data-name="パス 5133" d="M378.018,259.529a3.737,3.737,0,0,1,.45-.036,4.244,4.244,0,0,1,2.812,1.077,2.9,2.9,0,0,0,.219-1.1,2.96,2.96,0,0,0-2.96-2.96,2.541,2.541,0,0,0-.592.071C377.93,257.516,377.977,258.493,378.018,259.529Z" transform="translate(-154.233 -104.671)" fill="#fff"/>
      <path id="パス_5134" data-name="パス 5134" d="M371.8,262.814a3.984,3.984,0,0,1-1.515-1.356,3.872,3.872,0,0,1-.225-.385,9.116,9.116,0,0,1-.8-2.439c-.213-.983-.337-1.468-.977-1.859a8.157,8.157,0,0,1-1.628-1.3c0,.426.065.894.118,1.4.107.965.237,1.811.391,2.6.207-.32.408-.639.592-.965a.639.639,0,1,1,1.1.657c-.414.681-.852,1.356-1.308,2.007.178.669.379,1.326.592,2.007.314-.5.592-1.012.9-1.533a.633.633,0,0,1,.864-.254l.2.172a.639.639,0,0,1,.053.693c-.456.841-.965,1.663-1.486,2.462.107.32.225.645.343.983l.391,1.1c.367-.592.722-1.142,1.048-1.728a.637.637,0,0,1,1.113.622c-.5.888-1.048,1.776-1.634,2.616.243.7.5,1.45.764,2.279.5-.858.965-1.746,1.379-2.646a.639.639,0,0,1,1.154.539,33.779,33.779,0,0,1-2.018,3.723c.26.829.527,1.728.811,2.7l.041.16a32.884,32.884,0,0,0,1.859-3.919.651.651,0,0,1,.835-.355.639.639,0,0,1,.355.829,34.51,34.51,0,0,1-2.6,5.209c.213.994.391,2.024.545,3.054a32.805,32.805,0,0,0,2.829-6.079.645.645,0,0,1,.811-.4l.183.095a.645.645,0,0,1,.207.716,33.739,33.739,0,0,1-3.794,7.7c.112,1.125.189,2.226.243,3.291a32.918,32.918,0,0,0,4.41-9.051.635.635,0,0,1,1.213.373,33.853,33.853,0,0,1-5.552,10.738c.036,1.681,0,3.179,0,4.339a22.871,22.871,0,0,0,2.036-2.752c3.333-5.233,5.487-12.176,5.091-13.105a1.58,1.58,0,0,0-.894-.876,4.41,4.41,0,0,1-1.734-1.509l-.124-.2a5.25,5.25,0,0,1-.787-1.995,2.367,2.367,0,0,0-.592-1.273,3.552,3.552,0,0,0-.912-.775,3.942,3.942,0,0,1-1.427-1.438,5.09,5.09,0,0,1-.793-2.368,2.959,2.959,0,0,0-.479-1.456,3.131,3.131,0,0,0-1.184-1.042Z" transform="translate(-149.628 -104.251)" fill="#fff"/>
      <path id="パス_5135" data-name="パス 5135" d="M291.018,240.989l-.089-.361a4.883,4.883,0,0,0-2-2.924,1.977,1.977,0,0,1-.189-2.752,2.96,2.96,0,0,0,.3-.462,51.782,51.782,0,0,0-10.146,3.025l-.645.278a6.665,6.665,0,0,1,5.434,6.547v.2a53.105,53.105,0,0,1,7.334-3.546Z" transform="translate(-113.551 -95.686)" fill="#fff"/>
      <path id="パス_5136" data-name="パス 5136" d="M297.371,252.894a41.555,41.555,0,0,0-.479-5.274,51.627,51.627,0,0,0-4.872,2.22,1.183,1.183,0,0,1,.379.041A7.31,7.31,0,0,1,297.371,252.894Z" transform="translate(-119.17 -101.044)" fill="#fff"/>
      <path id="パス_5137" data-name="パス 5137" d="M308.855,240.413c.118-.249.237-.5.361-.746s.255-.515.385-.764a31.678,31.678,0,0,0,1.6-9.311,4.87,4.87,0,0,0-.923-3.256,1.563,1.563,0,0,0-1.184-.556,34.171,34.171,0,0,0-10.607,7.825,5.825,5.825,0,0,1,1.93,3.161c.142.545.266,1.125.367,1.74,1.184,6.949.2,18.533-.722,26.317C301.7,259.3,305.167,248.214,308.855,240.413Z" transform="translate(-121.81 -92.131)" fill="#fff"/>
      <path id="パス_5138" data-name="パス 5138" d="M234.024,236.476a7.786,7.786,0,0,0,.959.852,12.792,12.792,0,0,1,3.646,3.889,12.07,12.07,0,0,1,1.462,4.428,13.426,13.426,0,0,1-.7,5.7c-1.255,3.984-.864,8.95.237,11.448a18.029,18.029,0,0,0,6.748,8.246c.331.207.835.474,1.415.775a38.636,38.636,0,0,1,5.387,3.256,32.775,32.775,0,0,1,5.76,5.57,30.783,30.783,0,0,1,2.752,4.422c.74,1.356,1.427,2.634,1.953,2.634,1.089,0,1.941-1.184,3.445-3.877a79.923,79.923,0,0,0,4.1-10.986,218.75,218.75,0,0,0,2.279-23.293,50.22,50.22,0,0,0-14.976,21.529.633.633,0,0,1-.592.426l-.219-.035a.633.633,0,0,1-.385-.811,51.5,51.5,0,0,1,16.237-22.807v-.166a6.014,6.014,0,0,0-5.144-5.286,6.625,6.625,0,0,0-.846-.059,6.055,6.055,0,0,0-2.616.592A51.918,51.918,0,0,0,248.556,259a.639.639,0,0,1-.539.3l-.337-.1a.633.633,0,0,1-.2-.882,53.214,53.214,0,0,1,16.574-16.355,6.12,6.12,0,0,0,.1-.87v-.154a5.393,5.393,0,0,0-7.476-4.966,51.243,51.243,0,0,0-11.939,8.6.636.636,0,1,1-.9-.9,52.546,52.546,0,0,1,11.306-8.323,5.511,5.511,0,0,0,1.391-3.4v-.249a5.5,5.5,0,0,0-5.493-5.493,5.789,5.789,0,0,0-.965.089,50.21,50.21,0,0,0-15.982,7.583,1.7,1.7,0,0,0-.592,1.184,1.983,1.983,0,0,0,.515,1.421Z" transform="translate(-95.293 -92.303)" fill="#fff"/>
      <path id="パス_5139" data-name="パス 5139" d="M310,323.318a26.287,26.287,0,0,1-6.138-.722l-.284-.154a.633.633,0,0,1,.592-1.083,25.456,25.456,0,0,0,5.842.681,25.06,25.06,0,0,0,11.765-2.932c-.1-.241-.187-.49-.276-.738a26.394,26.394,0,0,1-18.942.5.639.639,0,0,1,.426-1.184,25.157,25.157,0,0,0,18.107-.5c-.065-.219-.136-.432-.207-.651a22.937,22.937,0,0,1-19.155-1.7.635.635,0,0,1,.633-1.1,21.736,21.736,0,0,0,10.767,2.877,21.47,21.47,0,0,0,7.37-1.3c-.065-.207-.118-.42-.172-.627a19.022,19.022,0,0,1-4.812.592,18.74,18.74,0,0,1-11.655-4,.633.633,0,0,1-.107-.894.686.686,0,0,1,.45-.243.651.651,0,0,1,.444.136,17.456,17.456,0,0,0,10.856,3.735,17.639,17.639,0,0,0,4.5-.592v-.107c-.047-.2-.089-.385-.13-.592a14.852,14.852,0,0,1-2.054.142,15.053,15.053,0,0,1-9.382-3.244.633.633,0,0,1-.107-.894l.231-.184a.633.633,0,0,1,.663.077,14,14,0,0,0,10.436,2.847l-.03-.172h0a15.853,15.853,0,0,1-4.954-1.066,14.519,14.519,0,0,1-3.848-2.415,7.026,7.026,0,0,0-.592-.485l-.219.237a2.332,2.332,0,0,1-1.829.929,2.847,2.847,0,0,1-2.024-.639l-.172-.124-.136.29a2.261,2.261,0,0,1-3.765.846l-.142-.124a6.4,6.4,0,0,0-.237.977,6.961,6.961,0,0,1-.7,2.249,7.855,7.855,0,0,1-1.119,1.474,2.231,2.231,0,0,0-.485.639,1.413,1.413,0,0,0-.083.373,10.063,10.063,0,0,0,3.475,8.175l.284.231c2.96,2.32,5.919,2.445,10.773,1.853,3.6-.438,7.1-2.48,8.784-3.457h.03c-.2-.432-.331-.758-.4-.923A26.282,26.282,0,0,1,310,323.318Z" transform="translate(-122.142 -125.409)" fill="#fff"/>
      <path id="パス_5140" data-name="パス 5140" d="M341.929,318.563a28.508,28.508,0,0,1-3.469-5.653A8.186,8.186,0,0,0,341.929,318.563Z" transform="translate(-138.121 -127.686)" fill="#fff"/>
      <path id="パス_5141" data-name="パス 5141" d="M348.065,317.21a2.687,2.687,0,0,0-2.575,1.93,27.12,27.12,0,0,0,2.315,2.681,4.1,4.1,0,0,1,.941-1.586l.3-.284v-.172a4.019,4.019,0,0,1,.592-2.078A2.7,2.7,0,0,0,348.065,317.21Z" transform="translate(-140.989 -129.441)" fill="#fff"/>
      <path id="パス_5142" data-name="パス 5142" d="M455.3,240.632c-.035.118-.065.243-.095.361a53.108,53.108,0,0,1,7.346,3.552v-.2a6.665,6.665,0,0,1,5.434-6.547l-.645-.278A51.783,51.783,0,0,0,457.2,234.5a4.086,4.086,0,0,0,.3.462,1.971,1.971,0,0,1-.184,2.752A4.888,4.888,0,0,0,455.3,240.632Z" transform="translate(-185.763 -95.69)" fill="#fff"/>
      <path id="パス_5143" data-name="パス 5143" d="M459.315,249.84a51.622,51.622,0,0,0-4.872-2.22,40.554,40.554,0,0,0-.474,5.274,7.275,7.275,0,0,1,5.345-3.054Z" transform="translate(-185.257 -101.044)" fill="#fff"/>
      <path id="パス_5144" data-name="パス 5144" d="M445.832,236.749a5.777,5.777,0,0,1,1.936-3.161,34.267,34.267,0,0,0-10.6-7.808,1.575,1.575,0,0,0-1.225.592c-.479.551-1.024,1.776-.894,4.38a36.8,36.8,0,0,0,1.6,8.163l.385.764c1.077,2.2,2.143,4.706,3.149,7.293,2.581,6.612,4.8,13.768,6.014,17.847-.918-7.784-1.906-19.368-.722-26.317C445.571,237.873,445.7,237.293,445.832,236.749Z" transform="translate(-177.527 -92.131)" fill="#fff"/>
      <path id="パス_5145" data-name="パス 5145" d="M470.885,231.719a5.475,5.475,0,0,0,1.4,3.651,52.582,52.582,0,0,1,11.312,8.323.636.636,0,1,1-.9.9,51.568,51.568,0,0,0-11.939-8.607,5.458,5.458,0,0,0-2.089-.414,5.392,5.392,0,0,0-5.387,5.387v.154a4.79,4.79,0,0,0,.107.87,53.131,53.131,0,0,1,16.574,16.355.639.639,0,0,1-.189.882l-.343.1a.639.639,0,0,1-.539-.3,51.8,51.8,0,0,0-16.361-16.077,6.008,6.008,0,0,0-8.607,4.735v.166a51.445,51.445,0,0,1,16.237,22.807.633.633,0,0,1-.391.811l-.207.035a.633.633,0,0,1-.592-.426,50.142,50.142,0,0,0-15-21.517,218.788,218.788,0,0,0,2.279,23.3,79.27,79.27,0,0,0,4.09,10.986c1.5,2.681,2.368,3.877,3.451,3.877.521,0,1.213-1.279,1.942-2.634a32.432,32.432,0,0,1,2.752-4.422,33.182,33.182,0,0,1,5.765-5.57,37.936,37.936,0,0,1,5.387-3.25c.592-.308,1.083-.592,1.421-.781a17.942,17.942,0,0,0,6.736-8.246c1.107-2.5,1.5-7.464.249-11.448s-1.018-6.837.746-10.128a12.744,12.744,0,0,1,3.658-3.9,8.594,8.594,0,0,0,.977-.835,1.983,1.983,0,0,0,.462-1.421,1.776,1.776,0,0,0-.592-1.184A45.058,45.058,0,0,0,483.3,228.4a56.411,56.411,0,0,0-5.919-2.06,6,6,0,0,0-.983-.089A5.5,5.5,0,0,0,470.885,231.719Z" transform="translate(-185.236 -92.323)" fill="#fff"/>
      <path id="パス_5146" data-name="パス 5146" d="M439.118,313.433a7.34,7.34,0,0,1-1.125-1.474,6.962,6.962,0,0,1-.7-2.249,5.76,5.76,0,0,0-.237-.977l-.142.124a2.172,2.172,0,0,1-2.078.639,2.208,2.208,0,0,1-1.693-1.486l-.13-.284-.172.118a2.9,2.9,0,0,1-2.024.639,2.961,2.961,0,0,1-.485-.053,2.581,2.581,0,0,1-1.35-.876l-.219-.225a5.126,5.126,0,0,0-.592.473,14.368,14.368,0,0,1-3.842,2.415,15.854,15.854,0,0,1-4.954,1.065h0v.172a13.521,13.521,0,0,0,1.835.118,13.793,13.793,0,0,0,8.619-2.96.638.638,0,1,1,.793,1,15.071,15.071,0,0,1-9.412,3.262,14.85,14.85,0,0,1-2.054-.142c-.047.219-.095.444-.154.675a17.754,17.754,0,0,0,4.5.592,17.456,17.456,0,0,0,10.856-3.735.639.639,0,0,1,.734,1.012,18.74,18.74,0,0,1-11.643,4.007,19.025,19.025,0,0,1-4.812-.592c-.053.207-.112.42-.172.627a21.493,21.493,0,0,0,7.376,1.285,21.714,21.714,0,0,0,10.764-2.857.635.635,0,1,1,.637,1.1,22.938,22.938,0,0,1-19.131,1.687l-.213.651a25.157,25.157,0,0,0,18.107.5.639.639,0,1,1,.432,1.184,26.394,26.394,0,0,1-18.942-.5c-.089.249-.178.5-.272.74a25.057,25.057,0,0,0,11.762,2.93,25.446,25.446,0,0,0,5.838-.68.633.633,0,0,1,.774.467.645.645,0,0,1-.474.77,26.353,26.353,0,0,1-18.35-2.3c-.071.166-.207.491-.4.923h.03c1.681.977,5.173,3.019,8.784,3.457,4.83.592,7.825.468,10.773-1.853,4.043-3.185,3.96-8.133,3.682-8.784a2.545,2.545,0,0,0-.521-.616Z" transform="translate(-169.913 -125.409)" fill="#fff"/>
      <path id="パス_5147" data-name="パス 5147" d="M374.173,379.715a18.224,18.224,0,0,1-1.876.089c-4.41,0-6.292-1.231-7.577-2.823a5.6,5.6,0,0,0,1.888,2.314c1.622,1.107,3.22,1.184,5.688,1.184a22.5,22.5,0,0,0,2.812-.112,6.334,6.334,0,0,0,2.871-1.048A5.558,5.558,0,0,0,379.868,377C378.778,378.324,377.269,379.413,374.173,379.715Z" transform="translate(-148.837 -153.831)" fill="#fff"/>
      <path id="パス_5148" data-name="パス 5148" d="M384.858,309.234c0,.284.041.592.041.864a9.435,9.435,0,0,1-6.831,9.062,23.086,23.086,0,0,1-5.393,4.221l-.29.071a.633.633,0,0,1-.592-.349.645.645,0,0,1,.272-.858,20.647,20.647,0,0,0,3.9-2.877,2.877,2.877,0,0,0-2.794-2.64,2.794,2.794,0,0,0-1.427.343,4.1,4.1,0,0,1,.4,1.776,3.988,3.988,0,0,1-.308,1.557.633.633,0,0,1-.592.4l-.243-.053a.639.639,0,0,1-.349-.829,2.86,2.86,0,0,0,.213-1.071,2.818,2.818,0,0,0-4.783-2.013.639.639,0,0,1-.894-.912,4.067,4.067,0,0,1,2.859-1.184,4.261,4.261,0,0,1,.781.071,2.96,2.96,0,0,0-2.634-2.368h-.266a2.96,2.96,0,0,0-2.368,1.184.639.639,0,0,1-.888.142.657.657,0,0,1-.231-.337,17.333,17.333,0,0,1-1.6,1.776,5.289,5.289,0,0,1-.035.545.645.645,0,0,1-.633.592h-.053a.633.633,0,0,1-.592-.681c0-.059.219-3,.124-6.866a2.71,2.71,0,0,0-.876-.136,2.8,2.8,0,0,0-2.794,2.622,4.232,4.232,0,0,1,2.285,1.575.635.635,0,1,1-1.024.752,2.96,2.96,0,0,0-2.368-1.184H354.6a2.959,2.959,0,0,0-2.622,2.368,4.2,4.2,0,0,1,.775-.071,4.061,4.061,0,0,1,2.859,1.184.636.636,0,1,1-.9.9,2.818,2.818,0,0,0-4.783,2.013,2.851,2.851,0,0,0,.207,1.071.633.633,0,0,1-.349.829l-.243.053a.633.633,0,0,1-.592-.4,4.1,4.1,0,0,1,.1-3.315,2.811,2.811,0,0,0-1.427-.343,2.865,2.865,0,0,0-2.794,2.64,20.823,20.823,0,0,0,3.889,2.877.639.639,0,0,1,.278.858.628.628,0,0,1-.562.349l-.3-.071a23.723,23.723,0,0,1-5.327-4.2,9.471,9.471,0,0,1-6.89-9.086,8.367,8.367,0,0,1,.047-.864,4.647,4.647,0,0,0-.284,2.451c.071.556.189,1.184.343,1.888a43.748,43.748,0,0,0,2.184,6.736c.787,1.888,2.658,5.836,4.1,7.21a8.347,8.347,0,0,0,5.144,2.32.639.639,0,0,1,0,1.273h0a8.286,8.286,0,0,1-3.492-.935c.255.71.657,1.7,1.273,3.06,1.344.349,2.829,2.2,3.782,4.043a11.656,11.656,0,0,1,1.225,3.676,3.1,3.1,0,0,1-.26,2.013,45.649,45.649,0,0,1,2.723,3.664l.095.142c1.391,2.172,2.486,3.889,7.648,3.889a17.531,17.531,0,0,0,1.776-.077c3.682-.355,4.676-1.906,5.919-3.812l.089-.142a42.241,42.241,0,0,1,2.723-3.664,2.249,2.249,0,0,1-.254-.781,9.13,9.13,0,0,1,1.225-4.907c.947-1.841,2.427-3.694,3.777-4.043.592-1.355,1.018-2.368,1.279-3.06a8.364,8.364,0,0,1-3.5.935h0a.639.639,0,1,1,0-1.273,8.287,8.287,0,0,0,5.138-2.32c1.444-1.373,3.315-5.327,4.1-7.21a38.866,38.866,0,0,0,2.5-8.613A4.778,4.778,0,0,0,384.858,309.234ZM353.4,345.484a.639.639,0,1,1-.971-.829.686.686,0,0,0-.059-.343,2.746,2.746,0,0,0-1.024-.947.639.639,0,1,1,.639-1.1,3.871,3.871,0,0,1,1.58,1.6,1.581,1.581,0,0,1-.166,1.622Zm16.1-2.119a2.8,2.8,0,0,0-1.024.947.509.509,0,0,0-.047.361.633.633,0,0,1-.485,1.042.669.669,0,0,1-.5-.231,1.58,1.58,0,0,1-.166-1.622,3.807,3.807,0,0,1,1.586-1.6.635.635,0,0,1,.633,1.1Z" transform="translate(-136.969 -125.952)" fill="#fff"/>
      <path id="パス_5149" data-name="パス 5149" d="M398.55,356.422c-.882,1.711-1.184,3.321-.645,3.587s1.669-.894,2.551-2.6,1.184-3.315.639-3.593S399.426,354.712,398.55,356.422Z" transform="translate(-162.269 -144.36)" fill="#fff"/>
      <path id="パス_5150" data-name="パス 5150" d="M351.366,353.814c-.533.278-.243,1.882.639,3.593s2.024,2.877,2.551,2.6.237-1.876-.639-3.587S351.893,353.548,351.366,353.814Z" transform="translate(-143.278 -144.362)" fill="#fff"/>
    </g>
  </g>
</svg>
