<svg id="レイヤー_2" data-name="レイヤー 2" xmlns="http://www.w3.org/2000/svg" width="93.141" height="98.521" viewBox="0 0 93.141 98.521">
  <g id="レイヤー_1" data-name="レイヤー 1" transform="translate(0)">
    <path id="パス_4195" data-name="パス 4195" d="M42.075,12.167l-5.728-9.9A46.643,46.643,0,0,0,7.64,18.838l5.728,9.9A36.062,36.062,0,0,1,42.075,12.167Z" transform="translate(2.796 0.833)" fill="#fff"/>
    <path id="パス_4196" data-name="パス 4196" d="M10.442,40.358a35.8,35.8,0,0,1,4.1-16.568H3.046a46.547,46.547,0,0,0,0,33.1H14.475a35.761,35.761,0,0,1-4.033-16.527Z" transform="translate(-0.006 8.731)" fill="#fff"/>
    <path id="パス_4197" data-name="パス 4197" d="M13.368,50.2,7.64,60.07A46.615,46.615,0,0,0,36.347,76.652l5.7-9.883A36.2,36.2,0,0,1,13.368,50.2Z" transform="translate(2.796 18.424)" fill="#fff"/>
    <path id="パス_4198" data-name="パス 4198" d="M35.32,66.768l5.7,9.884A46.561,46.561,0,0,0,69.728,60.084L64.014,50.2A36.1,36.1,0,0,1,35.32,66.768Z" transform="translate(12.955 18.424)" fill="#fff"/>
    <path id="パス_4199" data-name="パス 4199" d="M68.988,23.8H57.56a36.048,36.048,0,0,1,0,33.136H68.988a46.711,46.711,0,0,0,0-33.123Z" transform="translate(21.118 8.735)" fill="#fff"/>
    <path id="パス_4200" data-name="パス 4200" d="M64.014,28.735l5.728-9.883A46.588,46.588,0,0,0,41.034,2.27l-5.714,9.9A36.089,36.089,0,0,1,64.014,28.735Z" transform="translate(12.955 0.833)" fill="#fff"/>
    <path id="パス_4201" data-name="パス 4201" d="M34.56,31.71Z" transform="translate(12.676 11.638)" fill="#fff"/>
    <path id="パス_4202" data-name="パス 4202" d="M37.448,54.978c-.314.615-.424,1.2-.232,1.3s.6-.314.93-.943.424-1.217.232-1.367S37.776,54.35,37.448,54.978Z" transform="translate(13.616 19.797)" fill="#fff"/>
    <path id="パス_4203" data-name="パス 4203" d="M34.26,32.858v.957c0-.068.6.123.6.123q1.162-3.787,2.379-7.6c.56-1.722,1.121-3.445,1.7-5.154a2.994,2.994,0,0,1-.93.533,3.089,3.089,0,0,1-3.718-1.367Z" transform="translate(12.566 7.469)" fill="#fff"/>
    <path id="パス_4204" data-name="パス 4204" d="M52.456,34.558a19.876,19.876,0,0,0-5.263-.41h-.519a2.6,2.6,0,0,0-.369.875,2.639,2.639,0,0,0,0,.574v.164a1.681,1.681,0,0,0,0,.273,18.085,18.085,0,0,1,3.882,1.135c.342.137.67.287.984.437a2.406,2.406,0,0,1,1.367-3.089Z" transform="translate(16.981 12.522)" fill="#fff"/>
    <path id="パス_4205" data-name="パス 4205" d="M18.884,36.748v.109a2.474,2.474,0,0,1-.164.779c.314-.15.643-.3.984-.437a18.087,18.087,0,0,1,3.882-1.135,1.68,1.68,0,0,0,0-.273v-.164a2.734,2.734,0,0,0-.424-1.449h-.519a19.289,19.289,0,0,0-5.263.424A2.365,2.365,0,0,1,18.884,36.748Z" transform="translate(6.371 12.532)" fill="#fff"/>
    <path id="パス_4206" data-name="パス 4206" d="M22.98,37.2h0a1.6,1.6,0,0,1-.314.67h0a12.412,12.412,0,0,1,3.677-2.734h0a1.886,1.886,0,0,0,1-1.668v.014A1.873,1.873,0,0,0,25.413,31.7h-.15a14.737,14.737,0,0,0-5.113,1.845h.4A2.215,2.215,0,0,1,21.763,34a3.13,3.13,0,0,1,1.285,2.529v.191A4.469,4.469,0,0,1,22.98,37.2Z" transform="translate(7.388 11.634)" fill="#fff"/>
    <path id="パス_4207" data-name="パス 4207" d="M48.353,34a2.324,2.324,0,0,1,1.039-.437,2.023,2.023,0,0,1,.574,0l-.3-.178A14.778,14.778,0,0,0,44.84,31.7H44.7a1.887,1.887,0,0,0-1.613.9,2,2,0,0,0-.26.984,1.887,1.887,0,0,0,1,1.668h0a12.412,12.412,0,0,1,3.677,2.734h0a1.6,1.6,0,0,1-.314-.67h0a4.468,4.468,0,0,1,0-.478v-.191a3.6,3.6,0,0,1,0-.67A3.172,3.172,0,0,1,48.353,34Z" transform="translate(15.712 11.634)" fill="#fff"/>
    <path id="パス_4208" data-name="パス 4208" d="M49.515,25.144a2.925,2.925,0,0,1,.342-.889,2.83,2.83,0,0,1,.793-.916h0a27.669,27.669,0,0,0-6.835,2.42h0a2.2,2.2,0,0,0-1.135,1.927,2.174,2.174,0,0,0,2.16,2.174h0a18.113,18.113,0,0,1,2.379-.15,17.648,17.648,0,0,1,4.566.588.178.178,0,0,0-.1-.082,3.089,3.089,0,0,1-1.763-1.681,6.63,6.63,0,0,1-.4-3.089A2.822,2.822,0,0,1,49.515,25.144Z" transform="translate(15.657 8.566)" fill="#fff"/>
    <path id="パス_4209" data-name="パス 4209" d="M49.4,31.519a5.8,5.8,0,0,1,.342-1.107,2.843,2.843,0,0,1,1.627-1.531A17.375,17.375,0,0,0,47,28.32a17.951,17.951,0,0,0-2.105.137A2,2,0,0,0,43.1,30.48a2.064,2.064,0,0,0,.287,1.08,1.955,1.955,0,0,0,1.463.943h0A15.27,15.27,0,0,1,49.8,34.225l.383.219h0a2.857,2.857,0,0,1-.861-2.461Q49.361,31.724,49.4,31.519Z" transform="translate(15.811 10.394)" fill="#fff"/>
    <path id="パス_4210" data-name="パス 4210" d="M46.611,18.264l.068-.164q-2.734,2.966-5.14,6.111A2.173,2.173,0,0,0,41.17,25.4a2.092,2.092,0,0,0,1.668,2.037,2.119,2.119,0,0,0,.424,0h0a2.078,2.078,0,0,0,.861-.191A28.024,28.024,0,0,1,51.095,24.8h-.26a3.308,3.308,0,0,1-.642-.082,2.98,2.98,0,0,1-1.367-.629,7.177,7.177,0,0,1-2.42-3.636,3.007,3.007,0,0,1,0-1.517,3.253,3.253,0,0,1,.205-.67Z" transform="translate(15.102 6.643)" fill="#fff"/>
    <path id="パス_4211" data-name="パス 4211" d="M37.09,32.724a28.366,28.366,0,0,1,7.929-6.753H44.8A2.515,2.515,0,0,1,42.777,23.5V23.36l-.957,1.271A110.224,110.224,0,0,0,35.6,33.8a1.477,1.477,0,0,1,.56.137C36.461,33.517,36.776,33.12,37.09,32.724Z" transform="translate(13.058 8.573)" fill="#fff"/>
    <path id="パス_4212" data-name="パス 4212" d="M41.824,23.72a2.994,2.994,0,0,1-2.734-1.955,2.732,2.732,0,0,1-.109-.355c-.519,1.558-1.025,3.117-1.531,4.675-.834,2.584-1.64,5.181-2.42,7.765a1.367,1.367,0,0,1,.328.711c1.969-3.267,4.1-6.439,6.411-9.569.369-.506.766-1.012,1.148-1.517A2.926,2.926,0,0,1,41.824,23.72Z" transform="translate(12.849 7.858)" fill="#fff"/>
    <path id="パス_4213" data-name="パス 4213" d="M45.354,19.214l-.574-.1a7.109,7.109,0,0,1-3.021-1.367,3.117,3.117,0,0,1-1.08-2.5q-1.217,3.445-2.379,6.9h0a2.57,2.57,0,0,0-.15.848,2.365,2.365,0,0,0,.164.875,2.529,2.529,0,0,0,4.238.834h0c1.613-2.051,3.308-4.1,5.058-5.988h-.082A3.007,3.007,0,0,1,45.354,19.214Z" transform="translate(13.994 5.597)" fill="#fff"/>
    <path id="パス_4214" data-name="パス 4214" d="M39.656,16.614h-.478a7.314,7.314,0,0,1-3.39-.957A3.062,3.062,0,0,1,34.27,13.21v8.2a2.584,2.584,0,0,0,.4,1.367,2.652,2.652,0,0,0,4.7-.287h0q1.148-3.4,2.338-6.835h0A3.117,3.117,0,0,1,39.656,16.614Z" transform="translate(12.57 4.848)" fill="#fff"/>
    <path id="パス_4215" data-name="パス 4215" d="M34.4,15.65a7.423,7.423,0,0,1-3.4.943h-.451a3.185,3.185,0,0,1-2.023-.943h0q1.189,3.4,2.338,6.835h0a2.625,2.625,0,0,0,2.42,1.586A2.652,2.652,0,0,0,35.547,22.8a2.734,2.734,0,0,0,.383-1.367h0v-8.2A3.062,3.062,0,0,1,34.4,15.65Z" transform="translate(10.46 4.856)" fill="#fff"/>
    <path id="パス_4216" data-name="パス 4216" d="M30.04,15.934a3.253,3.253,0,0,1-1.094,1.75,7.245,7.245,0,0,1-3.035,1.367l-.533.1a3.007,3.007,0,0,1-2.133-.451.15.15,0,0,0-.1,0c1.75,1.941,3.445,3.937,5.058,5.988h0a2.543,2.543,0,0,0,4.306-.807,2.734,2.734,0,0,0,.15-.875,2.556,2.556,0,0,0-.123-.807c-.779-2.324-1.586-4.634-2.392-6.944A3.732,3.732,0,0,1,30.04,15.934Z" transform="translate(8.489 5.597)" fill="#fff"/>
    <path id="パス_4217" data-name="パス 4217" d="M20.26,34.444h.082a15.037,15.037,0,0,1,5.222-1.9h0a1.982,1.982,0,0,0,1.763-2.064,2.05,2.05,0,0,0-1.818-2.037,20.692,20.692,0,0,0-2.078-.123,17.279,17.279,0,0,0-3.035.273,11.115,11.115,0,0,0-1.367.287,2.884,2.884,0,0,1,1.627,1.531A5.8,5.8,0,0,1,21,31.519a1.437,1.437,0,0,0,.082.451,2.9,2.9,0,0,1-.725,2.406A.137.137,0,0,0,20.26,34.444Z" transform="translate(6.977 10.394)" fill="#fff"/>
    <path id="パス_4218" data-name="パス 4218" d="M19.029,30.22a.164.164,0,0,0-.109.082,13.26,13.26,0,0,1,1.476-.314,16.692,16.692,0,0,1,3.1-.273,17.264,17.264,0,0,1,2.228.137h.137A2.16,2.16,0,0,0,27.71,28.8a2.091,2.091,0,0,0,.314-1.121A2.2,2.2,0,0,0,26.89,25.75h0a27.86,27.86,0,0,0-6.835-2.42h0a3.062,3.062,0,0,1,1.135,1.8,2.831,2.831,0,0,1,0,.3,6.548,6.548,0,0,1-.4,3.076A3.089,3.089,0,0,1,19.029,30.22Z" transform="translate(6.936 8.562)" fill="#fff"/>
    <path id="パス_4219" data-name="パス 4219" d="M21.97,24.129a3.007,3.007,0,0,1-1.3.615,3.6,3.6,0,0,1-.6.055h-.26a28.024,28.024,0,0,1,6.972,2.474A2.078,2.078,0,0,0,29.639,25.4v-.082a2.146,2.146,0,0,0-.369-1.107q-2.433-3.144-5.1-6.111l.068.15a4.1,4.1,0,0,1,.232.684,3.007,3.007,0,0,1,0,1.517,7.2,7.2,0,0,1-2.5,3.677Z" transform="translate(7.263 6.643)" fill="#fff"/>
    <path id="パス_4220" data-name="パス 4220" d="M35.06,33.808h.068A120.022,120.022,0,0,0,27.952,23.35v.137a2.515,2.515,0,0,1-2.242,2.5,28.366,28.366,0,0,1,7.929,6.753c.314.4.629.793.93,1.2a1.189,1.189,0,0,1,.492-.137Z" transform="translate(9.428 8.57)" fill="#fff"/>
    <path id="パス_4221" data-name="パス 4221" d="M35.343,33.874c-.15-.519-.314-1.039-.465-1.558Q33.2,26.848,31.392,21.38a2.735,2.735,0,0,1-.109.355,2.994,2.994,0,0,1-2.734,1.955A2.926,2.926,0,0,1,27.51,23.5l.191.246a118.688,118.688,0,0,1,7.314,10.649A1.7,1.7,0,0,1,35.343,33.874Z" transform="translate(10.089 7.847)" fill="#fff"/>
    <path id="パス_4222" data-name="パス 4222" d="M35.188,20.39a3.1,3.1,0,0,1-4.648.779q1.9,5.687,3.65,11.387c.137.451.273.916.424,1.367l.178-.1h0c.355-.1.4,0,.4,0V20.39Z" transform="translate(11.201 7.483)" fill="#fff"/>
    <path id="パス_4223" data-name="パス 4223" d="M44.7,34.632a12.016,12.016,0,0,0-4.552-.9,12.766,12.766,0,0,0-1.763.137,1.367,1.367,0,0,1,.383.943,1.725,1.725,0,0,1,0,.383h0a5.468,5.468,0,0,1,2.543.451A6.411,6.411,0,0,1,44.231,38.2a8.2,8.2,0,0,1-.205-1.49,2.625,2.625,0,0,1,.424-1.873Z" transform="translate(14.078 12.379)" fill="#fff"/>
    <path id="パス_4224" data-name="パス 4224" d="M38.448,34.215a11.51,11.51,0,0,1,1.818-.137,12.453,12.453,0,0,1,4.265.752,2.447,2.447,0,0,1-.328-1.2,2.406,2.406,0,0,1,.328-1.2,2.3,2.3,0,0,1,.861-.834h-1.08a14.8,14.8,0,0,0-2.912.287,14.435,14.435,0,0,0-3.541,1.2,1.367,1.367,0,0,1,.342.9,1.244,1.244,0,0,1,0,.314Z" transform="translate(13.888 11.594)" fill="#fff"/>
    <path id="パス_4225" data-name="パス 4225" d="M37.837,33.848a15.037,15.037,0,0,1,3.841-1.367,14.45,14.45,0,0,1,2.994-.3h1.08a2.447,2.447,0,0,1-.478-.588,2.529,2.529,0,0,1-.342-1.271,2.57,2.57,0,0,1,.738-1.791c-.519.109-1.025.246-1.531.4a17.484,17.484,0,0,0-7.259,4.347,1.653,1.653,0,0,1,.287.328A1.367,1.367,0,0,1,37.837,33.848Z" transform="translate(13.528 10.471)" fill="#fff"/>
    <path id="パス_4226" data-name="パス 4226" d="M36.7,34.195a17.867,17.867,0,0,1,7.532-4.538,13.588,13.588,0,0,1,1.818-.451,2.83,2.83,0,0,1-.738-.533,2.6,2.6,0,0,1-.752-1.832,2.529,2.529,0,0,1,.314-1.23,27.477,27.477,0,0,0-7.7,6.589c-.314.383-.615.766-.9,1.162a1.367,1.367,0,0,1,.4.834Z" transform="translate(13.308 9.399)" fill="#fff"/>
    <path id="パス_4227" data-name="パス 4227" d="M34.148,34.195a1.367,1.367,0,0,1,.4-.834c-.287-.4-.588-.779-.9-1.162a27.477,27.477,0,0,0-7.7-6.589,2.529,2.529,0,0,1,.314,1.23,2.627,2.627,0,0,1-1.49,2.392,15.556,15.556,0,0,1,1.791.437,17.99,17.99,0,0,1,7.56,4.552Z" transform="translate(9.083 9.399)" fill="#fff"/>
    <path id="パス_4228" data-name="パス 4228" d="M33.4,33.662a1.654,1.654,0,0,1,.287-.328,17.607,17.607,0,0,0-7.273-4.361c-.506-.15-1.012-.273-1.531-.383a2.515,2.515,0,0,1,.766,1.791,3.112,3.112,0,0,1,0,.355,2.5,2.5,0,0,1-.793,1.5h1.08a14.449,14.449,0,0,1,2.994.3,15.037,15.037,0,0,1,3.841,1.367A1.367,1.367,0,0,1,33.4,33.662Z" transform="translate(9.116 10.493)" fill="#fff"/>
    <path id="パス_4229" data-name="パス 4229" d="M29.8,33.73a11.962,11.962,0,0,0-4.552.9l.178.15a2.228,2.228,0,0,1,.437,1.367,8.393,8.393,0,0,1-.219,2.051,6.411,6.411,0,0,1,3.048-2.5,5.468,5.468,0,0,1,2.543-.451h0a1.955,1.955,0,0,1,0-.3v-.082a1.367,1.367,0,0,1,.383-.943A12.767,12.767,0,0,0,29.8,33.73Z" transform="translate(9.259 12.379)" fill="#fff"/>
    <path id="パス_4230" data-name="パス 4230" d="M28.822,31.847a14.709,14.709,0,0,0-2.912-.287H24.83a2.324,2.324,0,0,1,1.189,1.968v.123a2.324,2.324,0,0,1-.342,1.2,12.59,12.59,0,0,1,4.279-.752,11.509,11.509,0,0,1,1.818.137h.287a1.243,1.243,0,0,1,0-.314,1.367,1.367,0,0,1,.342-.9,14.436,14.436,0,0,0-3.582-1.176Z" transform="translate(9.105 11.583)" fill="#fff"/>
    <path id="パス_4231" data-name="パス 4231" d="M23.488,38.183v-.137a1.722,1.722,0,0,0-.711-1.012.7.7,0,0,1,0-.971,1.025,1.025,0,0,0,.1-.164,18.031,18.031,0,0,0-3.554,1.066l-.219.1a2.338,2.338,0,0,1,1.9,2.3h0A17.769,17.769,0,0,1,23.488,38.183Z" transform="translate(7.002 13.176)" fill="#fff"/>
    <path id="パス_4232" data-name="パス 4232" d="M23,39.749a17.433,17.433,0,0,0-.164-1.859,17.622,17.622,0,0,0-1.709.779h.123A2.556,2.556,0,0,1,23,39.749Z" transform="translate(7.747 13.906)" fill="#fff"/>
    <path id="パス_4233" data-name="パス 4233" d="M25.746,39.706l.123-.26.137-.273a10.854,10.854,0,0,0,.56-3.253,1.709,1.709,0,0,0-.328-1.148.547.547,0,0,0-.41-.191,11.961,11.961,0,0,0-3.718,2.734,2.078,2.078,0,0,1,.67,1.107,3.881,3.881,0,0,0,.137.615,38.919,38.919,0,0,1-.26,9.214,67.2,67.2,0,0,1,3.089-8.544Z" transform="translate(8.107 12.691)" fill="#fff"/>
    <path id="パス_4234" data-name="パス 4234" d="M14.393,47.434a6.22,6.22,0,0,0,2.365,2.884l.492.273a13.425,13.425,0,0,1,1.886,1.148,11.127,11.127,0,0,1,2.023,1.941,12.029,12.029,0,0,1,.971,1.558c.26.478.492.916.684.916s.684-.41,1.2-1.367a28.994,28.994,0,0,0,1.435-3.855,75.813,75.813,0,0,0,.793-8.2A17.58,17.58,0,0,0,21,50.278a.219.219,0,0,1-.205.15h-.082a.232.232,0,0,1-.137-.287,18.2,18.2,0,0,1,5.687-8h0A2.078,2.078,0,0,0,24.468,40.3h-.3a2.105,2.105,0,0,0-.916.219,18.072,18.072,0,0,0-5.741,5.632.333.333,0,0,1-.3.1.219.219,0,0,1-.068-.314A18.591,18.591,0,0,1,22.95,40.2a2.243,2.243,0,0,0,0-.3h0a1.9,1.9,0,0,0-2.611-1.75,18,18,0,0,0-4.183,3.021.232.232,0,0,1-.164,0,.178.178,0,0,1-.15,0,.205.205,0,0,1,0-.314,18.619,18.619,0,0,1,3.992-2.994,2.01,2.01,0,0,0,.492-1.189v-.1A1.941,1.941,0,0,0,18.4,34.653a1.368,1.368,0,0,0-.342,0A17.375,17.375,0,0,0,12.465,37.3a.643.643,0,0,0-.205.41.725.725,0,0,0,.164.506l.342.287a4.62,4.62,0,0,1,1.285,1.367,4.361,4.361,0,0,1,.506,1.545,4.8,4.8,0,0,1-.246,2,6.575,6.575,0,0,0,.082,4.019Z" transform="translate(4.492 12.714)" fill="#fff"/>
    <path id="パス_4235" data-name="パス 4235" d="M50.338,37.062l-.219-.1A17.772,17.772,0,0,0,46.565,35.9a1.026,1.026,0,0,0,.1.164.7.7,0,0,1,0,.971,1.722,1.722,0,0,0-.711,1.012v.137a17.773,17.773,0,0,1,2.57,1.244h0a2.338,2.338,0,0,1,1.818-2.365Z" transform="translate(16.857 13.176)" fill="#fff"/>
    <path id="パス_4236" data-name="パス 4236" d="M47.573,38.669c-.547-.287-1.121-.547-1.7-.779a14.328,14.328,0,0,0-.178,1.859A2.584,2.584,0,0,1,47.573,38.669Z" transform="translate(16.765 13.906)" fill="#fff"/>
    <path id="パス_4237" data-name="パス 4237" d="M46.624,38.421a2.037,2.037,0,0,1,.67-1.107,12.071,12.071,0,0,0-3.7-2.734.56.56,0,0,0-.437.205,2.187,2.187,0,0,0-.314,1.531,13.356,13.356,0,0,0,.56,2.857l.137.273c.383.766.752,1.654,1.107,2.556.9,2.31,1.681,4.826,2.105,6.247a38.918,38.918,0,0,1-.26-9.214C46.529,38.818,46.57,38.613,46.624,38.421Z" transform="translate(15.704 12.691)" fill="#fff"/>
    <path id="パス_4238" data-name="パス 4238" d="M59.189,38.528l.342-.287a.725.725,0,0,0,.164-.506.643.643,0,0,0-.205-.41A15.9,15.9,0,0,0,55.976,35.4a18.273,18.273,0,0,0-2.078-.725,1.368,1.368,0,0,0-.342,0,1.927,1.927,0,0,0-1.435,3.185,18.618,18.618,0,0,1,3.964,2.912.219.219,0,0,1,0,.314.178.178,0,0,1-.15,0,.26.26,0,0,1-.164,0,18,18,0,0,0-4.2-3.021,1.9,1.9,0,0,0-2.611,1.75h0a2.248,2.248,0,0,0,0,.3,18.591,18.591,0,0,1,5.81,5.728.219.219,0,0,1,0,.314.333.333,0,0,1-.3-.1,18.072,18.072,0,0,0-5.741-5.632,2.086,2.086,0,0,0-2.638.67,2.05,2.05,0,0,0-.369.984h0a18.2,18.2,0,0,1,5.659,8.079.232.232,0,0,1-.137.287h-.082a.219.219,0,0,1-.205-.15,17.58,17.58,0,0,0-5.249-7.546,74.934,74.934,0,0,0,.793,8.2,29,29,0,0,0,1.435,3.855c.519.943.82,1.367,1.2,1.367s.424-.437.684-.916A12.027,12.027,0,0,1,50.8,53.7a11.593,11.593,0,0,1,2.01-1.941,13.453,13.453,0,0,1,1.9-1.148l.492-.273a6.22,6.22,0,0,0,2.365-2.912,6.575,6.575,0,0,0,.082-4.019,4.1,4.1,0,0,1,.26-3.541,4.62,4.62,0,0,1,1.285-1.34Z" transform="translate(16.769 12.721)" fill="#fff"/>
    <path id="パス_4239" data-name="パス 4239" d="M30.165,54.006c-.191.1-.082.684.232,1.367s.738,1.053.93.943.1-.683-.232-1.367S30.357,53.883,30.165,54.006Z" transform="translate(11.029 19.812)" fill="#fff"/>
    <path id="パス_4240" data-name="パス 4240" d="M35.713,44.366h0a1.613,1.613,0,0,1-.656-1.148h0a.725.725,0,0,0-.41-.752h0a2.009,2.009,0,0,1-1.148-1.6,1.668,1.668,0,0,0-.889-1.217,6.671,6.671,0,0,0,1.053,4.333h0c1.367,2.392,1.367,6.452,1.367,7.97a9.364,9.364,0,0,0,2.31-4.839c.068-.588-.287-.711-.328-.725h0a1.367,1.367,0,0,1-.7-1.08h0a.861.861,0,0,0-.6-.943Z" transform="translate(11.948 14.552)" fill="#fff"/>
    <path id="パス_4241" data-name="パス 4241" d="M34.309,33.159h0a.752.752,0,0,0-.355.437.56.56,0,0,0,.137.424,1.189,1.189,0,0,1,.451.82,1.148,1.148,0,0,1-.492.875h0a.861.861,0,0,0-.424,1.135,1.121,1.121,0,0,1-.437,1.517,1.258,1.258,0,0,0-.424,1.217,1.845,1.845,0,0,1-.15,1.367c0,.109-.369.984.15,1.49a2.105,2.105,0,0,1,1.162,1.586,1.545,1.545,0,0,0,.67,1.107,17.935,17.935,0,0,1,.67-7.108,12.9,12.9,0,0,0-.629-7.4,1.5,1.5,0,0,0-.082,1.039A1.094,1.094,0,0,1,34.309,33.159Z" transform="translate(11.916 11.242)" fill="#fff"/>
    <path id="パス_4242" data-name="パス 4242" d="M34.61,31.15Z" transform="translate(12.695 11.432)" fill="#fff"/>
    <path id="パス_4243" data-name="パス 4243" d="M37.488,57.314a2.42,2.42,0,0,1-1.244,1.039,4.566,4.566,0,0,1-3.035-.1A2.365,2.365,0,0,1,32.17,57.3a2.734,2.734,0,0,0,.656,1.121,2.515,2.515,0,0,0,1.968.684h.779a2.255,2.255,0,0,0,1.258-.656,2.926,2.926,0,0,0,.656-1.121h0Z" transform="translate(11.799 21.03)" fill="#fff"/>
    <path id="パス_4244" data-name="パス 4244" d="M45.027,53.466a2.323,2.323,0,0,1,0,.3,3.3,3.3,0,0,1-2.406,3.185,7.875,7.875,0,0,1-1.886,1.476h0a.205.205,0,0,1-.287-.1c0-.492.478-.342,1.367-1.2h0a2.734,2.734,0,0,0,.766-.766c.506-.109,1.6-.588,2.078-2.529,1.545-6.521-.137-11.715-4.47-15.639.164-1.012,1.859-1.722,1.859-1.722a.943.943,0,0,0-.643-1.367h0a1.217,1.217,0,0,0-1.162-1.722.916.916,0,0,0-.82-.588,1.367,1.367,0,0,0,0-.451h0a1.012,1.012,0,0,0-1.476-.574,1.75,1.75,0,0,0-.875-1.148h0l-.232-.123a7.64,7.64,0,0,1,.355.861v.027c2.119,5.782-1.859,9.091.109,15.16,0,.943,1.367.875,1.244,2.092a.889.889,0,0,0,.41.684c1.545.6.164,4.538-2.6,7.095,0-.56.41-5.564-1.258-8.845A7.1,7.1,0,0,1,34,42.53h0a2.091,2.091,0,0,1,0-1.668c.533-1.244-.533-1.613.684-2.734.957-.807-.793-1.64.834-2.652.875-.684-.533-1.121-.273-1.845a1.217,1.217,0,0,1,.56-.725c.656-.533-.342-1.23.191-2.283-.848.109-1.107,1.285-1.094,1.258-1.121-.519-1.258.861-1.258.861-.848-.26-1.012.82-1.012.82-1.3,0-1.189,1.449-1.189,1.449a1.2,1.2,0,0,0-.67,1.367c1.148.068,2.119,1.859,2.119,1.859-6.234,4.183-6.6,16.814-2.529,18.127a2.734,2.734,0,0,0,.766.766h0c.861.861,1.367.711,1.367,1.2-.3.355-.984-.3-2.174-1.367a3.3,3.3,0,0,1-2.392-3.486,6.22,6.22,0,0,0,.369,2.925h0l.068.178v.123A19.712,19.712,0,0,0,31.1,61.859h0a3.4,3.4,0,0,1,1.7,3.5c.93.916,1.176,2.256,2.994,2.447a6.425,6.425,0,0,0,1.709,0c1.367-.287,1.75-1.367,2.638-2.42a3.4,3.4,0,0,1,1.654-3.513,18.481,18.481,0,0,0,2.584-4.716A7.054,7.054,0,0,0,45.027,53.466Z" transform="translate(10.152 11.194)" fill="#fff"/>
    <path id="パス_4245" data-name="パス 4245" d="M41.468,2.857,35.617,0,29.78,2.857l5.878,10.184Z" transform="translate(10.922)" fill="#fff"/>
    <path id="パス_4246" data-name="パス 4246" d="M29.86,72.718,35.7,75.575l5.851-2.857-5.81-10.2Z" transform="translate(10.951 22.945)" fill="#fff"/>
    <path id="パス_4247" data-name="パス 4247" d="M8.425,15.35l-5.4,3.623L2.56,25.466l11.77.014Z" transform="translate(0.932 5.634)" fill="#fff"/>
    <path id="パス_4248" data-name="パス 4248" d="M62.9,59.3l5.413-3.623.451-6.493L57.04,49.1Z" transform="translate(20.927 18.02)" fill="#fff"/>
    <path id="パス_4249" data-name="パス 4249" d="M2.42,49.174l.424,6.493,5.386,3.65L14.149,49.16Z" transform="translate(0.88 18.042)" fill="#fff"/>
    <path id="パス_4250" data-name="パス 4250" d="M68.82,25.573,68.4,19.08,63.01,15.43l-5.96,10.1Z" transform="translate(20.931 5.663)" fill="#fff"/>
    <path id="パス_4251" data-name="パス 4251" d="M40,51.83a8.626,8.626,0,0,0,3.089,1.217,4.539,4.539,0,0,0,3.773-.656,3.418,3.418,0,0,0,1.34-3.076,1.133,1.133,0,0,0-.164-.219,2.46,2.46,0,0,1-.4-.519A2.241,2.241,0,0,1,47.4,47.8a.513.513,0,0,0-.082-.355h0a.779.779,0,0,1-.725.219A.765.765,0,0,1,46,47.141v-.1h0a1.094,1.094,0,0,1-.711.219h-.178a.875.875,0,0,1-.465-.314l-.26.068-.219.178a4.935,4.935,0,0,1-1.367.848,5.468,5.468,0,0,1-1.654.355h-.109a1.739,1.739,0,0,1-.082.451h0a5.468,5.468,0,0,0,4.621-.67.233.233,0,0,1,.3.355,4.826,4.826,0,0,1-3.13,1.025,6.507,6.507,0,0,1-1.927-.273h0a.777.777,0,0,1-.123.492c.492.164,3.9,1.244,6.138-.26a.242.242,0,0,1,.342.342,5.783,5.783,0,0,1-3.254.875,11.114,11.114,0,0,1-3.281-.547,1.821,1.821,0,0,1-.178.547c.4.164,3.964,1.681,6.042.492a.232.232,0,0,1,.219.41,4.456,4.456,0,0,1-2.2.506,11.264,11.264,0,0,1-4.21-1.025c-.1.232-.178.451-.287.67Z" transform="translate(14.673 17.231)" fill="#fff"/>
    <path id="パス_4252" data-name="パス 4252" d="M23.483,52.371a4.539,4.539,0,0,0,3.773.656,8.435,8.435,0,0,0,3.076-1.217h0a5.812,5.812,0,0,1-.232-.684,11.346,11.346,0,0,1-4.21.984,4.457,4.457,0,0,1-2.2-.506.232.232,0,0,1-.1-.314.246.246,0,0,1,.314-.1c2.078,1.189,5.646-.328,6.042-.492-.068-.191-.123-.369-.178-.547a11.114,11.114,0,0,1-3.281.547,5.783,5.783,0,0,1-3.226-.861.246.246,0,1,1,.273-.41c2.242,1.5,5.646.424,6.138.26a4.308,4.308,0,0,1-.123-.492h0a6.617,6.617,0,0,1-1.927.273,4.8,4.8,0,0,1-3.2-1.08.233.233,0,0,1,.3-.355,5.468,5.468,0,0,0,4.621.67h0a1.169,1.169,0,0,0-.082-.451h-.109A5.468,5.468,0,0,1,27.5,47.9a5.058,5.058,0,0,1-1.367-.848L26,46.93l-.082.082a.861.861,0,0,1-.478.314h-.164a1.094,1.094,0,0,1-.711-.219h0v.1a.793.793,0,0,1-1.367.3h0a1.954,1.954,0,0,0-.082.355,2.57,2.57,0,0,1-.246.779,2.461,2.461,0,0,1-.4.519,1.135,1.135,0,0,0-.164.219A3.349,3.349,0,0,0,23.483,52.371Z" transform="translate(8.17 17.224)" fill="#fff"/>
  </g>
</svg>
