<svg xmlns="http://www.w3.org/2000/svg" width="332" height="68" viewBox="0 0 332 68">
  <g id="レイヤー_2" data-name="レイヤー 2" transform="translate(0)">
    <g id="レイヤー_1" data-name="レイヤー 1" transform="translate(0)">
      <path id="パス_5182" data-name="パス 5182" d="M138.068,39.31l-2.442,4.833-2.467-4.833H131.78v8.743h1.151V41.221l2.24,4.353h.911l2.252-4.353v6.833h1.151V39.31Z" transform="translate(34.765 10.381)" fill="#fff"/>
      <path id="パス_5183" data-name="パス 5183" d="M148.175,39.31v6.643c0,.987-.557,1.075-1.076,1.075h-1.632c-.519,0-1.063-.089-1.063-1.075V39.31h-1.164v6.643a2,2,0,0,0,2.227,2.1H147.1a2.012,2.012,0,0,0,2.24-2.1V39.31Z" transform="translate(37.789 10.381)" fill="#fff"/>
      <path id="パス_5184" data-name="パス 5184" d="M156.529,43.2h0a3.828,3.828,0,0,1-.848-.139,3.063,3.063,0,0,1-.747-.19h0a.886.886,0,0,1-.658-.886V41.3c0-.784.62-.949,1.151-.949h3.087V39.33H155.5c-1.569,0-2.4.671-2.4,1.911V42c0,1.607,1.265,1.936,2.531,2.113h.4l.481.063a4.061,4.061,0,0,1,.747.177c.456.152.658.392.658.759v.873c0,.709-.4,1-1.417,1h-3.151V48h3.163c1.607,0,2.531-.721,2.531-1.936v-.949C159.059,43.556,157.529,43.341,156.529,43.2Z" transform="translate(40.391 10.387)" fill="#fff"/>
      <path id="パス_5185" data-name="パス 5185" d="M168.645,40.322V39.31H162.85v8.743h5.795V47.041h-4.656V44.03h3.948v-.974h-3.948V40.322Z" transform="translate(42.963 10.381)" fill="#fff"/>
      <path id="パス_5186" data-name="パス 5186" d="M177.165,39.31v6.643c0,.987-.544,1.075-1.063,1.075H174.47c-.519,0-1.076-.089-1.076-1.075V39.31h-1.164v6.643a2.012,2.012,0,0,0,2.24,2.1H176.1a2,2,0,0,0,2.164-2.1V39.31Z" transform="translate(45.437 10.381)" fill="#fff"/>
      <path id="パス_5187" data-name="パス 5187" d="M188.688,39.31l-2.442,4.833-2.429-4.77-.038-.063H182.4v8.743h1.151V41.221l2.24,4.353h.911l2.252-4.353v6.833h1.151V39.31Z" transform="translate(48.12 10.381)" fill="#fff"/>
      <path id="パス_5188" data-name="パス 5188" d="M167.576,33.135l-.329.114a11.792,11.792,0,0,1-4.251.759,15.322,15.322,0,0,1-4.213-.645A26.811,26.811,0,0,1,154,31.414l-4.391-2.252a8.6,8.6,0,0,0,3.8-7.187,9.059,9.059,0,0,0-.607-3.4,7.288,7.288,0,0,0-1.835-2.632,8.351,8.351,0,0,0-2.834-1.683,10.882,10.882,0,0,0-3.568-.557,10.122,10.122,0,0,0-3.922.721,7.908,7.908,0,0,0-2.961,2.189,8.642,8.642,0,0,0-1.569,2.531,8.515,8.515,0,0,0-.519,2.961,9.526,9.526,0,0,0,.519,3.163A8.073,8.073,0,0,0,137.652,28a7.782,7.782,0,0,0,2.923,2.151,10.274,10.274,0,0,0,3.922.709,10,10,0,0,0,3.429-.557l3.429,2a25.077,25.077,0,0,0,4.732,2.278,14.12,14.12,0,0,0,4.5.7,15.55,15.55,0,0,0,3.48-.4,17.827,17.827,0,0,0,3.442-1.265q.266-.139.266-.266a.177.177,0,0,0-.2-.2ZM150.343,22.57a12.11,12.11,0,0,1-.468,3.606,5.454,5.454,0,0,1-1.392,2.379,4.124,4.124,0,0,1-1.417.886,5.251,5.251,0,0,1-1.771.291,5.929,5.929,0,0,1-4.631-2.1,7.289,7.289,0,0,1-1.506-2.619,10.336,10.336,0,0,1-.519-3.34,10.933,10.933,0,0,1,.4-3.113,5.909,5.909,0,0,1,1.265-2.227,4.656,4.656,0,0,1,1.658-1.164,5.441,5.441,0,0,1,2.126-.392,5.656,5.656,0,0,1,2.315.481,6.187,6.187,0,0,1,1.961,1.442,6.959,6.959,0,0,1,1.506,2.531,10.123,10.123,0,0,1,.468,3.34Z" transform="translate(35.754 3.617)" fill="#fff"/>
      <path id="パス_5189" data-name="パス 5189" d="M108.994,14.28H94v3.2h.493V17.19a1.582,1.582,0,0,1,.493-.974,2.961,2.961,0,0,1,2-.582h3.34V29.476a1.164,1.164,0,0,1-.784.784,3.416,3.416,0,0,1-.493.1h-.4v.418h6.111v-.4h-.215a2.341,2.341,0,0,1-.822-.177,1.113,1.113,0,0,1-.38-.253.949.949,0,0,1-.291-.595V15.634h3.024a2.986,2.986,0,0,1,1.986.569,1.493,1.493,0,0,1,.493.974v.3h.506v-3.2Z" transform="translate(24.795 3.772)" fill="#fff"/>
      <path id="パス_5190" data-name="パス 5190" d="M168.214,14.321v.4h0a3.4,3.4,0,0,1,1.367.3,2.1,2.1,0,0,1,.4.278,1.265,1.265,0,0,1,.24.38h0a1.266,1.266,0,0,1,.076.443h0v9.287a5.517,5.517,0,0,1-.228,1.265h0l-.114.329a5.061,5.061,0,0,1-.974,1.582,4.517,4.517,0,0,1-.645.569h0l-.316.215a4.82,4.82,0,0,1-.784.354,3.8,3.8,0,0,1-2.366,0l-.354-.139a2.53,2.53,0,0,1-.418-.2l-.329-.215h0a5.353,5.353,0,0,1-.645-.557,5.062,5.062,0,0,1-1.113-1.911,5.644,5.644,0,0,1-.24-1.265V15.75a1.075,1.075,0,0,1,.822-.962,2.821,2.821,0,0,1,.595-.076h.215V14.27H156.7v.443h.633a1.835,1.835,0,0,1,1.265.456.987.987,0,0,1,.266.557v8.439h0v1.2a5.782,5.782,0,0,0,2.012,4.125,7.187,7.187,0,0,0,9.211,0,5.871,5.871,0,0,0,2.05-4.074V16.054a1.694,1.694,0,0,1,0-.266h0a1.186,1.186,0,0,1,0-.2,1.341,1.341,0,0,1,.278-.418,1.923,1.923,0,0,1,1.265-.4h.367v-.4Z" transform="translate(41.333 3.769)" fill="#fff"/>
      <path id="パス_5191" data-name="パス 5191" d="M237.539,14.321v.4h0a3.391,3.391,0,0,1,1.354.3h.19a.342.342,0,0,1,.1.089h0a1.529,1.529,0,0,1,.253.38h0a1.265,1.265,0,0,1,.076.443h0v9.477a5.517,5.517,0,0,1-.228,1.265h0l-.114.329v.1a3.245,3.245,0,0,1-.139.3.381.381,0,0,1,0,.1c0,.114-.127.228-.19.342h0a4.048,4.048,0,0,1-.531.7,4.514,4.514,0,0,1-.645.569h0l-.329.215h0l-.316.164h0l-.342.127h0a3.72,3.72,0,0,1-1.189.19,3.682,3.682,0,0,1-1.164-.19h0A1.48,1.48,0,0,1,234,29.5h0l-.316-.164h0l-.329-.215h0a5.353,5.353,0,0,1-.645-.557,7.04,7.04,0,0,1-.531-.683h0c-.076-.114-.139-.24-.2-.354v-.063c0-.114-.114-.228-.152-.342a.1.1,0,0,1,0-.063,2.954,2.954,0,0,1-.139-.354h0a5.53,5.53,0,0,1-.24-1.265V15.75a1.075,1.075,0,0,1,.822-.962,2.822,2.822,0,0,1,.595-.076h.329V14.27H226.48v.443h.633a1.885,1.885,0,0,1,1.265.455,1.038,1.038,0,0,1,.253.557v8.439h0v1.2a5.833,5.833,0,0,0,2.05,4.074,7.187,7.187,0,0,0,9.211,0,5.833,5.833,0,0,0,2.05-4.074V16.054a1.7,1.7,0,0,1,0-.266h0v-.2a.95.95,0,0,1,.089-.152h0l.127-.152h0a1.936,1.936,0,0,1,1.265-.4h.367v-.4ZM231.212,15.244ZM231.212,15.32Z" transform="translate(59.704 3.769)" fill="#fff"/>
      <path id="パス_5192" data-name="パス 5192" d="M76.353,30.644a3.454,3.454,0,0,1-1.189-.19,2.531,2.531,0,0,1-.721-.418A1.582,1.582,0,0,1,74,29.429L67.318,13.55h0c0,.139-5.744,14.348-6.326,15.816a2.088,2.088,0,0,1-1.455,1.2,2.961,2.961,0,0,1-.987.089v.392h5.63v-.392h0a4.91,4.91,0,0,1-.86-.114.886.886,0,0,1-.481-.342.822.822,0,0,1,0-.734l1.569-4.15h5.061c1.025,2.531,1.645,4.024,1.835,4.517.139.3.164.709-.253.772h-.392v.418h5.77v-.392Zm-11.615-6.4,1.873-5.061.139-.367,2.189,5.428Z" transform="translate(15.444 3.579)" fill="#fff"/>
      <path id="パス_5193" data-name="パス 5193" d="M133.733,30.687a3.8,3.8,0,0,1-1.189-.19,2.53,2.53,0,0,1-.721-.418,1.582,1.582,0,0,1-.443-.607L124.7,13.58h0c0,.152-5.744,14.361-6.326,15.829a2.113,2.113,0,0,1-1.455,1.2,2.961,2.961,0,0,1-.987.089v.392h5.63V30.7h0a6.542,6.542,0,0,1-.86-.114.962.962,0,0,1-.481-.342.822.822,0,0,1,0-.734l1.569-4.15h5.061c1.025,2.531,1.645,4.024,1.835,4.517.139.3.164.709-.253.772h-.392v.418h5.694Zm-11.59-6.453,1.873-4.985.139-.367,2.189,5.352Z" transform="translate(30.578 3.587)" fill="#fff"/>
      <path id="パス_5194" data-name="パス 5194" d="M192.783,30.644a3.454,3.454,0,0,1-1.189-.19,2.53,2.53,0,0,1-.721-.418,1.582,1.582,0,0,1-.443-.607L183.748,13.55h0c0,.139-5.744,14.348-6.326,15.816a2.088,2.088,0,0,1-1.455,1.2,2.961,2.961,0,0,1-.987.089v.392h5.63v-.392h0a4.909,4.909,0,0,1-.86-.114.886.886,0,0,1-.481-.342.823.823,0,0,1,0-.734l1.569-4.15H185.9c1.012,2.531,1.632,4.024,1.822,4.517.139.3.164.709-.253.772h-.392v.418h5.77v-.392Zm-11.615-6.4,1.873-5.061.139-.367,2.189,5.428Z" transform="translate(46.154 3.579)" fill="#fff"/>
      <path id="パス_5195" data-name="パス 5195" d="M94.528,30.782h0v-.4h-.734a2.252,2.252,0,0,1-1.265-.354,9.049,9.049,0,0,1-1.012-.873c-.367-.38-.759-.835-1.189-1.354C89.062,26.3,88.2,25.151,87.595,24.38a11.654,11.654,0,0,1-.949-1.265,2.732,2.732,0,0,0,.392-.253,7.073,7.073,0,0,0,.822-.721,4.593,4.593,0,0,0,1.43-3.859,4.2,4.2,0,0,0-2.24-3.353l-.19-.089-.2-.1h0a5.542,5.542,0,0,0-1.151-.354,8.313,8.313,0,0,0-1.4-.114H77.27v.4H77.6a4.353,4.353,0,0,1,.709.139,1.7,1.7,0,0,1,.734.418.974.974,0,0,1,.3.734V29.327a.873.873,0,0,1-.3.62,1.265,1.265,0,0,1-.645.38H77.65v.4h6.693v-.354h-.886a1.7,1.7,0,0,1-.8-.43,1.518,1.518,0,0,1-.316-.418,2.644,2.644,0,0,1-.139-.38,4.429,4.429,0,0,1-.076-.607V24.051h2.037a1.683,1.683,0,0,1,.595.392c.215.215,1.151,1.442,2.037,2.619s1.721,2.315,1.746,2.328a4.125,4.125,0,0,0,2.126,1.265h3.9Zm-8.009-10h0a2.847,2.847,0,0,1-.734,1.417,2.4,2.4,0,0,1-1.442.709H81.99V15.586h1.949a2.8,2.8,0,0,1,.468.1h.19l.177.063h0l.164.089h0l.177.114h0l.342.278a2.834,2.834,0,0,1,.759,1.265A6.251,6.251,0,0,1,86.519,20.786Z" transform="translate(20.382 3.769)" fill="#fff"/>
      <path id="パス_5196" data-name="パス 5196" d="M212.38,30.63h0v-.418h-.734a2.138,2.138,0,0,1-1.2-.354,8.044,8.044,0,0,1-1.012-.873c-.367-.38-.772-.822-1.2-1.354L205.5,24.215a10.469,10.469,0,0,1-.936-1.265,2.316,2.316,0,0,0,.38-.253,6.16,6.16,0,0,0,.822-.721,4.568,4.568,0,0,0,1.442-3.859,4.163,4.163,0,0,0-2.265-3.378l-.19-.1-.2-.089h0a6.77,6.77,0,0,0-1.151-.354,8.414,8.414,0,0,0-1.4-.114H195.16V14.5h.329a3.593,3.593,0,0,1,.709.152,1.7,1.7,0,0,1,.721.4.936.936,0,0,1,.316.734V29.162a.987.987,0,0,1-.3.62,1.265,1.265,0,0,1-.645.38h-.316a1.493,1.493,0,0,1-.329,0h-.114v.4h6.706v-.4h-.9a1.759,1.759,0,0,1-.784-.418,1.8,1.8,0,0,1-.316-.43,1.593,1.593,0,0,1-.152-.367,2.2,2.2,0,0,0-.063-.62,2.747,2.747,0,0,1,0-.721V23.962h2.024a1.544,1.544,0,0,1,.607.38c.215.215,1.151,1.442,2.037,2.619s1.658,2.315,1.658,2.328a4.074,4.074,0,0,0,2.138,1.265h3.884Zm-8-10h0a2.948,2.948,0,0,1-.721,1.43,2.429,2.429,0,0,1-1.455.7h-2.315V15.447h1.949a2.643,2.643,0,0,1,.455.089h0l.19.063h0l.165.063h0l.165.076h0l.164.114h0l.354.278a2.809,2.809,0,0,1,.746,1.265A6.212,6.212,0,0,1,204.384,20.634Z" transform="translate(51.477 3.719)" fill="#fff"/>
      <path id="パス_5197" data-name="パス 5197" d="M266.536,30.579a1.961,1.961,0,0,1-.848-.215,1.505,1.505,0,0,1-.392-.291,1.86,1.86,0,0,1-.481-.835l-2.531-15.7h0l-6.478,13.551L249.025,13.51l-2.3,15.8a.569.569,0,0,1-.063.266,1.659,1.659,0,0,1-.114.316h0a1.37,1.37,0,0,1-.139.228.974.974,0,0,1-.759.443H244.9v.38h5.327v-.367H249.3a.873.873,0,0,1-.253,0h0a.9.9,0,0,1-.683-.582.924.924,0,0,1,0-.316l1.265-9.464,5.517,11h0l5.631-11.565,1.354,10.122a.9.9,0,0,1-.076.62.367.367,0,0,1-.253.139h0v.456h5.605v-.4Z" transform="translate(64.591 3.568)" fill="#fff"/>
      <path id="パス_5198" data-name="パス 5198" d="M218.5,15.175a1.8,1.8,0,0,1,1.177-.43h.24v-.4H213.81v.418h.392a1.923,1.923,0,0,1,.911.316.962.962,0,0,1,.38.569v13.7a1,1,0,0,1,0,.3.962.962,0,0,1-.316.38l-.24.152h-.974V30.6h6.111v-.24h-.215a1.8,1.8,0,0,1-1.2-.43.949.949,0,0,1-.291-.595V15.782a.949.949,0,0,1,.139-.607Z" transform="translate(56.343 3.788)" fill="#fff"/>
      <path id="パス_5199" data-name="パス 5199" d="M29.487,8.523,25.527,1.69A32.214,32.214,0,0,0,5.7,13.141l3.96,6.833A24.939,24.939,0,0,1,29.487,8.523Z" transform="translate(1.512 0.448)" fill="#fff"/>
      <path id="パス_5200" data-name="パス 5200" d="M7.212,29.188A24.736,24.736,0,0,1,10,17.8H2.1a32.227,32.227,0,0,0,0,22.889H10a24.686,24.686,0,0,1-2.784-11.5Z" transform="translate(0 4.699)" fill="#fff"/>
      <path id="パス_5201" data-name="パス 5201" d="M9.66,37.46,5.7,44.28A32.214,32.214,0,0,0,25.54,55.667l3.935-6.833A25,25,0,0,1,9.66,37.46Z" transform="translate(1.512 9.891)" fill="#fff"/>
      <path id="パス_5202" data-name="パス 5202" d="M26.35,48.9,30.3,55.731A32.163,32.163,0,0,0,50.125,44.343L46.152,37.46A24.964,24.964,0,0,1,26.35,48.9Z" transform="translate(6.99 9.891)" fill="#fff"/>
      <path id="パス_5203" data-name="パス 5203" d="M50.832,17.76H43a24.913,24.913,0,0,1,0,22.889h7.9a32.189,32.189,0,0,0,0-22.876Z" transform="translate(11.407 4.688)" fill="#fff"/>
      <path id="パス_5204" data-name="パス 5204" d="M46.152,19.96,50.1,13.128A32.176,32.176,0,0,0,30.272,1.74L26.35,8.522a24.913,24.913,0,0,1,19.8,11.438Z" transform="translate(6.99 0.462)" fill="#fff"/>
      <path id="パス_5205" data-name="パス 5205" d="M25.79,23.66Z" transform="translate(6.842 6.256)" fill="#fff"/>
      <path id="パス_5206" data-name="パス 5206" d="M27.929,40.95c-.228.43-.3.835-.164.911s.418-.228.645-.658.291-.835.152-.911S28.144,40.52,27.929,40.95Z" transform="translate(7.347 10.65)" fill="#fff"/>
      <path id="パス_5207" data-name="パス 5207" d="M25.573,23.809v.645l.418.089c.531-1.746,1.075-3.492,1.645-5.251.38-1.189.772-2.366,1.164-3.555a2.429,2.429,0,0,1-.633.367,2.164,2.164,0,0,1-.784.114A2.126,2.126,0,0,1,25.56,15.18Z" transform="translate(6.781 4.012)" fill="#fff"/>
      <path id="パス_5208" data-name="パス 5208" d="M38.811,25.763a13.766,13.766,0,0,0-3.682-.278h-.354a1.873,1.873,0,0,0-.253.595,2.164,2.164,0,0,0,0,.392v.3a12.653,12.653,0,0,1,2.682.784l.683.316a1.733,1.733,0,0,1-.114-.62A1.632,1.632,0,0,1,38.811,25.763Z" transform="translate(9.156 6.731)" fill="#fff"/>
      <path id="パス_5209" data-name="パス 5209" d="M14,27.269V27.4a2.088,2.088,0,0,1-.114.544c.215-.114.443-.215.683-.316a12.716,12.716,0,0,1,2.67-.784.747.747,0,0,0,0-.177v-.127a1.8,1.8,0,0,0-.291-.987h-.367a13.665,13.665,0,0,0-3.581.2,1.632,1.632,0,0,1,1,1.518Z" transform="translate(3.449 6.744)" fill="#fff"/>
      <path id="パス_5210" data-name="パス 5210" d="M16.981,27.459h0a1.468,1.468,0,0,1-.228.468h0a8.25,8.25,0,0,1,2.531-1.847h0a1.265,1.265,0,0,0,.683-1.151v-.063A1.265,1.265,0,0,0,18.7,23.6h-.1a10.122,10.122,0,0,0-3.53,1.265.936.936,0,0,1,.266,0,1.544,1.544,0,0,1,.835.316,2.164,2.164,0,0,1,.9,1.733.468.468,0,0,1,0,.139A1.265,1.265,0,0,1,16.981,27.459Z" transform="translate(3.998 6.239)" fill="#fff"/>
      <path id="パス_5211" data-name="パス 5211" d="M35.8,25.229a1.594,1.594,0,0,1,.709-.291,1.367,1.367,0,0,1,.392,0l-.2-.114a10.122,10.122,0,0,0-3.328-1.164h-.1a1.306,1.306,0,0,0-.607,2.455h0a8.414,8.414,0,0,1,2.531,1.847h0a1.151,1.151,0,0,1-.228-.468h0a2.251,2.251,0,0,1,0-.329v-.139a2.783,2.783,0,0,1,0-.456,2.164,2.164,0,0,1,.835-1.341Z" transform="translate(8.484 6.255)" fill="#fff"/>
      <path id="パス_5212" data-name="パス 5212" d="M36.575,18.663a1.835,1.835,0,0,1,.228-.62,2.2,2.2,0,0,1,.557-.633h0a18.549,18.549,0,0,0-4.745,1.67h0a1.518,1.518,0,0,0-.354,2.391,1.48,1.48,0,0,0,1.05.481h0a13.109,13.109,0,0,1,1.582-.1,12.577,12.577,0,0,1,3.151.4.114.114,0,0,0-.076,0,2.126,2.126,0,0,1-1.2-1.164,4.555,4.555,0,0,1-.278-2.138.633.633,0,0,1,.089-.291Z" transform="translate(8.444 4.602)" fill="#fff"/>
      <path id="パス_5213" data-name="パス 5213" d="M36.518,23.342a3.909,3.909,0,0,1,.24-.772,1.923,1.923,0,0,1,1.126-1.05,12.147,12.147,0,0,0-3.024-.38,13.828,13.828,0,0,0-1.455.076,1.4,1.4,0,0,0-1.265,1.4,1.455,1.455,0,0,0,.19.747,1.367,1.367,0,0,0,1.025.645h0a10.907,10.907,0,0,1,3.4,1.189l.266.164h0a1.974,1.974,0,0,1-.544-1.658A2.076,2.076,0,0,1,36.518,23.342Z" transform="translate(8.526 5.588)" fill="#fff"/>
      <path id="パス_5214" data-name="パス 5214" d="M34.488,13.611v-.1q-1.835,2.05-3.555,4.213a1.468,1.468,0,0,0-.253.822,1.442,1.442,0,0,0,1.151,1.4,1.088,1.088,0,0,0,.291,0h0a1.392,1.392,0,0,0,.595-.127,19.346,19.346,0,0,1,4.821-1.708h-.127a1.86,1.86,0,0,1-.455,0,2.088,2.088,0,0,1-.911-.43,5.061,5.061,0,0,1-1.67-2.531,2.265,2.265,0,0,1,0-1.05,2.3,2.3,0,0,1,.114-.493Z" transform="translate(8.139 3.571)" fill="#fff"/>
      <path id="パス_5215" data-name="パス 5215" d="M27.6,23.893a19.308,19.308,0,0,1,5.479-4.656h-.164a1.746,1.746,0,0,1-1.392-1.708V17.44c-.228.278-.443.569-.658.873-1.531,2.05-2.973,4.163-4.3,6.326a.987.987,0,0,1,.392.089C27.117,24.475,27.37,24.171,27.6,23.893Z" transform="translate(7.046 4.609)" fill="#fff"/>
      <path id="パス_5216" data-name="パス 5216" d="M30.825,17.577a2.075,2.075,0,0,1-1.936-1.354,1.48,1.48,0,0,1-.063-.253q-.544,1.62-1.063,3.226c-.582,1.8-1.139,3.593-1.683,5.377a.822.822,0,0,1,.228.481q2.05-3.378,4.428-6.567l.8-1.05a1.961,1.961,0,0,1-.709.139Z" transform="translate(6.919 4.22)" fill="#fff"/>
      <path id="パス_5217" data-name="パス 5217" d="M33.451,14.1h-.367A4.9,4.9,0,0,1,31,13.113a2.265,2.265,0,0,1-.734-1.088,2.328,2.328,0,0,1-.089-.595c-.557,1.582-1.1,3.176-1.632,4.757h0a1.48,1.48,0,0,0-.1.582,1.771,1.771,0,0,0,.1.595,1.746,1.746,0,0,0,1.645,1.151,1.721,1.721,0,0,0,1.265-.569h0q1.683-2.126,3.492-4.137h0a2.062,2.062,0,0,1-1.493.291Z" transform="translate(7.545 3.021)" fill="#fff"/>
      <path id="パス_5218" data-name="パス 5218" d="M29.29,12.211h-.329a5.061,5.061,0,0,1-2.341-.645,2.138,2.138,0,0,1-1.05-1.7h0v5.681a1.759,1.759,0,0,0,.266.949,1.835,1.835,0,0,0,3.239-.215h0c.531-1.582,1.063-3.151,1.62-4.707h0a2.151,2.151,0,0,1-1.4.633Z" transform="translate(6.783 2.609)" fill="#fff"/>
      <path id="パス_5219" data-name="パス 5219" d="M25.342,11.568a5.061,5.061,0,0,1-2.353.645h-.316a2.214,2.214,0,0,1-1.392-.633h0c.557,1.556,1.088,3.125,1.62,4.707h0a1.835,1.835,0,0,0,3.239.215,1.759,1.759,0,0,0,.266-.949h0V9.86h0A2.138,2.138,0,0,1,25.342,11.568Z" transform="translate(5.645 2.606)" fill="#fff"/>
      <path id="パス_5220" data-name="パス 5220" d="M21.984,11.861a2.164,2.164,0,0,1-.747,1.265,5.061,5.061,0,0,1-2.1.987H18.77a2.113,2.113,0,0,1-1.48-.3h0q1.784,1.974,3.429,4.1h0a1.721,1.721,0,0,0,1.265.569,1.736,1.736,0,0,0,1.746-1.746,1.911,1.911,0,0,0-.076-.557c-.544-1.607-1.088-3.2-1.658-4.8A2.075,2.075,0,0,1,21.984,11.861Z" transform="translate(4.587 3.008)" fill="#fff"/>
      <path id="パス_5221" data-name="パス 5221" d="M15.058,25.348h0a10.363,10.363,0,0,1,3.619-1.265h0a1.367,1.367,0,0,0,1.2-1.189,1.025,1.025,0,0,0,0-.2,1.417,1.417,0,0,0-1.265-1.4,13.347,13.347,0,0,0-1.43-.076,11.387,11.387,0,0,0-2.088.177,7.692,7.692,0,0,0-.936.2,1.961,1.961,0,0,1,1.126,1.05,3.91,3.91,0,0,1,.24.772,2.075,2.075,0,0,1,0,.316,1.936,1.936,0,0,1-.544,1.645Z" transform="translate(3.757 5.607)" fill="#fff"/>
      <path id="パス_5222" data-name="パス 5222" d="M14.186,22.178a.114.114,0,0,0-.076,0,8.984,8.984,0,0,1,1.012-.215,12,12,0,0,1,2.138-.19,12.488,12.488,0,0,1,1.544.1h.063a1.493,1.493,0,0,0,1.265-.721,1.518,1.518,0,0,0-.569-2.113h0a18.549,18.549,0,0,0-4.745-1.67h0a2.138,2.138,0,0,1,.784,1.265,1.392,1.392,0,0,1,0,.2,4.72,4.72,0,0,1-.266,2.138,2.189,2.189,0,0,1-1.151,1.2Z" transform="translate(3.743 4.592)" fill="#fff"/>
      <path id="パス_5223" data-name="パス 5223" d="M16.321,17.66a1.987,1.987,0,0,1-.9.43,1.86,1.86,0,0,1-.455,0H14.79A19.523,19.523,0,0,1,19.611,19.8a1.354,1.354,0,0,0,.595.127,1.442,1.442,0,0,0,1.442-1.43h0a1.518,1.518,0,0,0-.253-.772q-1.708-2.164-3.555-4.213v.1a2.3,2.3,0,0,1,.164.468,2.265,2.265,0,0,1,0,1.05A5.061,5.061,0,0,1,16.321,17.66Z" transform="translate(3.924 3.571)" fill="#fff"/>
      <path id="パス_5224" data-name="パス 5224" d="M25.654,24.645h0a80.1,80.1,0,0,0-4.947-7.225v.089a1.746,1.746,0,0,1-1.556,1.733A19.485,19.485,0,0,1,24.629,23.9l.645.835a.759.759,0,0,1,.38-.089Z" transform="translate(5.08 4.604)" fill="#fff"/>
      <path id="パス_5225" data-name="パス 5225" d="M25.941,24.587c-.1-.354-.215-.709-.316-1.075q-1.158-3.8-2.417-7.592a.835.835,0,0,1-.076.253,2.05,2.05,0,0,1-1.923,1.354,1.961,1.961,0,0,1-.709-.139l.127.177a82.7,82.7,0,0,1,5.061,7.326A1.139,1.139,0,0,1,25.941,24.587Z" transform="translate(5.438 4.207)" fill="#fff"/>
      <path id="パス_5226" data-name="パス 5226" d="M25.991,15.22a2.126,2.126,0,0,1-1.822,1.038,2.151,2.151,0,0,1-1.379-.506q1.265,3.935,2.531,7.857c.1.316.19.645.291.962l.127-.063h0c.24-.076.278,0,.278,0V15.22Z" transform="translate(6.046 4.022)" fill="#fff"/>
      <path id="パス_5227" data-name="パス 5227" d="M32.976,25.79a8.275,8.275,0,0,0-3.151-.62,9.805,9.805,0,0,0-1.265.089.949.949,0,0,1,.228.924h0a3.8,3.8,0,0,1,1.759.3,4.4,4.4,0,0,1,2.1,1.733,7.149,7.149,0,0,1-.139-1.038,1.733,1.733,0,0,1,.291-1.265.519.519,0,0,1,.177-.127Z" transform="translate(7.577 6.654)" fill="#fff"/>
      <path id="パス_5228" data-name="パス 5228" d="M28.652,25.379a8.338,8.338,0,0,1,1.265-.089,8.5,8.5,0,0,1,2.948.519,1.683,1.683,0,0,1-.228-.835,1.632,1.632,0,0,1,.228-.822,1.746,1.746,0,0,1,.595-.582h-.747a9.793,9.793,0,0,0-4.454,1.025.9.9,0,0,1,.24.62,1.393,1.393,0,0,1,0,.228Z" transform="translate(7.497 6.231)" fill="#fff"/>
      <path id="パス_5229" data-name="パス 5229" d="M28.138,24.957a10.008,10.008,0,0,1,2.657-.911,10.186,10.186,0,0,1,2.062-.215H33.6a1.721,1.721,0,0,1,0-2.531,10.869,10.869,0,0,0-1.063.266,11.982,11.982,0,0,0-5.061,3.011,1.632,1.632,0,0,1,.2.215.936.936,0,0,1,.455.164Z" transform="translate(7.29 5.631)" fill="#fff"/>
      <path id="パス_5230" data-name="パス 5230" d="M27.358,25.044a12.349,12.349,0,0,1,5.2-3.138,11.388,11.388,0,0,1,1.265-.316,1.734,1.734,0,0,1-.493-.367,1.771,1.771,0,0,1-.519-1.265,1.746,1.746,0,0,1,.2-.848A19.182,19.182,0,0,0,27.7,23.652c-.215.266-.418.531-.62.81a.974.974,0,0,1,.278.569Z" transform="translate(7.184 5.051)" fill="#fff"/>
      <path id="パス_5231" data-name="パス 5231" d="M24.958,25.032a.974.974,0,0,1,.278-.569c-.2-.278-.418-.544-.62-.81A19.359,19.359,0,0,0,19.3,19.11a1.9,1.9,0,0,1,.2.848,1.771,1.771,0,0,1-.253.924,1.746,1.746,0,0,1-.772.709,9.856,9.856,0,0,1,1.265.3,12.387,12.387,0,0,1,5.226,3.151Z" transform="translate(4.903 5.051)" fill="#fff"/>
      <path id="パス_5232" data-name="パス 5232" d="M24.452,24.835a1.076,1.076,0,0,1,.2-.215A12.008,12.008,0,0,0,19.593,21.6q-.519-.152-1.063-.266a1.733,1.733,0,0,1,.544,1.265,1.4,1.4,0,0,1,0,.24,1.632,1.632,0,0,1-.544,1.038h.747a10.185,10.185,0,0,1,2.062.215A10.008,10.008,0,0,1,24,25a.936.936,0,0,1,.456-.164Z" transform="translate(4.916 5.639)" fill="#fff"/>
      <path id="パス_5233" data-name="パス 5233" d="M21.978,25.17a8.262,8.262,0,0,0-3.138.62l.127.114a1.544,1.544,0,0,1,.291.974,5.529,5.529,0,0,1-.139,1.341,4.4,4.4,0,0,1,2.1-1.733,3.8,3.8,0,0,1,1.759-.266h0v-.2h0a.962.962,0,0,1,.266-.658,9.831,9.831,0,0,0-1.265-.19Z" transform="translate(4.998 6.654)" fill="#fff"/>
      <path id="パス_5234" data-name="パス 5234" d="M21.288,23.74a10.628,10.628,0,0,0-2.012-.19H18.53a1.607,1.607,0,0,1,.81,1.329.164.164,0,0,1,0,.076,1.569,1.569,0,0,1-.24.835,8.6,8.6,0,0,1,2.948-.519,8.389,8.389,0,0,1,1.265.089h.19a1.391,1.391,0,0,1,0-.228.9.9,0,0,1,.24-.62A10.717,10.717,0,0,0,21.288,23.74Z" transform="translate(4.916 6.226)" fill="#fff"/>
      <path id="パス_5235" data-name="パス 5235" d="M17.284,28.329V28.24a1.265,1.265,0,0,0-.481-.709.468.468,0,0,1,0-.658l.076-.114a12.488,12.488,0,0,0-2.455.734l-.164.063a1.607,1.607,0,0,1,1.265,1.582h0a12.868,12.868,0,0,1,1.759-.81Z" transform="translate(3.783 7.075)" fill="#fff"/>
      <path id="パス_5236" data-name="パス 5236" d="M17.063,29.545a11.388,11.388,0,0,0-.114-1.265,11.021,11.021,0,0,0-1.189.531h.1a1.746,1.746,0,0,1,1.2.734Z" transform="translate(4.181 7.477)" fill="#fff"/>
      <path id="パス_5237" data-name="パス 5237" d="M19,29.343c0-.063.063-.114.089-.177l.089-.19a7.592,7.592,0,0,0,.392-2.252,1.177,1.177,0,0,0-.228-.784.392.392,0,0,0-.291-.139,8.313,8.313,0,0,0-2.531,1.9,1.493,1.493,0,0,1,.468.759,2.745,2.745,0,0,0,.089.418A27.836,27.836,0,0,1,16.9,35.2,44.765,44.765,0,0,1,19,29.343Z" transform="translate(4.383 6.818)" fill="#fff"/>
      <path id="パス_5238" data-name="パス 5238" d="M10.613,34.694a4.454,4.454,0,0,0,1.632,1.986l.342.19a9.313,9.313,0,0,1,1.265.8,7.326,7.326,0,0,1,1.43,1.341,7.047,7.047,0,0,1,.658,1.075c.177.329.354.633.481.633s.468-.291.835-.936a21.092,21.092,0,0,0,.987-2.657,54.331,54.331,0,0,0,.544-5.643,12.159,12.159,0,0,0-3.619,5.226.164.164,0,0,1-.152.1h0a.152.152,0,0,1-.089-.2,12.488,12.488,0,0,1,3.884-5.517h0a1.455,1.455,0,0,0-1.265-1.265h-.2a1.493,1.493,0,0,0-.633.139,12.4,12.4,0,0,0-3.96,3.821.177.177,0,0,1-.139.076h-.076a.152.152,0,0,1,0-.215,12.754,12.754,0,0,1,4.011-3.986,1.265,1.265,0,0,0,0-.215h0a1.265,1.265,0,0,0-1.265-1.265,1.392,1.392,0,0,0-.506.1,12.248,12.248,0,0,0-2.885,2.088.2.2,0,0,1-.114,0,.124.124,0,0,1-.114-.215A12.792,12.792,0,0,1,14.4,28.14a1.329,1.329,0,0,0,.342-.822v-.152A1.265,1.265,0,0,0,13.409,25.9h-.24a11.767,11.767,0,0,0-3.859,1.835.392.392,0,0,0-.139.278.519.519,0,0,0,.114.354,1.354,1.354,0,0,0,.228.19,3.075,3.075,0,0,1,.886.949,2.758,2.758,0,0,1,.354,1.075,3.214,3.214,0,0,1-.164,1.379,4.517,4.517,0,0,0,.025,2.733Z" transform="translate(2.433 6.842)" fill="#fff"/>
      <path id="パス_5239" data-name="パス 5239" d="M37.311,27.587l-.152-.063A12.488,12.488,0,0,0,34.7,26.79l.076.114a.468.468,0,0,1,0,.658,1.265,1.265,0,0,0-.481.709.811.811,0,0,1,0,.089,12.867,12.867,0,0,1,1.784.86h0A1.62,1.62,0,0,1,37.311,27.587Z" transform="translate(9.099 7.083)" fill="#fff"/>
      <path id="パス_5240" data-name="パス 5240" d="M35.4,28.811a11.02,11.02,0,0,0-1.189-.531,9.022,9.022,0,0,0-.114,1.265A1.759,1.759,0,0,1,35.4,28.811Z" transform="translate(9.046 7.477)" fill="#fff"/>
      <path id="パス_5241" data-name="パス 5241" d="M34.545,28.457a1.493,1.493,0,0,1,.468-.759,8.465,8.465,0,0,0-2.531-1.9.392.392,0,0,0-.3.139A1.556,1.556,0,0,0,31.964,27a8.642,8.642,0,0,0,.392,1.974,1.265,1.265,0,0,0,.089.19c.266.531.519,1.139.759,1.759.633,1.607,1.164,3.34,1.455,4.327a27.836,27.836,0,0,1-.177-6.326A1.365,1.365,0,0,0,34.545,28.457Z" transform="translate(8.475 6.818)" fill="#fff"/>
      <path id="パス_5242" data-name="パス 5242" d="M43.4,28.559a1.114,1.114,0,0,0,.24-.19.519.519,0,0,0,.114-.354.443.443,0,0,0-.139-.278A11.274,11.274,0,0,0,41.188,26.4a13.374,13.374,0,0,0-1.43-.493h-.24a1.265,1.265,0,0,0-.987,2.214,12.792,12.792,0,0,1,2.733,2.012.139.139,0,0,1,0,.215.114.114,0,0,1-.1,0,.2.2,0,0,1-.114,0,12.248,12.248,0,0,0-2.885-2.088,1.392,1.392,0,0,0-.506-.1,1.265,1.265,0,0,0-1.265,1.265h0a1.265,1.265,0,0,0,0,.215,12.754,12.754,0,0,1,4,3.986.164.164,0,0,1,0,.215h-.076a.177.177,0,0,1-.139-.076,12.526,12.526,0,0,0-3.96-3.9,1.48,1.48,0,0,0-1.822.468,1.442,1.442,0,0,0-.253.683h0a12.488,12.488,0,0,1,3.922,5.517.152.152,0,0,1-.089.2h0a.164.164,0,0,1-.152-.1,12.083,12.083,0,0,0-3.631-5.226,55.733,55.733,0,0,0,.557,5.643,20.344,20.344,0,0,0,.987,2.657c.367.645.569.936.835.936s.3-.3.468-.633a8.453,8.453,0,0,1,.671-1.075,7.719,7.719,0,0,1,1.316-1.265,10.122,10.122,0,0,1,1.265-.8l.354-.19A4.454,4.454,0,0,0,42.276,34.7a4.517,4.517,0,0,0,0-2.771,2.9,2.9,0,0,1,.19-2.455,3.2,3.2,0,0,1,.936-.911Z" transform="translate(9.057 6.84)" fill="#fff"/>
      <path id="パス_5243" data-name="パス 5243" d="M22.5,40.282c-.127,0,0,.468.164.9s.506.734.645.658,0-.468-.164-.9S22.64,40.219,22.5,40.282Z" transform="translate(5.956 10.648)" fill="#fff"/>
      <path id="パス_5244" data-name="パス 5244" d="M26.453,32.847h0a1.265,1.265,0,0,1-.456-.81h0a.531.531,0,0,0-.266-.519h0a1.417,1.417,0,0,1-.8-1.113,1.126,1.126,0,0,0-.62-.835,4.593,4.593,0,0,0,.734,2.986h0A12.88,12.88,0,0,1,26,38.047a6.44,6.44,0,0,0,1.594-3.34c0-.4-.2-.481-.228-.493h0a.936.936,0,0,1-.481-.747h0a.607.607,0,0,0-.43-.62Z" transform="translate(6.444 7.815)" fill="#fff"/>
      <path id="パス_5245" data-name="パス 5245" d="M25.485,24.6h0a.519.519,0,0,0-.253.3.354.354,0,0,0,.1.291.835.835,0,0,1,.3.569.759.759,0,0,1-.342.595h0a.6.6,0,0,0-.291.784.784.784,0,0,1-.24,1.012.848.848,0,0,0-.291.835,1.367,1.367,0,0,1-.1.987.987.987,0,0,0,.1,1.038,1.392,1.392,0,0,1,.8,1.088,1.113,1.113,0,0,0,.468.759,12.526,12.526,0,0,1,.456-4.909,8.857,8.857,0,0,0-.43-5.061,1.05,1.05,0,0,0,0,.721.784.784,0,0,1-.278.987Z" transform="translate(6.438 6.049)" fill="#fff"/>
      <path id="パス_5246" data-name="パス 5246" d="M25.82,23.24Z" transform="translate(6.85 6.145)" fill="#fff"/>
      <path id="パス_5247" data-name="パス 5247" d="M27.669,42.76a1.594,1.594,0,0,1-.86.721,3.138,3.138,0,0,1-2.088,0A1.822,1.822,0,0,1,24,42.823a1.936,1.936,0,0,0,.456.759,1.7,1.7,0,0,0,1.354.481h.544a1.442,1.442,0,0,0,.873-.456,1.936,1.936,0,0,0,.456-.759h0Z" transform="translate(6.367 11.305)" fill="#fff"/>
      <path id="パス_5248" data-name="パス 5248" d="M32.63,38.621a1.088,1.088,0,0,1,0,.2,2.29,2.29,0,0,1-1.67,2.2,5.909,5.909,0,0,1-1.265,1.025h0a.152.152,0,0,1-.2,0c0-.342.329-.24.924-.822h0a1.873,1.873,0,0,0,.531-.531c.354-.089,1.113-.4,1.442-1.759a10.413,10.413,0,0,0-3.1-10.818c.114-.7,1.265-1.189,1.265-1.189a.645.645,0,0,0-.43-.962h0a.835.835,0,0,0-.8-1.189.6.6,0,0,0-.569-.4,1.442,1.442,0,0,0,0-.316h0a.683.683,0,0,0-1.012-.392,1.189,1.189,0,0,0-.607-.8h0l-.152-.089c.089.2.164.4.24.607v-.127a.658.658,0,0,0,0,.139c1.455,3.986-1.265,6.326.076,10.464,0,.658.924.607.848,1.455a.658.658,0,0,0,.291.468c1.063.418.1,3.138-1.8,4.9a14.07,14.07,0,0,0-.873-6.111,5.061,5.061,0,0,1-.759-3.48h0a1.455,1.455,0,0,1,0-1.151c.367-.86-.367-1.113.468-1.911.671-.544-.544-1.126.582-1.822.607-.481-.367-.784-.19-1.265a.86.86,0,0,1,.392-.506c.443-.367-.24-.848.127-1.569-.582.076-.772.886-.747.873-.772-.367-.886.582-.886.582-.569-.177-.683.569-.683.569a.886.886,0,0,0-.822,1,.86.86,0,0,0-.468.974c.8.063,1.468,1.265,1.468,1.265-4.3,2.885-4.555,11.615-1.759,12.526a2,2,0,0,0,.544.531h0c.595.582.949.481.924.822s-.683-.215-1.506-.949a2.29,2.29,0,0,1-1.658-2.4,4.264,4.264,0,0,0,.291,1.974h0a.988.988,0,0,0,0,.139v.089a13.222,13.222,0,0,0,1.9,3.568h0a2.3,2.3,0,0,1,1.151,2.353c.645.633.822,1.556,2.075,1.683a4.568,4.568,0,0,0,1.177,0c.936-.2,1.265-.936,1.822-1.67a2.341,2.341,0,0,1,1.151-2.353,12.944,12.944,0,0,0,1.771-3.277,4.682,4.682,0,0,0,.493-2.543Z" transform="translate(5.481 6.011)" fill="#fff"/>
      <path id="パス_5249" data-name="パス 5249" d="M30.292,1.974,26.256,0,22.22,1.974l4.062,7.035Z" transform="translate(5.895)" fill="#fff"/>
      <path id="パス_5250" data-name="パス 5250" d="M22.28,53.695l4.036,1.974,4.036-1.974L26.342,46.66Z" transform="translate(5.911 12.331)" fill="#fff"/>
      <path id="パス_5251" data-name="パス 5251" d="M5.959,11.45,2.226,13.955,1.91,18.434l8.123.025Z" transform="translate(0.507 3.026)" fill="#fff"/>
      <path id="パス_5252" data-name="パス 5252" d="M46.622,43.675l3.733-2.493.316-4.492-8.11-.051Z" transform="translate(11.291 9.684)" fill="#fff"/>
      <path id="パス_5253" data-name="パス 5253" d="M1.8,36.693l.3,4.492L5.811,43.7l4.1-7.022Z" transform="translate(0.478 9.695)" fill="#fff"/>
      <path id="パス_5254" data-name="パス 5254" d="M50.693,18.52,50.4,14.041l-3.72-2.531L42.57,18.494Z" transform="translate(11.293 3.042)" fill="#fff"/>
      <path id="パス_5255" data-name="パス 5255" d="M29.878,38.411A5.744,5.744,0,0,0,32,39.246a3.163,3.163,0,0,0,2.606-.456,2.366,2.366,0,0,0,.9-2.126l-.114-.164a1.62,1.62,0,0,1-.278-.354,1.493,1.493,0,0,1-.164-.544c0-.076,0-.19-.063-.24h0a.519.519,0,0,1-.506.152.531.531,0,0,1-.4-.354v-.076h0a.747.747,0,0,1-.481.152H33.37a.557.557,0,0,1-.316-.215h0l-.139.114a3.556,3.556,0,0,1-.936.582,3.619,3.619,0,0,1-1.139.253h-.076l-.063.3h0a3.8,3.8,0,0,0,3.2-.455.164.164,0,0,1,.228,0,.177.177,0,0,1,0,.228,3.328,3.328,0,0,1-2.164.709,4.745,4.745,0,0,1-1.329-.19h0a.933.933,0,0,1-.076.342c.342.114,2.682.86,4.226-.177a.177.177,0,0,1,.24,0,.164.164,0,0,1,0,.228,3.922,3.922,0,0,1-2.455.7,7.591,7.591,0,0,1-2.278-.38,1.446,1.446,0,0,1-.114.38c.278.114,2.733,1.151,4.175.342a.183.183,0,0,1,.215.278,3.138,3.138,0,0,1-1.531.354,7.832,7.832,0,0,1-3-.683,3.8,3.8,0,0,1-.2.456Z" transform="translate(7.916 9.258)" fill="#fff"/>
      <path id="パス_5256" data-name="パス 5256" d="M17.413,38.767a3.138,3.138,0,0,0,2.606.443,5.744,5.744,0,0,0,2.1-.848h0l-.19-.456a7.984,7.984,0,0,1-2.91.671,3.163,3.163,0,0,1-1.531-.342.164.164,0,0,1,0-.228.152.152,0,0,1,.215,0c1.43.81,3.9-.228,4.163-.354l-.114-.38a7.048,7.048,0,0,1-2.265.392,4.087,4.087,0,0,1-2.252-.607.164.164,0,0,1,0-.24.152.152,0,0,1,.228,0c1.544,1.025,3.9.278,4.239.164a1.4,1.4,0,0,0-.089-.329h0a5.163,5.163,0,0,1-1.341.177,3.29,3.29,0,0,1-2.151-.7.152.152,0,0,1,0-.228.164.164,0,0,1,.228,0,3.8,3.8,0,0,0,3.189.468h0v-.316h-.076a3.8,3.8,0,0,1-1.151-.253,3.429,3.429,0,0,1-.924-.582.936.936,0,0,0-.152-.114h0a.6.6,0,0,1-.329.215h-.114a.746.746,0,0,1-.493-.152h0a.544.544,0,0,1-.911.2h0v.24a1.949,1.949,0,0,1-.177.544,1.67,1.67,0,0,1-.266.354.43.43,0,0,0-.114.152,2.341,2.341,0,0,0,.582,2.1Z" transform="translate(4.451 9.281)" fill="#fff"/>
    </g>
  </g>
</svg>
