<svg id="レイヤー_2" data-name="レイヤー 2" xmlns="http://www.w3.org/2000/svg" width="31.325" height="51.807" viewBox="0 0 31.325 51.807">
  <g id="layout" transform="translate(0 0)">
    <path id="パス_11208" data-name="パス 11208" d="M16.857,45.939c6,0,7.374-.423,8.749-1.586a15.859,15.859,0,0,0,3.806-5.63c.238-.5.449-.582,1.163-.37s.793.449.714.872c-.925,3.7-2.379,8.828-3.595,12.582-4.626-.211-8.749-.211-13.375-.211s-8.8,0-13.427.211c-.661,0-.872-.159-.872-1.3a2.352,2.352,0,0,1,.5-1.877A169.376,169.376,0,0,1,13.236,30.423c5.868-7.665,9.251-11.577,9.251-18.132,0-5.709-2.379-10.044-6.872-10.044A6.449,6.449,0,0,0,9.4,6.291a13.56,13.56,0,0,0-.714,5.286c0,1.93-2.643,3.251-4.916,3.251-1.507,0-2.643-.582-2.643-2.643C1.1,7.586,6.892,0,15.614,0S29.57,5.63,29.57,12.582c0,9.013-5.762,12.476-12.634,19.137A63.648,63.648,0,0,0,5.015,45.86Z" transform="translate(0.012)" fill="#fff"/>
  </g>
</svg>
