<svg id="レイヤー_2" data-name="レイヤー 2" xmlns="http://www.w3.org/2000/svg" width="27.811" height="48.736" viewBox="0 0 27.811 48.736">
  <g id="layout" transform="translate(0 0)">
    <path id="パス_13137" data-name="パス 13137" d="M5.473,18.865c0,1.015-.2,2.154-.322,3.516a11.664,11.664,0,0,1,9.534-4.136c7.925,0,13.125,5.77,13.125,14.487S22.462,48.705,13.2,48.705a16.989,16.989,0,0,1-8.742-2.3C2.3,45.189,0,43.084,0,40.855c0-1.412,1.634-2.774,4.185-2.774s3,3.244,3.789,4.953A5.671,5.671,0,0,0,13.2,46.6c5.622,0,7.974-6.018,7.974-13.793s-3.839-12.06-8.049-12.06A8.94,8.94,0,0,0,5,25.7c-.4.693-.817.743-1.882.347s-.892-.743-.743-1.362A17.235,17.235,0,0,0,2.65,22.8L4.458,1.6a1.09,1.09,0,0,1,.5-.891A.876.876,0,0,1,5.7.317H15.6c2.476,0,6.488,0,10.822-.347.421,0,.545.2.545.619L25.285,5.542a.768.768,0,0,1-.693.471c-2.774,0-4.656-.124-7.306-.124H6.637Z" transform="translate(0 0.03)" fill="#fff"/>
  </g>
</svg>
