<svg xmlns="http://www.w3.org/2000/svg" width="51.6" height="33.421" viewBox="0 0 51.6 33.421">
  <g id="グループ_3054" data-name="グループ 3054" transform="translate(-500.385 -2424.841)">
    <path id="パス_21252" data-name="パス 21252" d="M23.786,10.771c-.458.137-.65.092-.833-.5s-.092-.65.467-.833a73.8,73.8,0,0,0,8.93-3.984c.467,0,.742.275.742.559-.046,3.664-.183,6.292-.183,10.075V30.262c0,4.58.046,5.147.513,6.072s2.216.971,4.122,1.154c.321,0,.412.183.412.7s-.092.65-.412.65c-2.042-.1-4.58-.192-6.485-.192-2.226,0-4.488.092-6.668.192-.366,0-.458-.1-.458-.65s.137-.65.458-.7c1.832-.137,3.471-.183,4.03-1.154s.5-3.013.5-6.072V13.876a7.327,7.327,0,0,0-.5-3.425,1.319,1.319,0,0,0-1.209-.559,5.312,5.312,0,0,0-1.667.33Z" transform="translate(477.519 2419.391)" fill="#fff"/>
    <path id="パス_21253" data-name="パス 21253" d="M61.172,30.466c0,4.58,0,5.239.467,6.118s2,.971,3.755,1.154c.366,0,.458.092.458.559s-.092.6-.458.6c-2-.137-4.58-.183-6.485-.183s-4.167,0-5.972.183c-.376,0-.467-.092-.467-.55s.092-.559.421-.6c1.621-.183,2.821-.183,3.334-1.154s.55-3.013.55-6.118V14.035c0-4.4,0-4.955-.5-5.972C55.8,7.147,54.321,7.147,52.516,7c-.275,0-.366-.137-.366-.559,0-.6.092-.742.366-.742,3.893.183,8.243.238,11.907.238S71.97,5.938,76,5.7c.183,2.363.559,5.138.916,7.5.046.284,0,.467-.55.559s-.6-.046-.7-.33a11.311,11.311,0,0,0-2.949-4.708c-1.383-.98-3.306-1.356-7.126-1.356-1.713,0-3.334.092-3.938,1.154s-.467,3.059-.467,5.5v6.759c.742.046,2,.046,2.876.046,3.013,0,5.276-.229,6.155-.916a4.9,4.9,0,0,0,1.392-3.05c.092-.33.137-.467.65-.467s.641.092.641.467c0,1.566-.137,3.1-.137,4.58,0,1.713.092,3.609.137,5.23,0,.33,0,.513-.6.513s-.6-.238-.7-.513c-.183-1.062-.513-2.684-1.484-3.38s-3.1-.824-6.063-.824a28.76,28.76,0,0,0-2.876.092Z" transform="translate(475.056 2419.369)" fill="#fff"/>
  </g>
</svg>
