<svg xmlns="http://www.w3.org/2000/svg" viewBox="0 0 38 14"><defs><style>.cls-1{fill:none;}.cls-2{isolation:isolate;}.cls-3{fill:#1a1a1a;}</style></defs><g id="レイヤー_2" data-name="レイヤー 2"><g id="レイヤー_1-2" data-name="レイヤー 1"><rect class="cls-1" width="38" height="14"/><g id="簡体字" class="cls-2"><g class="cls-2"><path class="cls-3" d="M2.24,7.59c0,3.16,0,4.23,0,5,0,.27-.2.4-.57.4s-.38-.1-.38-.35c0-.79.06-2.16.06-5.81,0-1.47,0-2.23,0-2.92a10.62,10.62,0,0,1-.94.67c-.06,0-.17-.09-.12-.14A8.34,8.34,0,0,0,1.82,2.21,4.89,4.89,0,0,0,2.22,1c1,.32,1.26.41,1.26.57s-.12.19-.51.23a5.11,5.11,0,0,1-.34.6H4.74c.45-.51.54-.58.61-.58s.18.07.66.44c.22.18.27.26.27.33s0,.13-.18.13H3.54c.62.26.93.58.93.9A.48.48,0,0,1,4,4.13c-.25,0-.33-.11-.4-.51a1.89,1.89,0,0,0-.43-.9H2.42a6.3,6.3,0,0,1-1,1.12,6.54,6.54,0,0,1,.94.44h2.3c.37-.4.44-.44.51-.44s.17,0,.54.36c.18.18.24.25.24.32s-.06.17-.34.34v.58c0,1.13,0,1.64,0,1.81s-.16.41-.52.41-.37-.1-.37-.34V7.16H2.24Zm2.51-3H2.24v.94H4.75ZM2.24,6.84H4.75v-1H2.24Zm2.52,4.9c0,.26-.15.39-.5.39s-.37-.09-.37-.31,0-.76,0-2.37a10.8,10.8,0,0,0-.07-1.62,6.49,6.49,0,0,1,1,.48H7.41c.37-.39.44-.44.52-.44s.16,0,.54.36c.18.15.23.24.23.32s0,.15-.32.33v.66c0,1.29,0,1.92,0,2.11s-.15.39-.5.39-.36-.09-.36-.31v-.29H4.76ZM7.54,8.63H4.76v1H7.54ZM4.76,11.12H7.54V10H4.76ZM10.27,2.4c.49-.58.59-.64.67-.64s.18.06.74.47c.25.21.31.29.31.36s0,.13-.17.13H8.52c.63.27.94.57.94.89A.5.5,0,0,1,9,4.13c-.26,0-.35-.12-.41-.52a1.77,1.77,0,0,0-.39-.89H7.23A6.09,6.09,0,0,1,5.89,4S5.74,4,5.78,3.89a7.24,7.24,0,0,0,1-1.73A4.71,4.71,0,0,0,7.09,1c.79.21,1.22.36,1.22.5s-.11.2-.47.25c-.12.22-.25.43-.38.62ZM7.76,7.23c0,.27-.18.38-.53.38s-.36-.09-.36-.32,0-.68,0-1.9A14.38,14.38,0,0,0,6.83,3.8a7.31,7.31,0,0,1,1,.48h2.39c.37-.41.44-.45.53-.45s.15,0,.56.37c.2.18.24.26.24.34s-.06.16-.35.32v2c0,4.29,0,4.61,0,5.06a.77.77,0,0,1-.43.79,1.53,1.53,0,0,1-.76.22c-.14,0-.16,0-.19-.2-.06-.39-.2-.55-1-.77-.06,0-.06-.15,0-.15.62.05.94.08,1.34.08.14,0,.18,0,.18-.21V7.17H7.76Zm2.6-2.63H7.76v.94h2.6ZM7.76,6.85h2.6v-1H7.76Z"/><path class="cls-3" d="M15.53,7.57c0,3,0,4.47,0,4.9s-.18.45-.55.45-.44-.11-.44-.4,0-1.18.07-4.18c0-.81,0-1.6,0-2.41a13.86,13.86,0,0,1-1.53,1.66c-.06.06-.21-.08-.15-.15a14.74,14.74,0,0,0,2.41-4.68,9.2,9.2,0,0,0,.36-1.62c1.12.34,1.43.49,1.43.62S17,2,16.67,2a15.13,15.13,0,0,1-1.48,3.1c.62.1.72.15.72.28s-.06.18-.38.32Zm4.26,2c0-1,0-2,.06-4a11.37,11.37,0,0,1-3.91,4.58c-.08.05-.22-.09-.15-.16a13.61,13.61,0,0,0,3.49-5.4h-2a5.06,5.06,0,0,0-.84.08l-.13-.49a4,4,0,0,0,.95.09H19.8V2.93a11.51,11.51,0,0,0-.08-1.74c1.2.13,1.45.22,1.45.39s-.09.2-.46.37V4.28h2.48c.57-.68.66-.75.74-.75s.16,0,.72.53c.25.23.36.35.36.43s-.05.11-.18.11h-4a8.07,8.07,0,0,0,2.07,3,8.28,8.28,0,0,0,2.41,1.6c.06,0,0,.13-.06.14-.27,0-.42.22-.57.59-.07.19-.12.23-.24.23A1.08,1.08,0,0,1,24,9.91,7.84,7.84,0,0,1,22.23,8a11.3,11.3,0,0,1-1.54-3.25c0,1.59,0,3.18.06,4.78h.86c.44-.54.54-.61.62-.61s.17.07.65.48c.21.16.26.25.26.33s0,.12-.17.12H20.75c0,1.26,0,2.29,0,2.58s-.18.41-.61.41-.43-.11-.43-.33,0-1.39,0-2.66h-1.3a4.93,4.93,0,0,0-.81.07l-.13-.48a4.25,4.25,0,0,0,.91.09Z"/><path class="cls-3" d="M27.9,3.33c0,1-.5,1.7-1.09,1.7a.52.52,0,0,1-.52-.53c0-.26.08-.37.4-.55a1.66,1.66,0,0,0,.92-1.55c0-.08.16-.08.18,0s.07.41.1.61h3.46V2.14a7.18,7.18,0,0,0-.05-1c1.31.14,1.46.26,1.46.4s-.1.2-.45.34V3H36c.46-.52.53-.56.62-.56s.21.08.79.61c.3.27.35.35.35.44s-.13.24-.54.24c-.23,0-.28,0-.48.22a5.77,5.77,0,0,1-1,.68s-.14,0-.12-.09a5.06,5.06,0,0,0,.49-1.22Zm4.5,6.15c0,1.18,0,1.86,0,2.31a1,1,0,0,1-.4.79,1.63,1.63,0,0,1-.85.29c-.21,0-.24,0-.28-.28s-.26-.53-1.62-.81c-.08,0-.08-.19,0-.19.91.06,1.44.1,1.92.1.16,0,.22-.07.22-.23V8.52h-4a6.8,6.8,0,0,0-1,.08l-.13-.49a5.58,5.58,0,0,0,1.11.09h4V8.11a9.39,9.39,0,0,0-.06-1.4c.48.06.79.12,1,.15a10.13,10.13,0,0,0,1.5-1.56H29.37a4.58,4.58,0,0,0-1,.09l-.13-.51A5.24,5.24,0,0,0,29.34,5h4.57c.49-.43.55-.48.64-.48s.17,0,.66.5c.22.23.25.31.25.38s-.11.23-.57.27A10.93,10.93,0,0,1,32.7,7a.11.11,0,0,1,.08.11c0,.11-.11.2-.38.31V8.2h3.32c.66-.74.75-.81.84-.81s.16.07.79.59c.31.26.36.35.36.43s0,.11-.16.11H32.4Z"/></g></g></g></g></svg>