<svg id="レイヤー_2" data-name="レイヤー 2" xmlns="http://www.w3.org/2000/svg" width="27.943" height="49.506" viewBox="0 0 27.943 49.506">
  <g id="layout" transform="translate(0 0)">
    <path id="パス_13135" data-name="パス 13135" d="M16.3,22.788c7.4,1.406,11.616,5.8,11.616,12.331a13.564,13.564,0,0,1-14.5,14.353,16.376,16.376,0,0,1-9.248-2.614C2.146,45.575,0,43.553,0,41.383,0,39.78,1.677,38.5,4.316,38.5c2.022,0,2.836,3.3,3.625,5.056a5.6,5.6,0,0,0,5.475,3.773c4.932,0,7.892-4.71,7.892-12.331,0-4.71-2.022-11.32-9.174-10.851-.814,0-2.17.2-2.762.2s-.937,0-.74-1.282.666-1.48,1.332-1.48,1.554.2,2.294.2c3.773,0,7.892-3.107,7.892-10.383,0-4.932-1.948-9.224-6.264-9.224A5.45,5.45,0,0,0,8.706,5.13a7.4,7.4,0,0,0-.691,3.379c0,1.948-2.022,3.3-4.513,3.3-1.554,0-2.466-.691-2.466-2.022C1.085,5.8,6.19,0,13.885,0,20.84,0,26.364,4.168,26.364,11.32s-4.932,9.865-10.062,11.2Z" fill="#fff"/>
  </g>
</svg>
