<svg xmlns="http://www.w3.org/2000/svg" width="56.325" height="33.193" viewBox="0 0 56.325 33.193">
  <g id="グループ_3055" data-name="グループ 3055" transform="translate(-1322.781 -2424.959)">
    <path id="パス_21308" data-name="パス 21308" d="M33.678,35.02c3.847,0,4.726-.275,5.605-1.017a10.075,10.075,0,0,0,2.445-3.609c.147-.321.284-.376.742-.229s.513.275.467.55c-.6,2.363-1.53,5.651-2.317,8.06-2.958-.137-5.6-.137-8.564-.137s-5.651,0-8.61.137c-.421,0-.559-.092-.559-.833a1.5,1.5,0,0,1,.321-1.2,110.827,110.827,0,0,1,8.106-11.669c3.8-4.909,5.972-7.41,5.972-11.623,0-3.664-1.52-6.411-4.4-6.411a4.131,4.131,0,0,0-3.984,2.592,8.765,8.765,0,0,0-.458,3.334c0,1.255-1.621,2.088-3.151,2.088-.971,0-1.713-.376-1.713-1.667,0-2.922,3.664-7.776,9.306-7.776s8.939,3.609,8.939,8.051c0,5.789-3.755,8.014-8.106,12.319-4.818,4.717-6.246,6.759-7.639,9.067Z" transform="translate(1299.913 2419.377)" fill="#fff"/>
    <path id="パス_21309" data-name="パス 21309" d="M66.331,30.346c0,4.58,0,5.23.467,6.109s1.988.971,3.746,1.163c.376,0,.467.092.467.55s-.092.6-.467.6c-1.988-.137-4.58-.183-6.485-.183s-4.158.046-5.972.183c-.366,0-.458-.092-.458-.559s.092-.55.412-.6c1.621-.192,2.83-.192,3.334-1.163s.559-3,.559-6.109V13.915c0-4.406,0-4.955-.513-5.981-.458-.916-1.942-.916-3.746-1.062-.275,0-.376-.137-.376-.559,0-.6.1-.733.376-.733,3.893.183,8.243.229,11.907.229s7.547,0,11.577-.229c.183,2.354.55,5.138.916,7.492.046.284,0,.467-.559.559s-.6,0-.7-.321a11.275,11.275,0,0,0-2.958-4.68c-1.392-1.017-3.288-1.383-7.1-1.383-1.713,0-3.334.092-3.929,1.154-.513.916-.467,3.059-.467,5.5v6.75c.742.055,1.988.055,2.867.055,3.013,0,5.285-.238,6.164-.916a4.928,4.928,0,0,0,1.383-3.059c.1-.321.137-.467.65-.467s.65.092.65.467c0,1.575-.137,3.1-.137,4.625,0,1.722.092,3.618.137,5.239,0,.321,0,.5-.6.5s-.6-.229-.7-.5c-.183-1.072-.5-2.693-1.475-3.38s-3.1-.98-6.072-.98a25.985,25.985,0,0,0-2.867.1Z" transform="translate(1297.018 2419.379)" fill="#fff"/>
  </g>
</svg>
