<svg id="レイヤー_2" data-name="レイヤー 2" xmlns="http://www.w3.org/2000/svg" width="28.235" height="50.072" viewBox="0 0 28.235 50.072">
  <g id="layout" transform="translate(0 0)">
    <path id="パス_13138" data-name="パス 13138" d="M6.911,25.11a10.352,10.352,0,0,1,8.792-5.3c8,0,12.531,6.092,12.531,14.635S22.612,50.072,14.489,50.072,0,42.792,0,31.277A30.137,30.137,0,0,1,12.929,6.092,44.4,44.4,0,0,1,23.628,0c.545,0,.867,0,1.833,1.213A2.476,2.476,0,0,1,25.931,2.5c0,.421-.2.693-.619.693a18.2,18.2,0,0,0-9.534,3.294C11.1,10.029,7.729,16.394,6.49,25.036Zm.322,2.65a8.345,8.345,0,0,0-.867,4.185c0,10.7,3.442,15.9,8.123,15.9s7.182-5.869,7.182-13.323c0-6.835-2.3-12.258-7.429-12.258C11.369,22.287,8.942,24.368,7.233,27.76Z" transform="translate(0.001)" fill="#fff"/>
  </g>
</svg>
