<svg xmlns="http://www.w3.org/2000/svg" viewBox="0 0 45 14"><defs><style>.cls-1{fill:none;}.cls-2{isolation:isolate;}.cls-3{fill:#1a1a1a;}</style></defs><g id="レイヤー_2" data-name="レイヤー 2"><g id="レイヤー_1-2" data-name="レイヤー 1"><rect class="cls-1" width="45" height="14"/><g id="English" class="cls-2"><g class="cls-2"><path class="cls-3" d="M2.87,8.1a4.06,4.06,0,0,0,.19,1.69c.23.36.76.38,1.4.38a3.72,3.72,0,0,0,2.45-.58A4.28,4.28,0,0,0,8,8.17c0-.09.07-.13.21-.09s.17.12.14.2a14.14,14.14,0,0,1-.73,2.38c-1.21,0-2.41-.05-3.55-.05s-2.49,0-3.69.05c-.08,0-.11,0-.11-.18s0-.17.11-.18c.49-.06.83-.07,1-.34A4.9,4.9,0,0,0,1.54,8.1v-5c0-1.34,0-1.51-.15-1.82S.84,1,.3,1C.2.94.18.93.18.79S.2.56.3.56C1.47.63,2.72.63,3.88.63S6.15.63,7.36.56c0,.72.14,1.58.24,2.29,0,.08,0,.14-.13.16s-.21,0-.24-.09a3.25,3.25,0,0,0-.91-1.4,3.11,3.11,0,0,0-2.1-.45c-.54,0-1,0-1.21.35A4.4,4.4,0,0,0,2.87,3.1v2c.22,0,.56,0,.87,0a3.32,3.32,0,0,0,1.82-.3A1.28,1.28,0,0,0,6,3.92c0-.09,0-.13.17-.13s.2,0,.2.13c0,.49,0,.94,0,1.42s0,1.08,0,1.59c0,.1,0,.14-.2.14S6,7,6,6.93a1.64,1.64,0,0,0-.49-1,3.92,3.92,0,0,0-1.79-.3c-.31,0-.65,0-.87,0Z"/><path class="cls-3" d="M9.32,5.2c-.16,0-.2,0-.21-.2s0-.13.18-.17a13.07,13.07,0,0,0,1.93-.59c.07,0,.17,0,.17.11,0,.38,0,.79,0,1.16A2.49,2.49,0,0,1,13.54,4.2a1.91,1.91,0,0,1,2,2c0,.51,0,1.2,0,1.55v.91a3.77,3.77,0,0,0,.12,1.45c.11.22.36.23.74.27.09,0,.12,0,.12.16s0,.15-.12.15c-.45,0-1,0-1.39,0s-1,0-1.47,0c-.09,0-.11,0-.11-.15s0-.16.11-.16c.34,0,.61,0,.72-.27a3.4,3.4,0,0,0,.13-1.45V6.77a2.34,2.34,0,0,0-.16-1.15A1.16,1.16,0,0,0,13,4.9a1.7,1.7,0,0,0-1.38.79,1.68,1.68,0,0,0-.29,1.1V8.63a4.68,4.68,0,0,0,.08,1.45c.12.23.38.23.79.27.09,0,.11,0,.11.16s0,.15-.11.15c-.45,0-1,0-1.38,0s-1,0-1.46,0c-.09,0-.12,0-.12-.15s0-.14.12-.16c.34,0,.6,0,.73-.27a4.19,4.19,0,0,0,.11-1.45v-2a3.35,3.35,0,0,0-.11-1.16.39.39,0,0,0-.47-.29Z"/><path class="cls-3" d="M21.06,9.72c2.29,0,2.51,1.1,2.51,1.8,0,1.07-.69,2.48-3.49,2.48-1.79,0-2.83-.85-2.83-1.75,0-.73.49-1.28,1.43-1.64-.73-.23-.94-.53-.94-1s.48-1,1.37-1.35a2,2,0,0,1-1.62-1.93A2.31,2.31,0,0,1,20,4.18a3.06,3.06,0,0,1,1.37.33c.83,0,1.63,0,2.21-.1a.08.08,0,0,1,.09.1l-.19.41c0,.08-.05.09-.12.09-.5,0-.95,0-1.43,0a1.74,1.74,0,0,1,.58,1.28A2.15,2.15,0,0,1,20,8.39a2.72,2.72,0,0,1-.42,0c-.52.28-.8.55-.8.93s.32.47,1,.45Zm-.95,1c-.3,0-.65,0-.95,0-.12.08-.22.14-.32.22a1.46,1.46,0,0,0-.45,1.12c0,.91.76,1.53,2,1.53,1.38,0,2.19-.76,2.19-1.7,0-.61-.25-1.12-1.67-1.12ZM18.7,6.28C18.7,7.34,19.19,8,20,8s1.29-.69,1.29-1.75S20.8,4.56,20,4.56,18.7,5.3,18.7,6.28Z"/><path class="cls-3" d="M25.19,2.38a3.8,3.8,0,0,0-.1-1.15.44.44,0,0,0-.49-.3l-.37,0c-.12,0-.17,0-.18-.17s0-.17.15-.2a20.2,20.2,0,0,0,2-.59c.07,0,.16,0,.16.1,0,1-.06,2.05-.06,3.41v5.1a4.23,4.23,0,0,0,.1,1.46c.13.21.39.23.8.27.1,0,.12.05.12.17s0,.15-.12.15c-.46,0-1,0-1.39,0s-1,0-1.51,0c-.1,0-.13,0-.13-.15s0-.16.13-.17c.38,0,.63,0,.73-.27a3.64,3.64,0,0,0,.13-1.46Z"/><path class="cls-3" d="M29.06,6.63A4,4,0,0,0,29,5.46a.41.41,0,0,0-.5-.28l-.35,0c-.14,0-.19,0-.2-.18s0-.16.17-.18c.49-.13,1.41-.4,2-.61.09,0,.17,0,.17.13,0,1-.05,1.78-.05,2.45V8.61a5.18,5.18,0,0,0,.09,1.47c.12.2.43.2.82.24.09,0,.11,0,.11.16s0,.18-.11.18c-.45,0-1,0-1.42,0s-1,0-1.48,0c-.1,0-.13,0-.13-.18s0-.16.13-.16c.35,0,.63-.05.76-.24a3.9,3.9,0,0,0,.11-1.47ZM30.37,1.2a.88.88,0,0,1-.84.84.89.89,0,0,1-.85-.84.91.91,0,0,1,.85-.85A.9.9,0,0,1,30.37,1.2Z"/><path class="cls-3" d="M33.84,7.72c-1-.48-1.55-.76-1.55-1.9,0-.76.6-1.64,2-1.64a4.26,4.26,0,0,1,.94.13,5,5,0,0,0,.89,0c0,.46.07,1.08.13,1.55,0,.08,0,.11-.16.12s-.14,0-.18-.09a1.86,1.86,0,0,0-1.59-1.36,1,1,0,0,0-1.07,1c0,.5.31.72,1.15,1.1l.47.21c1.1.5,1.71.92,1.71,2s-.67,2-2.33,2a4.38,4.38,0,0,1-1.82-.38c-.11-.41-.24-1-.31-1.48,0-.07,0-.09.15-.11s.15,0,.17.09a2.29,2.29,0,0,0,1.86,1.49,1.16,1.16,0,0,0,1.24-1.24c0-.65-.42-.9-1.21-1.28Z"/><path class="cls-3" d="M39.66,5.49A2.5,2.5,0,0,1,41.82,4.2a1.87,1.87,0,0,1,2,2c0,.78,0,1.2,0,1.57v.91a4.26,4.26,0,0,0,.1,1.45c.1.22.4.22.78.26.08,0,.12.05.12.17s0,.15-.14.15c-.45,0-1,0-1.4,0s-1,0-1.46,0c-.11,0-.14,0-.14-.15s0-.16.14-.17c.37,0,.64,0,.74-.26a4,4,0,0,0,.11-1.45V6.77a2.72,2.72,0,0,0-.14-1.15,1.2,1.2,0,0,0-1.18-.72,1.77,1.77,0,0,0-1.69,1.89V8.63a4.82,4.82,0,0,0,.08,1.45c.08.19.38.22.8.26.1,0,.13,0,.13.17s0,.15-.13.15c-.46,0-.94,0-1.36,0s-1,0-1.52,0c-.09,0-.12,0-.12-.15s0-.16.12-.17c.38,0,.63,0,.74-.26a3.66,3.66,0,0,0,.13-1.45V2.38a4.34,4.34,0,0,0-.1-1.15A.38.38,0,0,0,38,.93L37.6,1c-.14,0-.17,0-.18-.19s0-.15.16-.18a15.9,15.9,0,0,0,2-.58c.09,0,.16,0,.16.1,0,1-.07,2-.07,3.37Z"/></g></g></g></g></svg>