<svg id="レイヤー_2" data-name="レイヤー 2" xmlns="http://www.w3.org/2000/svg" width="21.922" height="48.609" viewBox="0 0 21.922 48.609">
  <g id="layout" transform="translate(0 0)">
    <path id="パス_9281" data-name="パス 9281" d="M1.32,7.744C.654,7.966.383,7.892.112,7S.013,6.067.777,5.8A109.155,109.155,0,0,0,13.8,0c.666,0,1.011.395,1.011.814,0,5.327-.247,9.174-.247,14.625V36.13c0,6.683,0,7.4.74,8.829s3.231,1.43,5.993,1.7c.469,0,.617.247.617.986s-.148.962-.617.962c-2.959-.148-6.61-.271-9.446-.271-3.231,0-6.536,0-9.692.271-.543,0-.691-.148-.691-.962s.2-.937.691-.986c2.688-.222,5.056-.271,5.845-1.7a24.341,24.341,0,0,0,.765-8.829v-23.8A10.53,10.53,0,0,0,8,7.4a1.874,1.874,0,0,0-1.751-.814,7.843,7.843,0,0,0-2.466.493Z" transform="translate(0.009 0)" fill="#fff"/>
  </g>
</svg>
