<svg id="レイヤー_2" data-name="レイヤー 2" xmlns="http://www.w3.org/2000/svg" width="31.565" height="49.909" viewBox="0 0 31.565 49.909">
  <g id="layout" transform="translate(0 0)">
    <path id="パス_13136" data-name="パス 13136" d="M23.993,39.593c0,4.349-.126,5.183.556,6.776s2.781,1.466,5.057,1.669c.354,0,.556.126.556.961s-.152.91-.556.91c-2.528-.152-5.815-.354-8.369-.354s-6.043.2-8.571.354c-.556,0-.683,0-.683-.91s.2-.961.683-.961c1.8-.2,4.146-.354,4.627-1.391a16.03,16.03,0,0,0,.91-6.9v-3.11H.859c-.632,0-.834-.2-.834-1.8a3.717,3.717,0,0,1,.683-2.756c6.573-11.2,11.756-19.771,18.659-30.845L23.942,0c.278,0,.48.126.48.683-.152,5.537-.152,11.074-.278,17.42l-.152,15.9c2.351,0,4.7-.152,7.13-.354.354,0,.48.152.4.48L31,36.281c0,.354-.228.4-.632.4H23.993ZM18.33,19.367c0-5.057.152-7.863.354-12.49C13.425,15.347,8.04,24.2,3.135,33.045c-.4.683-.278,1.037.556,1.037H18.2Z" transform="translate(0.016)" fill="#fff"/>
  </g>
</svg>
