<svg xmlns="http://www.w3.org/2000/svg" viewBox="0 0 38 14"><defs><style>.cls-1{fill:none;}.cls-2{isolation:isolate;}.cls-3{fill:#1a1a1a;}</style></defs><g id="レイヤー_2" data-name="レイヤー 2"><g id="レイヤー_1-2" data-name="レイヤー 1"><rect class="cls-1" width="38" height="14"/><g id="日本語" class="cls-2"><g class="cls-2"><path class="cls-3" d="M2.07,12.17c0,.31-.21.43-.63.43S1,12.5,1,12.24c0-.67.08-1.62.08-6,0-2.38,0-3.54-.08-4.6a6.44,6.44,0,0,1,1.21.59h5.4c.45-.48.52-.52.6-.52s.18,0,.65.43c.21.18.25.26.25.34s-.07.19-.37.39V5.47c0,4.18.07,6,.07,6.58,0,.31-.21.44-.64.44s-.43-.1-.43-.36v-.6H2.07ZM7.75,2.56H2.07V6.62H7.75ZM2.07,11.2H7.75V6.94H2.07Z"/><path class="cls-3" d="M17.08,9.68c0-1.46.05-2.93.06-4.39a13,13,0,0,1-5.42,5.39c-.07,0-.21-.12-.13-.17a14.66,14.66,0,0,0,5-6.29H13.22a6.53,6.53,0,0,0-1,.08l-.13-.5a6,6,0,0,0,1.15.09h3.87V3.41A20.7,20.7,0,0,0,17,1c1.21.12,1.46.21,1.46.38s-.08.19-.43.36V3.89h3.5c.55-.7.66-.77.73-.77s.19.07.81.58c.29.23.35.31.35.39s-.05.13-.18.13H18.17a10.13,10.13,0,0,0,2.19,3.15,9.52,9.52,0,0,0,3.55,2.14c.05,0,0,.12,0,.13-.35.09-.52.23-.71.73-.06.13-.11.19-.2.19a1.33,1.33,0,0,1-.55-.24A11.61,11.61,0,0,1,19.8,7.89,13.67,13.67,0,0,1,18,4.47c0,1.73.07,3.47.1,5.21h1.08c.48-.61.58-.68.66-.68s.17.07.72.52c.23.2.3.29.3.37s0,.11-.17.11H18.07c0,1.5,0,2.26,0,2.56s-.24.44-.65.44-.45-.12-.45-.38,0-1.07,0-2.62H15.4a6.74,6.74,0,0,0-.93.08l-.13-.49a5.39,5.39,0,0,0,1,.09Z"/><path class="cls-3" d="M24.82,3.57a5.5,5.5,0,0,0,1,.07H28c.5-.54.59-.61.67-.61s.18.07.69.47c.23.17.28.28.28.35s0,.12-.16.12H25.8a5.61,5.61,0,0,0-.85.08Zm1.41,8.93c0,.28-.16.41-.53.41s-.4-.09-.4-.31,0-.85,0-2.35c0-.89,0-1.25-.05-1.89a6.7,6.7,0,0,1,1,.48H28c.4-.43.47-.48.55-.48s.16.05.54.38c.17.16.22.25.22.33s-.06.18-.32.36v.69c0,1.36,0,2.06,0,2.24s-.16.39-.52.39-.39-.09-.39-.31v-.31H26.23Zm-.92-7.17a5.3,5.3,0,0,0,.93.07h1.34c.43-.54.55-.61.63-.61s.17.07.66.48c.2.17.26.26.26.34s0,.12-.17.12H26.23a4.68,4.68,0,0,0-.77.08Zm0-3.51a6.36,6.36,0,0,0,.92.08h1.32c.48-.55.58-.61.66-.61s.18.06.71.48c.2.17.26.25.26.32s0,.13-.17.13H26.25a3.87,3.87,0,0,0-.77.08Zm0,5.21a5.86,5.86,0,0,0,.88.08h1.4c.43-.53.54-.6.62-.6s.18.07.67.47c.19.17.26.25.26.33s-.06.13-.17.13H26.23a3.72,3.72,0,0,0-.77.07Zm2.73,2.14H26.23V11.8h1.83Zm7.48-2.35c.42-.57.52-.63.6-.63s.17.06.61.5c.17.16.24.25.24.33s0,.13-.17.13H30.41a3.56,3.56,0,0,0-.81.08l-.13-.5a4.58,4.58,0,0,0,.94.09H31a22.38,22.38,0,0,0,.7-2.46h-.59a4.78,4.78,0,0,0-.92.09L30,4A6.43,6.43,0,0,0,31.09,4h.67c.16-.67.28-1.33.39-2H30.84a5,5,0,0,0-.9.08l-.13-.48a7.49,7.49,0,0,0,1,.08h4.08c.49-.59.58-.64.66-.64s.18,0,.74.49c.22.19.29.26.29.34s0,.13-.17.13H33.09a19.65,19.65,0,0,1-.4,2h1.59c.38-.43.47-.49.54-.49s.16.06.55.38c.21.16.26.24.26.31s0,.13-.34.37V6.82Zm-4.25,5.74c0,.26-.19.4-.54.4s-.43-.12-.43-.32.05-.77.05-2.4a15.54,15.54,0,0,0-.08-2.06,5.74,5.74,0,0,1,1.12.52h3.31c.39-.44.47-.49.55-.49s.15,0,.56.37c.22.19.26.26.26.34s0,.17-.35.39v.76c0,1.46,0,2.19,0,2.4s-.2.41-.56.41-.41-.09-.41-.32v-.43H31.29ZM34.81,9H31.29V11.8h3.52Zm-.43-4.67H32.62c-.21.82-.41,1.66-.69,2.46h2.45Z"/></g></g></g></g></svg>