<svg xmlns="http://www.w3.org/2000/svg" viewBox="0 0 34 14"><defs><style>.cls-1{fill:none;}.cls-2{isolation:isolate;}.cls-3{fill:#1a1a1a;}</style></defs><g id="レイヤー_2" data-name="レイヤー 2"><g id="レイヤー_1-2" data-name="レイヤー 1"><rect class="cls-1" width="34" height="14"/><g id="한국어" class="cls-2"><g class="cls-2"><path class="cls-3" d="M6.24,3.41a5.32,5.32,0,0,1,1.11.15c.09,0,.14.1.14.16a.63.63,0,0,1-.25.46,10.15,10.15,0,0,0-1.12,0c-.5,0-3.58.06-4.05.1a4.34,4.34,0,0,0-.9.17,4.09,4.09,0,0,1-1-.55.13.13,0,0,1,0-.12l.09-.14a7.34,7.34,0,0,0,1.11.08c.52,0,4,0,4.52-.07ZM3.94,8.78c-1.41,0-2.55-.81-2.55-2s1.14-2,2.55-2,2.55.81,2.55,2S5.35,8.78,3.94,8.78Zm-1.86-7A18.31,18.31,0,0,0,5.15,2a.15.15,0,0,1,.17.12.63.63,0,0,1,0,.45.16.16,0,0,1-.16.08c-.65,0-1.59,0-2.13.07a.37.37,0,0,1-.24,0A2.82,2.82,0,0,1,2,2a.09.09,0,0,1,0-.11ZM3.94,8.16A1.5,1.5,0,0,0,5.63,6.74,1.51,1.51,0,0,0,3.94,5.29,1.51,1.51,0,0,0,2.26,6.74,1.5,1.5,0,0,0,3.94,8.16Zm4.91,3.57a5.64,5.64,0,0,1,1.16.08.17.17,0,0,1,.16.18.62.62,0,0,1-.13.43.17.17,0,0,1-.15.06l-5.23,0h0c-.8,0-1.09-.29-1.09-1V10.29a2.28,2.28,0,0,0-.86-.36l.06-.27c0-.06,0-.07.12-.07A7.84,7.84,0,0,1,4.3,9.7a.21.21,0,0,1,.18.23l0,.55v1.17c0,.24.08.32.31.32.78,0,3,0,3.68,0Zm1.61-6.19a5.89,5.89,0,0,1,1.09.06.22.22,0,0,1,.17.21.49.49,0,0,1-.15.44.35.35,0,0,1-.23.06l-2.16,0V7.56A10.2,10.2,0,0,1,8.9,10H8.38c-.05-.5-.08-1.57-.08-2.14V2a2.35,2.35,0,0,0-1-.63l.09-.3S7.4,1,7.5,1a5.54,5.54,0,0,1,1.57.32.23.23,0,0,1,.15.25l0,.64v3.6l.88,0Z"/><path class="cls-3" d="M21.94,5.63a8,8,0,0,1,1.38.18.24.24,0,0,1,.16.21.57.57,0,0,1-.25.46c-.34,0-1.07-.06-1.44-.06l-3.53,0v.81a9,9,0,0,1-.16,1.57l2-.06.35-.16a.19.19,0,0,1,.18,0,3.73,3.73,0,0,1,.49.29.14.14,0,0,1,0,.14L21,9.42l0,1.76A7.27,7.27,0,0,1,20.74,13h-.55c-.05-.41-.07-1.16-.07-1.6V9.35c-1,0-3.64,0-4.19.05a4.38,4.38,0,0,0-1.09.2A3.82,3.82,0,0,1,13.76,9s-.06-.08,0-.12l.09-.17a6.26,6.26,0,0,0,1.2.12l2.43,0c0-.43,0-1,0-1.36v-1l-2.8.06a6.36,6.36,0,0,0-1.23.23,3.72,3.72,0,0,1-1.22-.64S12.1,6,12.12,6l.08-.19A7.34,7.34,0,0,0,13.58,6c.55,0,4,0,6.24-.08a20.16,20.16,0,0,0,.39-3.35c-1,0-3.67,0-4.22.06a5.12,5.12,0,0,0-1.09.21,3.85,3.85,0,0,1-1.06-.58c-.07,0-.08-.08-.05-.13l.07-.16A7.65,7.65,0,0,0,15.1,2c.62,0,4.3-.06,5.12-.1l.42-.2a.34.34,0,0,1,.2,0,3,3,0,0,1,.54.3.14.14,0,0,1,0,.16l-.18.4a14.67,14.67,0,0,1-.81,3.26c.52,0,.9,0,1.07,0Z"/><path class="cls-3" d="M32,1.06S32,1,32.13,1a5.68,5.68,0,0,1,1.59.32c.11,0,.14.13.14.25l0,.65V10.3a12.61,12.61,0,0,1-.29,2.59H33c0-.52-.07-1.73-.07-2.28V6.16a9.17,9.17,0,0,0-1.24,0,3.26,3.26,0,0,0-.8.21,3.31,3.31,0,0,1-.5-.24,2.64,2.64,0,0,1-2.79,2.57A2.65,2.65,0,0,1,24.8,6.05a2.65,2.65,0,0,1,2.82-2.69,2.64,2.64,0,0,1,2.77,2.29H31c.4,0,1.32,0,1.91-.06V2a2.37,2.37,0,0,0-1.05-.63Zm-2.49,5a1.89,1.89,0,1,0-3.77,0,1.89,1.89,0,1,0,3.77,0Z"/></g></g></g></g></svg>