<svg xmlns="http://www.w3.org/2000/svg" viewBox="0 0 38 14"><defs><style>.cls-1{fill:none;}.cls-2{isolation:isolate;}.cls-3{fill:#1a1a1a;}</style></defs><g id="レイヤー_2" data-name="レイヤー 2"><g id="レイヤー_1-2" data-name="レイヤー 1"><rect class="cls-1" width="38" height="14"/><g id="繁体字" class="cls-2"><g class="cls-2"><path class="cls-3" d="M11,2.89A5.87,5.87,0,0,1,9.59,5.33l.16.13a6.69,6.69,0,0,0,2.43,1c.05,0,0,.11,0,.13a.69.69,0,0,0-.59.56.19.19,0,0,1-.2.17A1.12,1.12,0,0,1,11,7.14,6.48,6.48,0,0,1,9.5,6.07a3.58,3.58,0,0,1-.34-.33A7,7,0,0,1,6.57,7.05c-.06,0-.11-.11-.06-.14A7.61,7.61,0,0,0,8.76,5.27a7.05,7.05,0,0,1-1-1.86,7.27,7.27,0,0,1-.93.87,2.94,2.94,0,0,1,.24.21.46.46,0,0,1,.16.27c0,.08,0,.12-.16.12H5.9c-.05.38-.1.76-.18,1.12H6c.24-.35.34-.41.4-.41s.18.06.47.35A.53.53,0,0,1,7,6.19c0,.09,0,.13-.17.13H5.65a3.14,3.14,0,0,1-.13.4,1.39,1.39,0,0,1-.44.72.76.76,0,0,1-.52.15c-.16,0-.19,0-.25-.22s-.17-.31-.85-.43c0,0,0-.14,0-.14.56,0,.85.06,1,.06s.33-.06.46-.54H2A1.69,1.69,0,0,0,2,6.56c-.06.17-.19.24-.44.24s-.37-.07-.37-.17a.5.5,0,0,1,0-.16,10.53,10.53,0,0,0,.51-1.59H1.52A2.66,2.66,0,0,0,.81,5l-.13-.5a3.09,3.09,0,0,0,.84.09h.25c0-.19.09-.36.13-.55.07-.36.16-.81.21-1.24a7.75,7.75,0,0,1,.71.44H5.29c.27-.32.35-.37.42-.37s.15.05.42.28.19.23.19.31-.05.15-.29.3c0,.3-.07.58-.09.83h.25c.27-.35.36-.41.43-.41s.06,0,.13,0A9.81,9.81,0,0,0,7.87,2.07,4.13,4.13,0,0,0,8.14,1c1,.28,1.16.32,1.16.44s-.12.18-.44.23c-.17.34-.32.63-.47.9h2.27c.42-.56.52-.61.6-.61s.19.05.65.44c.22.19.26.28.26.36s0,.12-.16.12ZM5.57,2.17c.38-.48.48-.53.56-.53s.17.05.64.41c.2.15.25.25.25.33s0,.11-.15.11H2.33A6.18,6.18,0,0,1,.87,3.85c-.05,0-.14-.06-.1-.11A6.9,6.9,0,0,0,1.88,2,3.34,3.34,0,0,0,2.17,1c1,.24,1.14.29,1.14.42s-.11.16-.42.21a5.55,5.55,0,0,1-.34.54ZM1.23,12.61a8.63,8.63,0,0,0,2-1.34,5.37,5.37,0,0,0,.67-.73c.78.44,1,.59,1,.7s-.14.18-.55.13a9.51,9.51,0,0,1-3.11,1.42C1.21,12.8,1.16,12.65,1.23,12.61Zm4.53-2.4c-1.14.09-2.4.15-3.84.21-.1.27-.18.34-.25.34s-.2-.21-.38-1.16c.58.05,1,.08,1.74.08H5.88a12.19,12.19,0,0,0,1.3-1.42,7.42,7.42,0,0,0,.58-.92c.79.44,1.05.58,1.05.71s-.09.16-.56.16a14.46,14.46,0,0,1-2,1.45c1.26,0,2.51-.09,3.78-.16a3.47,3.47,0,0,0-1-.82c-.05,0,0-.13.07-.12,1.47.29,2.34.91,2.34,1.57a.42.42,0,0,1-.41.47c-.2,0-.32-.09-.59-.56-.06-.1-.13-.19-.19-.28-1.2.18-2.4.29-3.61.4v1c0,.7,0,1.29,0,1.47s-.21.4-.58.4-.41-.1-.41-.34,0-.57,0-1.47ZM3.2,6c.09-.38.17-.74.24-1.12h-1c-.1.38-.19.76-.3,1.12Zm.3-1.44c.06-.34.11-.69.15-1H2.73c-.08.35-.14.7-.21,1Zm2,4.49a.4.4,0,0,1-.4.4c-.18,0-.22,0-.46-.38A3,3,0,0,0,3.34,8s0-.12,0-.11a5.22,5.22,0,0,1,1.48.42,5.93,5.93,0,0,0,.47-.67A3.34,3.34,0,0,0,5.64,7c.72.32,1.07.49,1.07.62s-.1.18-.53.18a8.67,8.67,0,0,1-1.08.68A.75.75,0,0,1,5.47,9.05ZM5,6a10.07,10.07,0,0,0,.2-1.12H4.13C4.06,5.26,4,5.64,3.91,6ZM4.36,3.53c-.05.27-.09.55-.16,1h1c0-.31.09-.65.12-1Zm5.42,8.75a5.26,5.26,0,0,0-2-1.52c-.06,0,0-.13,0-.13,1.68.15,2.91.83,2.91,1.52a.42.42,0,0,1-.42.46C10.09,12.61,10,12.53,9.78,12.28ZM8,3.2A5.63,5.63,0,0,0,9.07,4.89a5.79,5.79,0,0,0,1-2H8.19Z"/><path class="cls-3" d="M15.5,7.59c0,3,0,4.39,0,4.82s-.17.44-.54.44-.43-.12-.43-.39.05-1.17.06-4.11c0-.79,0-1.58,0-2.37a13.41,13.41,0,0,1-1.5,1.63c-.07.06-.21-.08-.16-.14a14.47,14.47,0,0,0,2.38-4.6,8.83,8.83,0,0,0,.35-1.59c1.1.33,1.41.48,1.41.6s-.13.21-.48.26a15.08,15.08,0,0,1-1.46,3c.61.1.71.15.71.28s-.06.18-.38.31Zm4.18,2c0-1,0-2,.07-3.91a11.09,11.09,0,0,1-3.84,4.49c-.08,0-.22-.09-.16-.15a13.44,13.44,0,0,0,3.44-5.3h-2a4.92,4.92,0,0,0-.84.07l-.12-.48a3.9,3.9,0,0,0,.93.09h2.51V3a12.78,12.78,0,0,0-.07-1.7c1.17.12,1.43.21,1.43.38s-.09.2-.46.36V4.36H23c.56-.67.64-.73.72-.73s.16,0,.71.52c.25.22.35.34.35.41s0,.12-.18.12H20.72a8,8,0,0,0,2,2.91,8.29,8.29,0,0,0,2.36,1.57c.07,0,0,.13-.05.14-.26,0-.41.21-.57.58-.06.19-.11.23-.22.23a1,1,0,0,1-.41-.22,7.78,7.78,0,0,1-1.78-1.84,11.34,11.34,0,0,1-1.51-3.18c0,1.55,0,3.12.06,4.68h.85C21.91,9,22,9,22.08,9s.17.06.65.47c.2.16.25.25.25.32s0,.12-.17.12H20.63c0,1.24,0,2.25,0,2.54s-.18.4-.6.4-.43-.11-.43-.33,0-1.36,0-2.61H18.41a4.81,4.81,0,0,0-.8.07l-.13-.48a3.66,3.66,0,0,0,.9.09Z"/><path class="cls-3" d="M27.65,3.43c0,1-.49,1.66-1.07,1.66a.5.5,0,0,1-.51-.52c0-.25.08-.36.4-.54a1.6,1.6,0,0,0,.89-1.51c0-.08.17-.08.18,0a4.28,4.28,0,0,1,.1.59H31V2.26a6.91,6.91,0,0,0-.05-1c1.29.13,1.44.25,1.44.39s-.1.2-.44.34V3.11h3.6c.45-.51.51-.54.6-.54s.22.07.79.59c.29.27.34.34.34.43s-.13.24-.53.24c-.23,0-.28,0-.47.21a5.65,5.65,0,0,1-1,.67s-.14,0-.11-.08a6.09,6.09,0,0,0,.48-1.2Zm4.42,6c0,1.17,0,1.83,0,2.28a.93.93,0,0,1-.39.77,1.6,1.6,0,0,1-.83.29c-.22,0-.24,0-.28-.28s-.25-.52-1.59-.8c-.08,0-.08-.19,0-.19.89.07,1.41.11,1.88.11.16,0,.21-.07.21-.23V8.53H27.16a6.48,6.48,0,0,0-1,.07l-.13-.48a5.33,5.33,0,0,0,1.09.09h3.95V8.12a10.74,10.74,0,0,0-.05-1.37c.47.06.77.11,1,.15a9.86,9.86,0,0,0,1.48-1.54H29.09a4.52,4.52,0,0,0-1,.09L28,5A5,5,0,0,0,29.07,5h4.48c.48-.43.55-.48.63-.48s.17.05.65.49c.21.23.25.31.25.38s-.11.23-.57.27A10.39,10.39,0,0,1,32.36,7c.07,0,.08.06.08.11s-.1.19-.37.31v.79h3.26c.65-.73.74-.79.82-.79s.17.06.79.58c.3.25.35.34.35.41s0,.12-.16.12H32.07Z"/></g></g></g></g></svg>